<svg width="1158" height="801" viewBox="0 0 1158 801" fill="none" xmlns="http://www.w3.org/2000/svg">
<path fill-rule="evenodd" clip-rule="evenodd" d="M0 329H312.99C342.677 207.856 451.633 118 581.5 118C711.367 118 820.323 207.856 850.01 329H1158V0H0V329ZM0 474H318.6C352.751 587.957 458.428 671 583.5 671C708.572 671 814.249 587.957 848.4 474H1158V801H0V474Z" fill="#1E1E2A"/>
<g filter="url(#filter0_b_180_2076)">
<circle cx="582" cy="392" r="253" fill="url(#paint0_linear_180_2076)" fill-opacity="0.15"/>
</g>
<path d="M583.167 273L481 331.943L583.167 391.376L685.334 331.943L583.167 273Z" fill="url(#paint1_radial_180_2076)"/>
<path d="M583.167 509.261V391.375L685.334 331.942V450.318L583.167 509.261Z" fill="url(#paint2_linear_180_2076)"/>
<path d="M583.167 509.261V391.375L481 331.942V450.318L583.167 509.261Z" fill="url(#paint3_linear_180_2076)"/>
<path fill-rule="evenodd" clip-rule="evenodd" d="M583.295 300.374L582.332 299.819L581.361 300.358L503.139 343.683L502.119 344.248L502.126 345.415L502.74 437.166L502.748 438.282L503.71 438.847L543.005 461.933L544.995 458.545L506.662 436.024L506.064 346.555L582.293 304.333L593.123 310.581L593.61 444.037L593.622 447.403L596.547 445.737L635.351 423.633L636.343 423.068V421.926V391.473V389.483L636.342 389.483V389.435V389.364V389.292V389.221V389.149V389.077V389.005V388.933V388.86V388.788V388.715V388.642V388.569V388.496V388.422V388.349V388.275V388.202V388.128V388.054V387.979V387.905V387.831V387.756V387.681V387.607V387.532V387.456V387.381V387.306V387.23V387.155V387.079V387.003V386.927V386.851V386.775V386.699V386.622V386.546V386.469V386.392V386.315V386.238V386.161V386.084V386.007V385.929V385.852V385.774V385.697V385.619V385.541V385.463V385.385V385.307V385.229V385.15V385.072V384.993V384.915V384.836V384.757V384.679V384.6V384.521V384.442V384.363V384.283V384.204V384.125V384.046V383.966V383.887V383.807V383.727V383.648V383.568V383.488V383.408V383.328V383.248V383.168V383.088V383.008V382.928V382.848V382.767V382.687V382.607V382.526V382.446V382.365V382.285V382.204V382.124V382.043V381.962V381.882V381.801V381.72V381.639V381.559V381.478V381.397V381.316V381.235V381.154V381.073V380.992V380.911V380.831V380.75V380.669V380.588V380.507V380.426V380.345V380.264V380.183V380.102V380.021V379.94V379.859V379.778V379.697V379.616V379.535V379.454V379.373V379.292V379.211V379.13V379.049V378.968V378.888V378.807V378.726V378.645V378.564V378.484V378.403V378.322V378.242V378.161V378.081V378V377.92V377.839V377.759V377.679V377.598V377.518V377.438V377.358V377.277V377.197V377.117V377.037V376.957V376.878V376.798V376.718V376.638V376.559V376.479V376.4V376.32V376.241V376.162V376.082V376.003V375.924V375.845V375.766V375.687V375.609V375.53V375.451V375.373V375.294V375.216V375.138V375.059V374.981V374.903V374.825V374.748V374.67V374.592V374.515V374.437V374.36V374.283V374.205V374.128V374.051V373.975V373.898V373.821V373.745V373.668V373.592V373.516V373.44V373.364V373.288V373.213V373.137V373.062V372.986V372.911V372.836V372.761V372.686V372.612V372.537V372.463V372.388V372.314V372.24V372.166V372.093V372.019V371.946V371.872V371.799V371.726V371.653V371.581V371.508V371.436V371.364V371.292V371.22V371.148V371.076V371.005V370.934V370.863V370.792V370.721V370.65V370.58V370.51V370.44V370.37V370.3V370.23V370.161V370.092V370.023V369.954V369.885V369.817V369.749V369.681V369.613V369.545V369.477V369.41V369.343V369.276V369.209V369.143V369.076V369.01V368.944V368.879V368.813V368.748V368.683V368.618V368.553V368.489V368.425V368.361V368.297V368.233V368.17V368.107V368.044V367.981V367.919V367.856V367.794V367.733V367.671V367.61V367.549V367.488V367.427V367.367V367.307V367.247V367.187V367.128V367.068V367.01V366.951V366.892V366.834V366.776V366.719V366.661V366.604V366.547V366.491V366.434V366.378V366.322V366.267V366.211V366.156V366.101V366.047V365.993V365.939V365.885V365.832V365.778V365.726V365.673V365.621V365.569V365.517V365.465V365.414V365.363V365.313V365.262V365.212V365.163V365.113V365.064V365.015V364.967V364.919V364.871V364.823V364.776V364.729V364.682V364.636V364.589V364.544V364.498V364.453V364.408V364.364V364.32V364.276V364.232V364.189V364.146V364.103V364.061V364.019V363.978V363.936V363.895V363.855V363.814V363.775V363.735V363.696V363.657V363.618V363.58V363.542V363.505V363.467V363.43V363.394V363.358V363.322V363.287V363.252V363.217V363.182V363.148V363.115V363.081V363.049V363.016V362.984V362.952V362.921V362.889V362.859V362.828V362.799V362.769V362.74V362.711V362.682V362.654V362.627V362.599V362.573V362.546V362.52V362.494V362.469V362.444V362.419V362.395V362.371V362.348V362.325V362.302V362.28V362.259V362.237V362.216V362.196V362.176V362.156V362.137V362.118V362.099V362.081V362.063V362.046V362.029V362.013V361.997V361.982V361.966V361.952V361.938V361.924V361.91V361.897V361.885V361.873V361.861V361.85V361.839V361.829V361.819V361.809V361.8V361.792V361.784V361.776V361.769V361.762V361.756V361.75V361.745V361.74V361.735V361.731V361.728V361.725V361.722V361.72V361.718V361.717C636.342 361.065 636.015 360.626 635.971 360.567L635.967 360.562C635.873 360.432 635.784 360.342 635.746 360.306C635.663 360.225 635.589 360.167 635.563 360.147C635.498 360.096 635.436 360.054 635.401 360.03C635.321 359.976 635.223 359.913 635.12 359.849C634.908 359.716 634.606 359.533 634.23 359.307C633.476 358.855 632.389 358.212 631.051 357.426C628.373 355.854 624.67 353.697 620.566 351.317C612.808 346.819 603.604 341.515 597.152 337.834L597.048 309.437L597.044 308.307L596.065 307.742L583.295 300.374ZM597.169 342.369L597.342 389.976L632.412 389.532V389.506V389.435V389.364V389.292V389.221V389.149V389.077V389.005V388.933V388.86V388.788V388.715V388.642V388.569V388.496V388.422V388.349V388.275V388.202V388.128V388.054V387.979V387.905V387.831V387.756V387.681V387.607V387.532V387.456V387.381V387.306V387.23V387.155V387.079V387.003V386.927V386.851V386.775V386.699V386.622V386.546V386.469V386.392V386.315V386.238V386.161V386.084V386.007V385.929V385.852V385.774V385.697V385.619V385.541V385.463V385.385V385.307V385.229V385.15V385.072V384.993V384.915V384.836V384.757V384.679V384.6V384.521V384.442V384.363V384.283V384.204V384.125V384.046V383.966V383.887V383.807V383.727V383.648V383.568V383.488V383.408V383.328V383.248V383.168V383.088V383.008V382.928V382.848V382.767V382.687V382.607V382.526V382.446V382.365V382.285V382.204V382.124V382.043V381.962V381.882V381.801V381.72V381.639V381.559V381.478V381.397V381.316V381.235V381.154V381.073V380.992V380.911V380.831V380.75V380.669V380.588V380.507V380.426V380.345V380.264V380.183V380.102V380.021V379.94V379.859V379.778V379.697V379.616V379.535V379.454V379.373V379.292V379.211V379.13V379.049V378.968V378.888V378.807V378.726V378.645V378.564V378.484V378.403V378.322V378.242V378.161V378.081V378V377.92V377.839V377.759V377.679V377.598V377.518V377.438V377.358V377.277V377.197V377.117V377.037V376.957V376.878V376.798V376.718V376.638V376.559V376.479V376.4V376.32V376.241V376.162V376.082V376.003V375.924V375.845V375.766V375.687V375.609V375.53V375.451V375.373V375.294V375.216V375.138V375.059V374.981V374.903V374.825V374.748V374.67V374.592V374.515V374.437V374.36V374.283V374.205V374.128V374.051V373.975V373.898V373.821V373.745V373.668V373.592V373.516V373.44V373.364V373.288V373.213V373.137V373.062V372.986V372.911V372.836V372.761V372.686V372.612V372.537V372.463V372.388V372.314V372.24V372.166V372.093V372.019V371.946V371.872V371.799V371.726V371.653V371.581V371.508V371.436V371.364V371.292V371.22V371.148V371.076V371.005V370.934V370.863V370.792V370.721V370.65V370.58V370.51V370.44V370.37V370.3V370.23V370.161V370.092V370.023V369.954V369.885V369.817V369.749V369.681V369.613V369.545V369.477V369.41V369.343V369.276V369.209V369.143V369.076V369.01V368.944V368.879V368.813V368.748V368.683V368.618V368.553V368.489V368.425V368.361V368.297V368.233V368.17V368.107V368.044V367.981V367.919V367.856V367.794V367.733V367.671V367.61V367.549V367.488V367.427V367.367V367.307V367.247V367.187V367.128V367.068V367.01V366.951V366.892V366.834V366.776V366.719V366.661V366.604V366.547V366.491V366.434V366.378V366.322V366.267V366.211V366.156V366.101V366.047V365.993V365.939V365.885V365.832V365.778V365.726V365.673V365.621V365.569V365.517V365.465V365.414V365.363V365.313V365.262V365.212V365.163V365.113V365.064V365.015V364.967V364.919V364.871V364.823V364.776V364.729V364.682V364.636V364.589V364.544V364.498V364.453V364.408V364.364V364.32V364.276V364.232V364.189V364.146V364.103V364.061V364.019V363.978V363.936V363.895V363.855V363.814V363.775V363.735V363.696V363.657V363.618V363.58V363.542V363.505V363.467V363.43V363.394V363.358V363.322V363.287V363.252V363.217V363.182V363.148V363.115V363.081V363.049V363.016V362.984V362.952V362.921V362.889V362.859V362.828V362.799L632.208 362.677C631.47 362.234 630.397 361.599 629.061 360.815C626.393 359.248 622.697 357.095 618.595 354.717C611.599 350.66 603.429 345.95 597.169 342.369ZM597.527 440.656L597.357 393.906L632.414 393.462V420.784L597.527 440.656ZM657.96 347.914L619.644 325.882L621.602 322.476L660.897 345.07L661.877 345.633L661.883 346.763L662.374 436.159L662.38 437.285L661.412 437.86L584.169 483.689L583.171 484.281L582.171 483.693L568.544 475.685L567.575 475.116V473.991V445.663C560.975 441.908 551.703 436.569 543.934 432.071C539.85 429.706 536.179 427.572 533.528 426.022C532.203 425.248 531.129 424.617 530.386 424.175C530.015 423.955 529.72 423.779 529.516 423.653C529.415 423.592 529.325 423.536 529.254 423.49C529.222 423.47 529.173 423.438 529.122 423.401C529.102 423.387 529.043 423.345 528.976 423.288C528.948 423.264 528.867 423.194 528.777 423.093C528.729 423.038 528.619 422.889 528.558 422.794C528.469 422.628 528.309 422.125 528.28 421.786L528.28 421.194C528.279 418.833 528.278 409.68 528.276 398.677C528.274 385.905 528.272 370.641 528.272 360.618V359.458L529.287 358.898L568.59 337.195L571.504 335.585V338.915V472.867L583.162 479.718L658.438 435.055L657.96 347.914ZM567.575 441.141V342.244L532.202 361.777C532.202 371.792 532.204 386.388 532.205 398.677C532.207 409.008 532.208 417.71 532.209 420.688L532.392 420.797C533.124 421.231 534.188 421.857 535.511 422.63C538.156 424.176 541.821 426.307 545.903 428.67C552.932 432.74 561.188 437.496 567.575 441.141ZM633.202 363.287C633.206 363.289 633.206 363.29 633.205 363.289L633.202 363.287Z" fill="url(#paint4_linear_180_2076)"/>
<circle cx="619.153" cy="323.197" r="4.91188" fill="#F5F8FF"/>
<circle cx="544.492" cy="460.728" r="4.91188" fill="#BACDFE"/>
<path d="M507.034 547H505.124V533.043H499.886V531.32H512.273V533.043H507.034V547ZM528.917 539.172C528.917 538.117 528.78 537.188 528.506 536.383C528.233 535.578 527.854 534.906 527.37 534.367C526.893 533.828 526.327 533.422 525.67 533.148C525.022 532.867 524.323 532.727 523.573 532.727C522.823 532.727 522.12 532.867 521.463 533.148C520.815 533.422 520.249 533.828 519.764 534.367C519.288 534.906 518.913 535.578 518.639 536.383C518.366 537.188 518.229 538.117 518.229 539.172C518.229 540.227 518.366 541.156 518.639 541.961C518.92 542.758 519.299 543.426 519.776 543.965C520.26 544.504 520.827 544.91 521.475 545.184C522.131 545.457 522.838 545.594 523.596 545.594C524.346 545.594 525.042 545.457 525.682 545.184C526.331 544.91 526.893 544.504 527.37 543.965C527.854 543.426 528.233 542.758 528.506 541.961C528.78 541.156 528.917 540.227 528.917 539.172ZM530.932 539.172C530.932 540.359 530.76 541.449 530.417 542.441C530.073 543.434 529.581 544.289 528.94 545.008C528.299 545.727 527.526 546.289 526.62 546.695C525.721 547.094 524.713 547.293 523.596 547.293C522.44 547.293 521.405 547.094 520.491 546.695C519.577 546.289 518.803 545.727 518.17 545.008C517.538 544.289 517.053 543.434 516.717 542.441C516.381 541.449 516.213 540.359 516.213 539.172C516.213 537.977 516.385 536.883 516.729 535.891C517.081 534.891 517.573 534.031 518.206 533.312C518.846 532.594 519.62 532.035 520.526 531.637C521.432 531.23 522.448 531.027 523.573 531.027C524.721 531.027 525.749 531.23 526.655 531.637C527.569 532.035 528.342 532.594 528.975 533.312C529.608 534.031 530.092 534.891 530.428 535.891C530.764 536.883 530.932 537.977 530.932 539.172ZM536.971 547V531.32H538.881V539.066H538.904L546.111 531.32H548.467L541.154 539.125L549.029 547H546.545L538.904 539.324H538.881V547H536.971ZM556.052 545.277H564.091V547H554.142V531.32H563.658V533.043H556.052V538.105H562.814V539.828H556.052V545.277ZM578.075 540.062C579.036 541.445 579.985 542.867 580.923 544.328H580.993C580.891 542.805 580.84 541.25 580.84 539.664V531.32H582.751V547H580.852L574.7 538.258C573.637 536.734 572.688 535.312 571.852 533.992H571.782C571.883 535.422 571.934 537.09 571.934 538.996V547H570.024V531.32H571.923L578.075 540.062ZM598.73 547H596.82V531.32H601.167C601.816 531.32 602.413 531.359 602.96 531.438C603.515 531.516 604.023 531.637 604.484 531.801C605.421 532.137 606.132 532.641 606.617 533.312C607.101 533.977 607.343 534.797 607.343 535.773C607.343 536.57 607.183 537.273 606.863 537.883C606.55 538.484 606.093 538.988 605.492 539.395C604.89 539.801 604.156 540.109 603.288 540.32C602.429 540.523 601.453 540.625 600.359 540.625C599.835 540.625 599.292 540.602 598.73 540.555V547ZM598.73 538.809C598.988 538.84 599.257 538.863 599.538 538.879C599.82 538.895 600.085 538.902 600.335 538.902C601.234 538.902 601.999 538.832 602.632 538.691C603.265 538.551 603.781 538.348 604.179 538.082C604.578 537.809 604.867 537.48 605.046 537.098C605.226 536.707 605.316 536.266 605.316 535.773C605.316 535.164 605.167 534.664 604.87 534.273C604.581 533.883 604.167 533.586 603.628 533.383C603.292 533.258 602.906 533.172 602.468 533.125C602.031 533.07 601.523 533.043 600.945 533.043H598.73V538.809ZM615.057 540.508V547H613.147V531.32H617.214C617.901 531.32 618.483 531.348 618.96 531.402C619.444 531.449 619.885 531.527 620.284 531.637C621.378 531.934 622.214 532.441 622.792 533.16C623.37 533.871 623.659 534.762 623.659 535.832C623.659 536.465 623.557 537.031 623.354 537.531C623.151 538.031 622.866 538.465 622.499 538.832C622.132 539.199 621.69 539.5 621.175 539.734C620.667 539.969 620.1 540.141 619.475 540.25V540.297L624.596 547H622.194L617.366 540.508H615.057ZM615.057 533.043V538.785H616.944C617.53 538.785 618.03 538.766 618.444 538.727C618.858 538.688 619.229 538.617 619.557 538.516C620.221 538.312 620.733 537.988 621.093 537.543C621.452 537.098 621.632 536.516 621.632 535.797C621.624 535.125 621.452 534.586 621.116 534.18C620.78 533.766 620.315 533.469 619.721 533.289C619.44 533.203 619.104 533.141 618.714 533.102C618.323 533.062 617.827 533.043 617.225 533.043H615.057ZM629.99 547V531.32H631.9V547H629.99ZM646.154 532.727C645.287 532.727 644.474 532.867 643.716 533.148C642.966 533.422 642.314 533.836 641.759 534.391C641.205 534.938 640.767 535.621 640.447 536.441C640.126 537.254 639.966 538.203 639.966 539.289C639.966 540.367 640.115 541.305 640.412 542.102C640.708 542.891 641.13 543.547 641.677 544.07C642.224 544.586 642.88 544.969 643.646 545.219C644.419 545.469 645.279 545.594 646.224 545.594C646.482 545.594 646.755 545.582 647.044 545.559C647.333 545.527 647.622 545.488 647.912 545.441C648.208 545.387 648.494 545.328 648.767 545.266C649.048 545.195 649.298 545.121 649.517 545.043V546.73C649.056 546.91 648.521 547.047 647.912 547.141C647.302 547.242 646.677 547.293 646.037 547.293C644.732 547.293 643.576 547.113 642.568 546.754C641.56 546.387 640.712 545.863 640.025 545.184C639.345 544.504 638.83 543.676 638.478 542.699C638.126 541.715 637.951 540.602 637.951 539.359C637.951 538.141 638.134 537.02 638.501 535.996C638.876 534.973 639.412 534.094 640.107 533.359C640.81 532.625 641.658 532.055 642.65 531.648C643.65 531.234 644.771 531.027 646.013 531.027C646.341 531.027 646.665 531.043 646.986 531.074C647.306 531.098 647.611 531.137 647.9 531.191C648.197 531.238 648.47 531.297 648.72 531.367C648.97 531.438 649.185 531.512 649.365 531.59V533.277C648.896 533.121 648.384 532.992 647.83 532.891C647.275 532.781 646.716 532.727 646.154 532.727ZM657.243 545.277H665.282V547H655.333V531.32H664.848V533.043H657.243V538.105H664.005V539.828H657.243V545.277Z" fill="white"/>
<path d="M480.025 564.122C482.811 564.122 484.989 565.116 486.558 567.104C488.428 569.458 489.364 573.362 489.364 578.816C489.364 584.257 488.422 588.167 486.539 590.548C484.982 592.51 482.811 593.49 480.025 593.49C477.227 593.49 474.97 592.418 473.257 590.273C471.544 588.115 470.687 584.277 470.687 578.757C470.687 573.343 471.629 569.445 473.512 567.065C475.069 565.103 477.24 564.122 480.025 564.122ZM480.025 568.693C479.358 568.693 478.763 568.909 478.24 569.341C477.717 569.759 477.312 570.518 477.024 571.616C476.645 573.042 476.455 575.442 476.455 578.816C476.455 582.19 476.625 584.512 476.965 585.781C477.305 587.036 477.73 587.873 478.24 588.292C478.763 588.71 479.358 588.919 480.025 588.919C480.692 588.919 481.287 588.71 481.811 588.292C482.334 587.86 482.739 587.095 483.027 585.996C483.406 584.584 483.596 582.19 483.596 578.816C483.596 575.442 483.426 573.127 483.086 571.871C482.746 570.603 482.314 569.759 481.791 569.341C481.281 568.909 480.692 568.693 480.025 568.693ZM493.445 593V587.487H498.958V593H493.445ZM516.752 593H511.239V572.224C509.225 574.108 506.851 575.501 504.118 576.403V571.401C505.557 570.93 507.119 570.04 508.807 568.732C510.494 567.412 511.651 565.875 512.279 564.122H516.752V593ZM536.076 593H530.564V572.224C528.55 574.108 526.176 575.501 523.442 576.403V571.401C524.881 570.93 526.444 570.04 528.131 568.732C529.818 567.412 530.976 565.875 531.604 564.122H536.076V593ZM562.209 571.283L556.872 571.871C556.742 570.773 556.402 569.962 555.852 569.439C555.303 568.916 554.59 568.654 553.714 568.654C552.55 568.654 551.562 569.177 550.752 570.223C549.954 571.27 549.45 573.447 549.241 576.756C550.614 575.134 552.321 574.324 554.361 574.324C556.663 574.324 558.631 575.2 560.266 576.952C561.914 578.705 562.738 580.968 562.738 583.74C562.738 586.683 561.875 589.044 560.149 590.822C558.422 592.601 556.205 593.49 553.498 593.49C550.595 593.49 548.208 592.366 546.338 590.116C544.467 587.854 543.532 584.152 543.532 579.012C543.532 573.742 544.506 569.942 546.455 567.614C548.404 565.286 550.935 564.122 554.047 564.122C556.232 564.122 558.036 564.737 559.462 565.966C560.901 567.183 561.816 568.955 562.209 571.283ZM549.712 583.309C549.712 585.1 550.124 586.487 550.948 587.468C551.772 588.436 552.713 588.919 553.773 588.919C554.793 588.919 555.643 588.521 556.323 587.723C557.003 586.925 557.343 585.617 557.343 583.799C557.343 581.929 556.977 580.562 556.245 579.699C555.512 578.823 554.597 578.385 553.498 578.385C552.439 578.385 551.543 578.803 550.81 579.64C550.078 580.464 549.712 581.687 549.712 583.309ZM576.61 593V564.24H585.301L590.519 583.858L595.678 564.24H604.389V593H598.994V570.361L593.285 593H587.694L582.005 570.361V593H576.61ZM635.288 593H628.971L626.46 586.467H614.964L612.59 593H606.43L617.632 564.24H623.772L635.288 593ZM624.596 581.622L620.633 570.949L616.749 581.622H624.596ZM641.076 593V569.105H632.542V564.24H655.397V569.105H646.883V593H641.076ZM658.184 593V564.24H663.991V593H658.184ZM687.141 582.426L692.771 584.211C691.908 587.35 690.47 589.685 688.455 591.215C686.454 592.732 683.911 593.49 680.824 593.49C677.005 593.49 673.866 592.189 671.407 589.586C668.949 586.971 667.719 583.4 667.719 578.875C667.719 574.088 668.955 570.374 671.427 567.732C673.899 565.077 677.149 563.749 681.177 563.749C684.695 563.749 687.553 564.789 689.75 566.869C691.058 568.098 692.039 569.864 692.693 572.166L686.945 573.539C686.605 572.048 685.892 570.871 684.806 570.008C683.734 569.144 682.426 568.713 680.883 568.713C678.751 568.713 677.018 569.478 675.684 571.008C674.363 572.538 673.703 575.017 673.703 578.443C673.703 582.079 674.357 584.669 675.664 586.212C676.972 587.755 678.673 588.527 680.765 588.527C682.308 588.527 683.636 588.037 684.748 587.056C685.859 586.075 686.657 584.532 687.141 582.426Z" fill="white"/>
<path d="M532.355 201V188.115H541.909V190.295H534.957V193.151H541.425V195.322H534.957V198.829H542.155V201H532.355ZM546.306 201V188.115H550.199L552.537 196.904L554.849 188.115H558.751V201H556.334V190.857L553.777 201H551.272L548.723 190.857V201H546.306ZM563.236 201V188.115H565.838V201H563.236ZM569.646 196.808L572.177 196.562C572.329 197.411 572.637 198.035 573.1 198.434C573.569 198.832 574.198 199.031 574.989 199.031C575.827 199.031 576.457 198.855 576.879 198.504C577.307 198.146 577.521 197.73 577.521 197.256C577.521 196.951 577.43 196.693 577.248 196.482C577.072 196.266 576.762 196.078 576.317 195.92C576.012 195.814 575.318 195.627 574.234 195.357C572.839 195.012 571.861 194.587 571.298 194.083C570.507 193.374 570.112 192.51 570.112 191.49C570.112 190.834 570.296 190.222 570.665 189.653C571.04 189.079 571.576 188.643 572.274 188.344C572.977 188.045 573.823 187.896 574.814 187.896C576.431 187.896 577.647 188.25 578.461 188.959C579.281 189.668 579.712 190.614 579.753 191.798L577.152 191.912C577.04 191.25 576.8 190.775 576.431 190.488C576.068 190.195 575.52 190.049 574.787 190.049C574.031 190.049 573.44 190.204 573.012 190.515C572.737 190.714 572.599 190.98 572.599 191.314C572.599 191.619 572.728 191.88 572.986 192.097C573.314 192.372 574.111 192.659 575.376 192.958C576.642 193.257 577.576 193.567 578.18 193.89C578.789 194.206 579.264 194.643 579.604 195.199C579.949 195.75 580.122 196.433 580.122 197.247C580.122 197.985 579.917 198.677 579.507 199.321C579.097 199.966 578.517 200.446 577.767 200.763C577.017 201.073 576.082 201.229 574.963 201.229C573.334 201.229 572.083 200.854 571.21 200.104C570.337 199.348 569.816 198.249 569.646 196.808ZM583.632 196.808L586.163 196.562C586.315 197.411 586.623 198.035 587.086 198.434C587.554 198.832 588.184 199.031 588.975 199.031C589.813 199.031 590.443 198.855 590.865 198.504C591.293 198.146 591.507 197.73 591.507 197.256C591.507 196.951 591.416 196.693 591.234 196.482C591.058 196.266 590.748 196.078 590.302 195.92C589.998 195.814 589.303 195.627 588.219 195.357C586.825 195.012 585.846 194.587 585.284 194.083C584.493 193.374 584.097 192.51 584.097 191.49C584.097 190.834 584.282 190.222 584.651 189.653C585.026 189.079 585.562 188.643 586.26 188.344C586.963 188.045 587.809 187.896 588.8 187.896C590.417 187.896 591.633 188.25 592.447 188.959C593.267 189.668 593.698 190.614 593.739 191.798L591.137 191.912C591.026 191.25 590.786 190.775 590.417 190.488C590.053 190.195 589.506 190.049 588.773 190.049C588.017 190.049 587.426 190.204 586.998 190.515C586.722 190.714 586.585 190.98 586.585 191.314C586.585 191.619 586.714 191.88 586.971 192.097C587.3 192.372 588.096 192.659 589.362 192.958C590.628 193.257 591.562 193.567 592.166 193.89C592.775 194.206 593.25 194.643 593.59 195.199C593.935 195.75 594.108 196.433 594.108 197.247C594.108 197.985 593.903 198.677 593.493 199.321C593.083 199.966 592.503 200.446 591.753 200.763C591.003 201.073 590.068 201.229 588.949 201.229C587.32 201.229 586.069 200.854 585.196 200.104C584.323 199.348 583.802 198.249 583.632 196.808ZM598.198 201V188.115H600.799V201H598.198ZM604.739 194.637C604.739 193.324 604.935 192.223 605.328 191.332C605.621 190.676 606.019 190.087 606.523 189.565C607.033 189.044 607.59 188.657 608.193 188.405C608.996 188.065 609.922 187.896 610.971 187.896C612.869 187.896 614.387 188.484 615.523 189.662C616.666 190.84 617.237 192.478 617.237 194.575C617.237 196.655 616.672 198.284 615.541 199.462C614.41 200.634 612.898 201.22 611.006 201.22C609.09 201.22 607.566 200.637 606.435 199.471C605.304 198.299 604.739 196.688 604.739 194.637ZM607.42 194.549C607.42 196.008 607.757 197.115 608.43 197.871C609.104 198.621 609.96 198.996 610.997 198.996C612.034 198.996 612.884 198.624 613.546 197.88C614.214 197.13 614.548 196.008 614.548 194.514C614.548 193.037 614.222 191.936 613.572 191.209C612.928 190.482 612.069 190.119 610.997 190.119C609.925 190.119 609.06 190.488 608.404 191.227C607.748 191.959 607.42 193.066 607.42 194.549ZM621.283 201V188.115H623.814L629.087 196.72V188.115H631.504V201H628.894L623.7 192.598V201H621.283Z" fill="url(#paint5_linear_180_2076)"/>
<path d="M473.7 240.386L476.777 239.976C477.13 241.719 477.728 242.978 478.571 243.753C479.425 244.516 480.462 244.898 481.681 244.898C483.128 244.898 484.347 244.397 485.339 243.394C486.341 242.391 486.842 241.15 486.842 239.668C486.842 238.256 486.381 237.094 485.458 236.182C484.535 235.259 483.362 234.798 481.938 234.798C481.357 234.798 480.633 234.912 479.767 235.14L480.109 232.439C480.314 232.462 480.479 232.474 480.605 232.474C481.915 232.474 483.094 232.132 484.142 231.448C485.19 230.765 485.715 229.711 485.715 228.287C485.715 227.159 485.333 226.224 484.57 225.484C483.806 224.743 482.821 224.373 481.613 224.373C480.417 224.373 479.42 224.749 478.622 225.501C477.825 226.253 477.312 227.381 477.084 228.885L474.008 228.338C474.384 226.276 475.238 224.681 476.571 223.553C477.904 222.413 479.562 221.844 481.545 221.844C482.912 221.844 484.171 222.14 485.321 222.732C486.472 223.313 487.349 224.111 487.953 225.125C488.569 226.139 488.876 227.216 488.876 228.355C488.876 229.437 488.586 230.423 488.005 231.312C487.424 232.2 486.563 232.907 485.424 233.431C486.905 233.772 488.056 234.485 488.876 235.567C489.696 236.638 490.107 237.982 490.107 239.6C490.107 241.788 489.309 243.645 487.714 245.171C486.119 246.687 484.102 247.444 481.664 247.444C479.465 247.444 477.637 246.789 476.178 245.479C474.731 244.169 473.905 242.471 473.7 240.386ZM491.591 234.644C491.591 231.682 491.893 229.301 492.496 227.5C493.112 225.689 494.017 224.293 495.214 223.313C496.421 222.334 497.937 221.844 499.76 221.844C501.104 221.844 502.283 222.117 503.297 222.664C504.311 223.2 505.149 223.98 505.809 225.005C506.47 226.019 506.989 227.261 507.365 228.731C507.741 230.189 507.929 232.16 507.929 234.644C507.929 237.583 507.627 239.959 507.023 241.771C506.419 243.571 505.513 244.966 504.306 245.958C503.109 246.937 501.594 247.427 499.76 247.427C497.344 247.427 495.447 246.561 494.069 244.83C492.417 242.745 491.591 239.349 491.591 234.644ZM494.752 234.644C494.752 238.757 495.231 241.497 496.188 242.864C497.156 244.22 498.347 244.898 499.76 244.898C501.172 244.898 502.357 244.214 503.314 242.847C504.283 241.48 504.767 238.746 504.767 234.644C504.767 230.52 504.283 227.78 503.314 226.424C502.357 225.068 501.161 224.39 499.725 224.39C498.313 224.39 497.185 224.988 496.342 226.185C495.282 227.711 494.752 230.531 494.752 234.644ZM509.498 234.644C509.498 231.682 509.8 229.301 510.404 227.5C511.019 225.689 511.925 224.293 513.121 223.313C514.329 222.334 515.844 221.844 517.667 221.844C519.011 221.844 520.191 222.117 521.205 222.664C522.219 223.2 523.056 223.98 523.717 225.005C524.378 226.019 524.896 227.261 525.272 228.731C525.648 230.189 525.836 232.16 525.836 234.644C525.836 237.583 525.534 239.959 524.93 241.771C524.326 243.571 523.421 244.966 522.213 245.958C521.017 246.937 519.501 247.427 517.667 247.427C515.252 247.427 513.355 246.561 511.976 244.83C510.324 242.745 509.498 239.349 509.498 234.644ZM512.66 234.644C512.66 238.757 513.138 241.497 514.095 242.864C515.064 244.22 516.254 244.898 517.667 244.898C519.08 244.898 520.265 244.214 521.222 242.847C522.19 241.48 522.674 238.746 522.674 234.644C522.674 230.52 522.19 227.78 521.222 226.424C520.265 225.068 519.068 224.39 517.633 224.39C516.22 224.39 515.092 224.988 514.249 226.185C513.19 227.711 512.66 230.531 512.66 234.644ZM529.063 247V243.497H532.567V247C532.567 248.287 532.339 249.324 531.883 250.11C531.427 250.908 530.704 251.523 529.713 251.956L528.858 250.64C529.508 250.355 529.986 249.934 530.294 249.375C530.601 248.829 530.772 248.037 530.806 247H529.063ZM535.572 234.644C535.572 231.682 535.874 229.301 536.478 227.5C537.093 225.689 537.999 224.293 539.195 223.313C540.403 222.334 541.918 221.844 543.741 221.844C545.085 221.844 546.264 222.117 547.278 222.664C548.292 223.2 549.13 223.98 549.791 225.005C550.451 226.019 550.97 227.261 551.346 228.731C551.722 230.189 551.91 232.16 551.91 234.644C551.91 237.583 551.608 239.959 551.004 241.771C550.4 243.571 549.494 244.966 548.287 245.958C547.09 246.937 545.575 247.427 543.741 247.427C541.325 247.427 539.428 246.561 538.05 244.83C536.398 242.745 535.572 239.349 535.572 234.644ZM538.733 234.644C538.733 238.757 539.212 241.497 540.169 242.864C541.137 244.22 542.328 244.898 543.741 244.898C545.153 244.898 546.338 244.214 547.295 242.847C548.264 241.48 548.748 238.746 548.748 234.644C548.748 230.52 548.264 227.78 547.295 226.424C546.338 225.068 545.142 224.39 543.707 224.39C542.294 224.39 541.166 224.988 540.323 226.185C539.263 227.711 538.733 230.531 538.733 234.644ZM553.479 234.644C553.479 231.682 553.781 229.301 554.385 227.5C555 225.689 555.906 224.293 557.102 223.313C558.31 222.334 559.825 221.844 561.648 221.844C562.993 221.844 564.172 222.117 565.186 222.664C566.2 223.2 567.037 223.98 567.698 225.005C568.359 226.019 568.877 227.261 569.253 228.731C569.629 230.189 569.817 232.16 569.817 234.644C569.817 237.583 569.515 239.959 568.911 241.771C568.307 243.571 567.402 244.966 566.194 245.958C564.998 246.937 563.482 247.427 561.648 247.427C559.233 247.427 557.336 246.561 555.957 244.83C554.305 242.745 553.479 239.349 553.479 234.644ZM556.641 234.644C556.641 238.757 557.119 241.497 558.076 242.864C559.045 244.22 560.235 244.898 561.648 244.898C563.061 244.898 564.246 244.214 565.203 242.847C566.171 241.48 566.655 238.746 566.655 234.644C566.655 230.52 566.171 227.78 565.203 226.424C564.246 225.068 563.05 224.39 561.614 224.39C560.201 224.39 559.073 224.988 558.23 226.185C557.171 227.711 556.641 230.531 556.641 234.644ZM571.387 234.644C571.387 231.682 571.689 229.301 572.292 227.5C572.908 225.689 573.813 224.293 575.01 223.313C576.217 222.334 577.733 221.844 579.556 221.844C580.9 221.844 582.079 222.117 583.093 222.664C584.107 223.2 584.945 223.98 585.605 225.005C586.266 226.019 586.785 227.261 587.161 228.731C587.537 230.189 587.725 232.16 587.725 234.644C587.725 237.583 587.423 239.959 586.819 241.771C586.215 243.571 585.309 244.966 584.101 245.958C582.905 246.937 581.39 247.427 579.556 247.427C577.14 247.427 575.243 246.561 573.865 244.83C572.213 242.745 571.387 239.349 571.387 234.644ZM574.548 234.644C574.548 238.757 575.027 241.497 575.984 242.864C576.952 244.22 578.143 244.898 579.556 244.898C580.968 244.898 582.153 244.214 583.11 242.847C584.079 241.48 584.563 238.746 584.563 234.644C584.563 230.52 584.079 227.78 583.11 226.424C582.153 225.068 580.957 224.39 579.521 224.39C578.109 224.39 576.981 224.988 576.138 226.185C575.078 227.711 574.548 230.531 574.548 234.644ZM590.952 247V243.497H594.455V247C594.455 248.287 594.227 249.324 593.772 250.11C593.316 250.908 592.592 251.523 591.601 251.956L590.747 250.64C591.396 250.355 591.875 249.934 592.182 249.375C592.49 248.829 592.661 248.037 592.695 247H590.952ZM597.46 234.644C597.46 231.682 597.762 229.301 598.366 227.5C598.981 225.689 599.887 224.293 601.083 223.313C602.291 222.334 603.806 221.844 605.629 221.844C606.974 221.844 608.153 222.117 609.167 222.664C610.181 223.2 611.018 223.98 611.679 225.005C612.34 226.019 612.858 227.261 613.234 228.731C613.61 230.189 613.798 232.16 613.798 234.644C613.798 237.583 613.496 239.959 612.892 241.771C612.289 243.571 611.383 244.966 610.175 245.958C608.979 246.937 607.464 247.427 605.629 247.427C603.214 247.427 601.317 246.561 599.938 244.83C598.286 242.745 597.46 239.349 597.46 234.644ZM600.622 234.644C600.622 238.757 601.1 241.497 602.057 242.864C603.026 244.22 604.216 244.898 605.629 244.898C607.042 244.898 608.227 244.214 609.184 242.847C610.152 241.48 610.637 238.746 610.637 234.644C610.637 230.52 610.152 227.78 609.184 226.424C608.227 225.068 607.031 224.39 605.595 224.39C604.182 224.39 603.054 224.988 602.211 226.185C601.152 227.711 600.622 230.531 600.622 234.644ZM615.368 234.644C615.368 231.682 615.67 229.301 616.273 227.5C616.889 225.689 617.794 224.293 618.991 223.313C620.198 222.334 621.714 221.844 623.537 221.844C624.881 221.844 626.06 222.117 627.074 222.664C628.088 223.2 628.926 223.98 629.586 225.005C630.247 226.019 630.766 227.261 631.142 228.731C631.518 230.189 631.706 232.16 631.706 234.644C631.706 237.583 631.404 239.959 630.8 241.771C630.196 243.571 629.29 244.966 628.083 245.958C626.886 246.937 625.371 247.427 623.537 247.427C621.121 247.427 619.224 246.561 617.846 244.83C616.194 242.745 615.368 239.349 615.368 234.644ZM618.529 234.644C618.529 238.757 619.008 241.497 619.965 242.864C620.933 244.22 622.124 244.898 623.537 244.898C624.949 244.898 626.134 244.214 627.091 242.847C628.06 241.48 628.544 238.746 628.544 234.644C628.544 230.52 628.06 227.78 627.091 226.424C626.134 225.068 624.938 224.39 623.502 224.39C622.09 224.39 620.962 224.988 620.119 226.185C619.059 227.711 618.529 230.531 618.529 234.644ZM633.275 234.644C633.275 231.682 633.577 229.301 634.181 227.5C634.796 225.689 635.702 224.293 636.898 223.313C638.106 222.334 639.621 221.844 641.444 221.844C642.788 221.844 643.968 222.117 644.982 222.664C645.996 223.2 646.833 223.98 647.494 225.005C648.155 226.019 648.673 227.261 649.049 228.731C649.425 230.189 649.613 232.16 649.613 234.644C649.613 237.583 649.311 239.959 648.707 241.771C648.103 243.571 647.198 244.966 645.99 245.958C644.794 246.937 643.278 247.427 641.444 247.427C639.029 247.427 637.132 246.561 635.753 244.83C634.101 242.745 633.275 239.349 633.275 234.644ZM636.437 234.644C636.437 238.757 636.915 241.497 637.872 242.864C638.841 244.22 640.031 244.898 641.444 244.898C642.857 244.898 644.042 244.214 644.999 242.847C645.967 241.48 646.451 238.746 646.451 234.644C646.451 230.52 645.967 227.78 644.999 226.424C644.042 225.068 642.845 224.39 641.41 224.39C639.997 224.39 638.869 224.988 638.026 226.185C636.967 227.711 636.437 230.531 636.437 234.644ZM660.494 247V221.946H665.484L671.414 239.686C671.961 241.338 672.36 242.574 672.61 243.394C672.895 242.483 673.34 241.144 673.943 239.378L679.942 221.946H684.402V247H681.207V226.031L673.926 247H670.936L663.69 225.672V247H660.494ZM706.053 238.216L709.368 239.053C708.673 241.776 707.42 243.855 705.608 245.291C703.808 246.715 701.603 247.427 698.994 247.427C696.294 247.427 694.095 246.88 692.398 245.787C690.712 244.681 689.424 243.086 688.535 241.001C687.658 238.917 687.22 236.678 687.22 234.285C687.22 231.676 687.715 229.403 688.706 227.466C689.709 225.518 691.127 224.043 692.962 223.04C694.807 222.026 696.835 221.519 699.046 221.519C701.552 221.519 703.66 222.157 705.369 223.433C707.078 224.709 708.269 226.504 708.941 228.816L705.677 229.585C705.096 227.763 704.252 226.435 703.147 225.604C702.042 224.772 700.652 224.356 698.977 224.356C697.052 224.356 695.44 224.817 694.141 225.74C692.853 226.663 691.948 227.905 691.424 229.466C690.9 231.015 690.637 232.616 690.637 234.268C690.637 236.399 690.945 238.261 691.56 239.856C692.187 241.44 693.155 242.625 694.466 243.411C695.776 244.197 697.194 244.59 698.721 244.59C700.578 244.59 702.15 244.055 703.438 242.984C704.725 241.913 705.597 240.324 706.053 238.216Z" fill="white"/>
<defs>
<filter id="filter0_b_180_2076" x="313" y="123" width="538" height="538" filterUnits="userSpaceOnUse" color-interpolation-filters="sRGB">
<feFlood flood-opacity="0" result="BackgroundImageFix"/>
<feGaussianBlur in="BackgroundImage" stdDeviation="8"/>
<feComposite in2="SourceAlpha" operator="in" result="effect1_backgroundBlur_180_2076"/>
<feBlend mode="normal" in="SourceGraphic" in2="effect1_backgroundBlur_180_2076" result="shape"/>
</filter>
<linearGradient id="paint0_linear_180_2076" x1="321.215" y1="196.828" x2="934.32" y2="206.316" gradientUnits="userSpaceOnUse">
<stop stop-color="#416CCA"/>
<stop offset="1" stop-color="#7852CB"/>
</linearGradient>
<radialGradient id="paint1_radial_180_2076" cx="0" cy="0" r="1" gradientUnits="userSpaceOnUse" gradientTransform="translate(582.676 278.894) rotate(90) scale(70.2399 121.244)">
<stop stop-color="#5C86E1"/>
<stop offset="1" stop-color="#8BAAEB"/>
</radialGradient>
<linearGradient id="paint2_linear_180_2076" x1="680.422" y1="339.801" x2="582.676" y2="509.261" gradientUnits="userSpaceOnUse">
<stop stop-color="#4668C1"/>
<stop offset="1" stop-color="#6C3ABF"/>
</linearGradient>
<linearGradient id="paint3_linear_180_2076" x1="531.592" y1="492.069" x2="534.539" y2="363.378" gradientUnits="userSpaceOnUse">
<stop stop-color="#402E82"/>
<stop offset="1" stop-color="#476DC7"/>
</linearGradient>
<linearGradient id="paint4_linear_180_2076" x1="582.249" y1="299.819" x2="582.673" y2="499.589" gradientUnits="userSpaceOnUse">
<stop stop-color="#FDFEFF"/>
<stop offset="1" stop-color="#A7BFFE"/>
</linearGradient>
<linearGradient id="paint5_linear_180_2076" x1="529.431" y1="186.4" x2="652.356" y2="195.639" gradientUnits="userSpaceOnUse">
<stop stop-color="#416CCA"/>
<stop offset="1" stop-color="#7852CB"/>
</linearGradient>
</defs>
</svg>
