<svg width="1920" height="801" viewBox="0 0 1920 801" fill="none" xmlns="http://www.w3.org/2000/svg">
<path fill-rule="evenodd" clip-rule="evenodd" d="M-97 329H1157.41C1189.24 197.164 1307.71 99.2481 1449 99.2481C1590.29 99.2481 1708.76 197.164 1740.59 329H2100V0H-97V329ZM-97 474H1157.94C1190.55 604.406 1308.49 701 1449 701C1589.51 701 1707.45 604.406 1740.06 474H2100V801H-97V474Z" fill="#1E1E2A"/>
<g filter="url(#filter0_b_76_289)">
<circle cx="1449" cy="401" r="275" fill="url(#paint0_linear_76_289)" fill-opacity="0.15"/>
</g>
<path d="M1448 276L1345.84 334.943L1448 394.376L1550.17 334.943L1448 276Z" fill="url(#paint1_radial_76_289)"/>
<path d="M1448 512.261V394.376L1550.17 334.942V453.318L1448 512.261Z" fill="url(#paint2_linear_76_289)"/>
<path d="M1448 512.261V394.376L1345.84 334.942V453.318L1448 512.261Z" fill="url(#paint3_linear_76_289)"/>
<path fill-rule="evenodd" clip-rule="evenodd" d="M1448.13 303.374L1447.17 302.819L1446.2 303.358L1367.98 346.683L1366.95 347.248L1366.96 348.415L1367.58 440.166L1367.58 441.282L1368.55 441.847L1407.84 464.933L1409.83 461.545L1371.5 439.024L1370.9 349.555L1447.13 307.333L1457.96 313.581L1458.45 447.037L1458.46 450.403L1461.38 448.737L1500.19 426.633L1501.18 426.068V424.926V394.473V392.483L1501.18 392.483V392.435V392.364V392.293V392.221V392.149V392.077V392.005V391.933V391.86V391.788V391.715V391.642V391.569V391.496V391.422V391.349V391.275V391.202V391.128V391.054V390.979V390.905V390.831V390.756V390.681V390.607V390.532V390.456V390.381V390.306V390.23V390.155V390.079V390.003V389.927V389.851V389.775V389.699V389.622V389.546V389.469V389.392V389.315V389.238V389.161V389.084V389.007V388.929V388.852V388.774V388.697V388.619V388.541V388.463V388.385V388.307V388.229V388.15V388.072V387.993V387.915V387.836V387.758V387.679V387.6V387.521V387.442V387.363V387.284V387.204V387.125V387.046V386.966V386.887V386.807V386.727V386.648V386.568V386.488V386.408V386.328V386.248V386.168V386.088V386.008V385.928V385.848V385.767V385.687V385.607V385.526V385.446V385.365V385.285V385.204V385.124V385.043V384.962V384.882V384.801V384.72V384.639V384.559V384.478V384.397V384.316V384.235V384.154V384.073V383.992V383.912V383.831V383.75V383.669V383.588V383.507V383.426V383.345V383.264V383.183V383.102V383.021V382.94V382.859V382.778V382.697V382.616V382.535V382.454V382.373V382.292V382.211V382.13V382.049V381.968V381.888V381.807V381.726V381.645V381.564V381.484V381.403V381.322V381.242V381.161V381.081V381V380.92V380.839V380.759V380.679V380.598V380.518V380.438V380.358V380.277V380.197V380.117V380.037V379.958V379.878V379.798V379.718V379.638V379.559V379.479V379.4V379.32V379.241V379.162V379.082V379.003V378.924V378.845V378.766V378.687V378.609V378.53V378.451V378.373V378.294V378.216V378.138V378.059V377.981V377.903V377.825V377.748V377.67V377.592V377.515V377.437V377.36V377.283V377.205V377.128V377.051V376.975V376.898V376.821V376.745V376.668V376.592V376.516V376.44V376.364V376.288V376.213V376.137V376.062V375.986V375.911V375.836V375.761V375.686V375.612V375.537V375.463V375.388V375.314V375.24V375.166V375.093V375.019V374.946V374.872V374.799V374.726V374.654V374.581V374.508V374.436V374.364V374.292V374.22V374.148V374.076V374.005V373.934V373.863V373.792V373.721V373.65V373.58V373.51V373.44V373.37V373.3V373.23V373.161V373.092V373.023V372.954V372.885V372.817V372.749V372.681V372.613V372.545V372.477V372.41V372.343V372.276V372.209V372.143V372.077V372.01V371.944V371.879V371.813V371.748V371.683V371.618V371.553V371.489V371.425V371.361V371.297V371.233V371.17V371.107V371.044V370.981V370.919V370.856V370.794V370.733V370.671V370.61V370.549V370.488V370.427V370.367V370.307V370.247V370.187V370.128V370.068V370.01V369.951V369.892V369.834V369.776V369.719V369.661V369.604V369.547V369.491V369.434V369.378V369.322V369.267V369.211V369.156V369.101V369.047V368.993V368.939V368.885V368.832V368.778V368.726V368.673V368.621V368.569V368.517V368.465V368.414V368.363V368.313V368.262V368.212V368.163V368.113V368.064V368.015V367.967V367.919V367.871V367.823V367.776V367.729V367.682V367.636V367.59V367.544V367.498V367.453V367.408V367.364V367.32V367.276V367.232V367.189V367.146V367.103V367.061V367.019V366.978V366.936V366.895V366.855V366.814V366.775V366.735V366.696V366.657V366.618V366.58V366.542V366.505V366.467V366.43V366.394V366.358V366.322V366.287V366.252V366.217V366.182V366.148V366.115V366.082V366.049V366.016V365.984V365.952V365.921V365.89V365.859V365.828V365.799V365.769V365.74V365.711V365.682V365.654V365.627V365.599V365.573V365.546V365.52V365.494V365.469V365.444V365.419V365.395V365.371V365.348V365.325V365.302V365.28V365.259V365.237V365.216V365.196V365.176V365.156V365.137V365.118V365.099V365.081V365.063V365.046V365.029V365.013V364.997V364.982V364.966V364.952V364.938V364.924V364.91V364.897V364.885V364.873V364.861V364.85V364.839V364.829V364.819V364.81V364.801V364.792V364.784V364.776V364.769V364.762V364.756V364.75V364.745V364.74V364.735V364.731V364.728V364.725V364.722V364.72V364.718V364.717C1501.18 364.065 1500.85 363.626 1500.81 363.567L1500.8 363.562C1500.71 363.432 1500.62 363.342 1500.58 363.306C1500.5 363.225 1500.43 363.167 1500.4 363.147C1500.33 363.096 1500.27 363.054 1500.24 363.03C1500.16 362.976 1500.06 362.913 1499.96 362.849C1499.74 362.716 1499.44 362.533 1499.07 362.307C1498.31 361.855 1497.23 361.212 1495.89 360.426C1493.21 358.854 1489.51 356.697 1485.4 354.317C1477.64 349.819 1468.44 344.515 1461.99 340.834L1461.88 312.437L1461.88 311.307L1460.9 310.742L1448.13 303.374ZM1462 345.369L1462.18 392.976L1497.25 392.533V392.506V392.435V392.364V392.293V392.221V392.149V392.077V392.005V391.933V391.86V391.788V391.715V391.642V391.569V391.496V391.422V391.349V391.275V391.202V391.128V391.054V390.979V390.905V390.831V390.756V390.681V390.607V390.532V390.456V390.381V390.306V390.23V390.155V390.079V390.003V389.927V389.851V389.775V389.699V389.622V389.546V389.469V389.392V389.315V389.238V389.161V389.084V389.007V388.929V388.852V388.774V388.697V388.619V388.541V388.463V388.385V388.307V388.229V388.15V388.072V387.993V387.915V387.836V387.758V387.679V387.6V387.521V387.442V387.363V387.284V387.204V387.125V387.046V386.966V386.887V386.807V386.727V386.648V386.568V386.488V386.408V386.328V386.248V386.168V386.088V386.008V385.928V385.848V385.767V385.687V385.607V385.526V385.446V385.365V385.285V385.204V385.124V385.043V384.962V384.882V384.801V384.72V384.639V384.559V384.478V384.397V384.316V384.235V384.154V384.073V383.992V383.912V383.831V383.75V383.669V383.588V383.507V383.426V383.345V383.264V383.183V383.102V383.021V382.94V382.859V382.778V382.697V382.616V382.535V382.454V382.373V382.292V382.211V382.13V382.049V381.968V381.888V381.807V381.726V381.645V381.564V381.484V381.403V381.322V381.242V381.161V381.081V381V380.92V380.839V380.759V380.679V380.598V380.518V380.438V380.358V380.277V380.197V380.117V380.037V379.958V379.878V379.798V379.718V379.638V379.559V379.479V379.4V379.32V379.241V379.162V379.082V379.003V378.924V378.845V378.766V378.687V378.609V378.53V378.451V378.373V378.294V378.216V378.138V378.059V377.981V377.903V377.825V377.748V377.67V377.592V377.515V377.437V377.36V377.283V377.205V377.128V377.051V376.975V376.898V376.821V376.745V376.668V376.592V376.516V376.44V376.364V376.288V376.213V376.137V376.062V375.986V375.911V375.836V375.761V375.686V375.612V375.537V375.463V375.388V375.314V375.24V375.166V375.093V375.019V374.946V374.872V374.799V374.726V374.654V374.581V374.508V374.436V374.364V374.292V374.22V374.148V374.076V374.005V373.934V373.863V373.792V373.721V373.65V373.58V373.51V373.44V373.37V373.3V373.23V373.161V373.092V373.023V372.954V372.885V372.817V372.749V372.681V372.613V372.545V372.477V372.41V372.343V372.276V372.209V372.143V372.077V372.01V371.944V371.879V371.813V371.748V371.683V371.618V371.553V371.489V371.425V371.361V371.297V371.233V371.17V371.107V371.044V370.981V370.919V370.856V370.794V370.733V370.671V370.61V370.549V370.488V370.427V370.367V370.307V370.247V370.187V370.128V370.068V370.01V369.951V369.892V369.834V369.776V369.719V369.661V369.604V369.547V369.491V369.434V369.378V369.322V369.267V369.211V369.156V369.101V369.047V368.993V368.939V368.885V368.832V368.778V368.726V368.673V368.621V368.569V368.517V368.465V368.414V368.363V368.313V368.262V368.212V368.163V368.113V368.064V368.015V367.967V367.919V367.871V367.823V367.776V367.729V367.682V367.636V367.59V367.544V367.498V367.453V367.408V367.364V367.32V367.276V367.232V367.189V367.146V367.103V367.061V367.019V366.978V366.936V366.895V366.855V366.814V366.775V366.735V366.696V366.657V366.618V366.58V366.542V366.505V366.467V366.43V366.394V366.358V366.322V366.287V366.252V366.217V366.182V366.148V366.115V366.082V366.049V366.016V365.984V365.952V365.921V365.89V365.859V365.828V365.799L1497.04 365.677C1496.31 365.234 1495.23 364.599 1493.9 363.815C1491.23 362.248 1487.53 360.095 1483.43 357.717C1476.44 353.66 1468.27 348.95 1462 345.369ZM1462.36 443.656L1462.19 396.906L1497.25 396.462V423.784L1462.36 443.656ZM1522.8 350.914L1484.48 328.882L1486.44 325.476L1525.73 348.07L1526.71 348.633L1526.72 349.763L1527.21 439.159L1527.22 440.285L1526.25 440.86L1449.01 486.689L1448.01 487.281L1447.01 486.693L1433.38 478.685L1432.41 478.116V476.991V448.663C1425.81 444.909 1416.54 439.569 1408.77 435.071C1404.69 432.706 1401.01 430.572 1398.36 429.022C1397.04 428.248 1395.97 427.617 1395.22 427.175C1394.85 426.955 1394.56 426.779 1394.35 426.654C1394.25 426.592 1394.16 426.536 1394.09 426.49C1394.06 426.47 1394.01 426.438 1393.96 426.401C1393.94 426.387 1393.88 426.345 1393.81 426.288C1393.78 426.264 1393.7 426.194 1393.61 426.093C1393.57 426.038 1393.45 425.889 1393.39 425.795C1393.31 425.628 1393.15 425.125 1393.12 424.786L1393.12 424.194C1393.12 421.833 1393.11 412.68 1393.11 401.678C1393.11 388.905 1393.11 373.641 1393.11 363.618V362.458L1394.12 361.898L1433.43 340.195L1436.34 338.585V341.915V475.867L1448 482.718L1523.27 438.055L1522.8 350.914ZM1432.41 444.141V345.244L1397.04 364.777C1397.04 374.792 1397.04 389.388 1397.04 401.677C1397.04 412.008 1397.04 420.71 1397.05 423.688L1397.23 423.797C1397.96 424.231 1399.02 424.857 1400.35 425.63C1402.99 427.176 1406.66 429.307 1410.74 431.67C1417.77 435.74 1426.02 440.496 1432.41 444.141ZM1498.04 366.287C1498.04 366.289 1498.04 366.29 1498.04 366.289L1498.04 366.287Z" fill="url(#paint4_linear_76_289)"/>
<circle cx="1483.99" cy="326.197" r="4.91188" fill="#F5F8FF"/>
<circle cx="1409.33" cy="463.728" r="4.91188" fill="#BACDFE"/>
<path d="M1372.03 552H1370.12V538.043H1364.89V536.32H1377.27V538.043H1372.03V552ZM1393.92 544.172C1393.92 543.117 1393.78 542.188 1393.51 541.383C1393.23 540.578 1392.85 539.906 1392.37 539.367C1391.89 538.828 1391.33 538.422 1390.67 538.148C1390.02 537.867 1389.32 537.727 1388.57 537.727C1387.82 537.727 1387.12 537.867 1386.46 538.148C1385.82 538.422 1385.25 538.828 1384.76 539.367C1384.29 539.906 1383.91 540.578 1383.64 541.383C1383.37 542.188 1383.23 543.117 1383.23 544.172C1383.23 545.227 1383.37 546.156 1383.64 546.961C1383.92 547.758 1384.3 548.426 1384.78 548.965C1385.26 549.504 1385.83 549.91 1386.48 550.184C1387.13 550.457 1387.84 550.594 1388.6 550.594C1389.35 550.594 1390.04 550.457 1390.68 550.184C1391.33 549.91 1391.89 549.504 1392.37 548.965C1392.85 548.426 1393.23 547.758 1393.51 546.961C1393.78 546.156 1393.92 545.227 1393.92 544.172ZM1395.93 544.172C1395.93 545.359 1395.76 546.449 1395.42 547.441C1395.07 548.434 1394.58 549.289 1393.94 550.008C1393.3 550.727 1392.53 551.289 1391.62 551.695C1390.72 552.094 1389.71 552.293 1388.6 552.293C1387.44 552.293 1386.4 552.094 1385.49 551.695C1384.58 551.289 1383.8 550.727 1383.17 550.008C1382.54 549.289 1382.05 548.434 1381.72 547.441C1381.38 546.449 1381.21 545.359 1381.21 544.172C1381.21 542.977 1381.39 541.883 1381.73 540.891C1382.08 539.891 1382.57 539.031 1383.21 538.312C1383.85 537.594 1384.62 537.035 1385.53 536.637C1386.43 536.23 1387.45 536.027 1388.57 536.027C1389.72 536.027 1390.75 536.23 1391.65 536.637C1392.57 537.035 1393.34 537.594 1393.98 538.312C1394.61 539.031 1395.09 539.891 1395.43 540.891C1395.76 541.883 1395.93 542.977 1395.93 544.172ZM1401.97 552V536.32H1403.88V544.066H1403.9L1411.11 536.32H1413.47L1406.15 544.125L1414.03 552H1411.54L1403.9 544.324H1403.88V552H1401.97ZM1421.05 550.277H1429.09V552H1419.14V536.32H1428.66V538.043H1421.05V543.105H1427.81V544.828H1421.05V550.277ZM1443.07 545.062C1444.04 546.445 1444.99 547.867 1445.92 549.328H1445.99C1445.89 547.805 1445.84 546.25 1445.84 544.664V536.32H1447.75V552H1445.85L1439.7 543.258C1438.64 541.734 1437.69 540.312 1436.85 538.992H1436.78C1436.88 540.422 1436.93 542.09 1436.93 543.996V552H1435.02V536.32H1436.92L1443.07 545.062ZM1463.73 552H1461.82V536.32H1466.17C1466.82 536.32 1467.41 536.359 1467.96 536.438C1468.52 536.516 1469.02 536.637 1469.48 536.801C1470.42 537.137 1471.13 537.641 1471.62 538.312C1472.1 538.977 1472.34 539.797 1472.34 540.773C1472.34 541.57 1472.18 542.273 1471.86 542.883C1471.55 543.484 1471.09 543.988 1470.49 544.395C1469.89 544.801 1469.16 545.109 1468.29 545.32C1467.43 545.523 1466.45 545.625 1465.36 545.625C1464.84 545.625 1464.29 545.602 1463.73 545.555V552ZM1463.73 543.809C1463.99 543.84 1464.26 543.863 1464.54 543.879C1464.82 543.895 1465.09 543.902 1465.34 543.902C1466.23 543.902 1467 543.832 1467.63 543.691C1468.27 543.551 1468.78 543.348 1469.18 543.082C1469.58 542.809 1469.87 542.48 1470.05 542.098C1470.23 541.707 1470.32 541.266 1470.32 540.773C1470.32 540.164 1470.17 539.664 1469.87 539.273C1469.58 538.883 1469.17 538.586 1468.63 538.383C1468.29 538.258 1467.91 538.172 1467.47 538.125C1467.03 538.07 1466.52 538.043 1465.94 538.043H1463.73V543.809ZM1480.06 545.508V552H1478.15V536.32H1482.21C1482.9 536.32 1483.48 536.348 1483.96 536.402C1484.44 536.449 1484.89 536.527 1485.28 536.637C1486.38 536.934 1487.21 537.441 1487.79 538.16C1488.37 538.871 1488.66 539.762 1488.66 540.832C1488.66 541.465 1488.56 542.031 1488.35 542.531C1488.15 543.031 1487.87 543.465 1487.5 543.832C1487.13 544.199 1486.69 544.5 1486.17 544.734C1485.67 544.969 1485.1 545.141 1484.48 545.25V545.297L1489.6 552H1487.19L1482.37 545.508H1480.06ZM1480.06 538.043V543.785H1481.94C1482.53 543.785 1483.03 543.766 1483.44 543.727C1483.86 543.688 1484.23 543.617 1484.56 543.516C1485.22 543.312 1485.73 542.988 1486.09 542.543C1486.45 542.098 1486.63 541.516 1486.63 540.797C1486.62 540.125 1486.45 539.586 1486.12 539.18C1485.78 538.766 1485.32 538.469 1484.72 538.289C1484.44 538.203 1484.1 538.141 1483.71 538.102C1483.32 538.062 1482.83 538.043 1482.23 538.043H1480.06ZM1494.99 552V536.32H1496.9V552H1494.99ZM1511.15 537.727C1510.29 537.727 1509.47 537.867 1508.72 538.148C1507.97 538.422 1507.31 538.836 1506.76 539.391C1506.2 539.938 1505.77 540.621 1505.45 541.441C1505.13 542.254 1504.97 543.203 1504.97 544.289C1504.97 545.367 1505.11 546.305 1505.41 547.102C1505.71 547.891 1506.13 548.547 1506.68 549.07C1507.22 549.586 1507.88 549.969 1508.65 550.219C1509.42 550.469 1510.28 550.594 1511.22 550.594C1511.48 550.594 1511.76 550.582 1512.04 550.559C1512.33 550.527 1512.62 550.488 1512.91 550.441C1513.21 550.387 1513.49 550.328 1513.77 550.266C1514.05 550.195 1514.3 550.121 1514.52 550.043V551.73C1514.06 551.91 1513.52 552.047 1512.91 552.141C1512.3 552.242 1511.68 552.293 1511.04 552.293C1509.73 552.293 1508.58 552.113 1507.57 551.754C1506.56 551.387 1505.71 550.863 1505.02 550.184C1504.35 549.504 1503.83 548.676 1503.48 547.699C1503.13 546.715 1502.95 545.602 1502.95 544.359C1502.95 543.141 1503.13 542.02 1503.5 540.996C1503.88 539.973 1504.41 539.094 1505.11 538.359C1505.81 537.625 1506.66 537.055 1507.65 536.648C1508.65 536.234 1509.77 536.027 1511.01 536.027C1511.34 536.027 1511.67 536.043 1511.99 536.074C1512.31 536.098 1512.61 536.137 1512.9 536.191C1513.2 536.238 1513.47 536.297 1513.72 536.367C1513.97 536.438 1514.18 536.512 1514.36 536.59V538.277C1513.9 538.121 1513.38 537.992 1512.83 537.891C1512.27 537.781 1511.72 537.727 1511.15 537.727ZM1522.24 550.277H1530.28V552H1520.33V536.32H1529.85V538.043H1522.24V543.105H1529V544.828H1522.24V550.277Z" fill="white"/>
<path d="M1347.03 581.122C1349.81 581.122 1351.99 582.116 1353.56 584.104C1355.43 586.458 1356.36 590.362 1356.36 595.816C1356.36 601.257 1355.42 605.167 1353.54 607.548C1351.98 609.51 1349.81 610.49 1347.03 610.49C1344.23 610.49 1341.97 609.418 1340.26 607.273C1338.54 605.115 1337.69 601.277 1337.69 595.757C1337.69 590.343 1338.63 586.445 1340.51 584.065C1342.07 582.103 1344.24 581.122 1347.03 581.122ZM1347.03 585.693C1346.36 585.693 1345.76 585.909 1345.24 586.341C1344.72 586.759 1344.31 587.518 1344.02 588.616C1343.64 590.042 1343.45 592.442 1343.45 595.816C1343.45 599.19 1343.62 601.512 1343.96 602.781C1344.3 604.036 1344.73 604.873 1345.24 605.292C1345.76 605.71 1346.36 605.919 1347.03 605.919C1347.69 605.919 1348.29 605.71 1348.81 605.292C1349.33 604.86 1349.74 604.095 1350.03 602.996C1350.41 601.584 1350.6 599.19 1350.6 595.816C1350.6 592.442 1350.43 590.127 1350.09 588.871C1349.75 587.603 1349.31 586.759 1348.79 586.341C1348.28 585.909 1347.69 585.693 1347.03 585.693ZM1360.44 610V604.487H1365.96V610H1360.44ZM1383.75 610H1378.24V589.224C1376.23 591.108 1373.85 592.501 1371.12 593.403V588.401C1372.56 587.93 1374.12 587.04 1375.81 585.732C1377.49 584.412 1378.65 582.875 1379.28 581.122H1383.75V610ZM1403.08 610H1397.56V589.224C1395.55 591.108 1393.18 592.501 1390.44 593.403V588.401C1391.88 587.93 1393.44 587.04 1395.13 585.732C1396.82 584.412 1397.98 582.875 1398.6 581.122H1403.08V610ZM1429.21 588.283L1423.87 588.871C1423.74 587.773 1423.4 586.962 1422.85 586.439C1422.3 585.916 1421.59 585.654 1420.71 585.654C1419.55 585.654 1418.56 586.177 1417.75 587.223C1416.95 588.27 1416.45 590.447 1416.24 593.756C1417.61 592.134 1419.32 591.324 1421.36 591.324C1423.66 591.324 1425.63 592.2 1427.27 593.952C1428.91 595.705 1429.74 597.968 1429.74 600.74C1429.74 603.683 1428.88 606.044 1427.15 607.822C1425.42 609.601 1423.21 610.49 1420.5 610.49C1417.59 610.49 1415.21 609.366 1413.34 607.116C1411.47 604.854 1410.53 601.152 1410.53 596.012C1410.53 590.742 1411.51 586.942 1413.46 584.614C1415.4 582.286 1417.93 581.122 1421.05 581.122C1423.23 581.122 1425.04 581.737 1426.46 582.966C1427.9 584.183 1428.82 585.955 1429.21 588.283ZM1416.71 600.309C1416.71 602.1 1417.12 603.487 1417.95 604.468C1418.77 605.436 1419.71 605.919 1420.77 605.919C1421.79 605.919 1422.64 605.521 1423.32 604.723C1424 603.925 1424.34 602.617 1424.34 600.799C1424.34 598.929 1423.98 597.562 1423.24 596.699C1422.51 595.823 1421.6 595.385 1420.5 595.385C1419.44 595.385 1418.54 595.803 1417.81 596.64C1417.08 597.464 1416.71 598.687 1416.71 600.309ZM1443.61 610V581.24H1452.3L1457.52 600.858L1462.68 581.24H1471.39V610H1465.99V587.361L1460.29 610H1454.69L1449 587.361V610H1443.61ZM1502.29 610H1495.97L1493.46 603.467H1481.96L1479.59 610H1473.43L1484.63 581.24H1490.77L1502.29 610ZM1491.6 598.622L1487.63 587.949L1483.75 598.622H1491.6ZM1508.08 610V586.105H1499.54V581.24H1522.4V586.105H1513.88V610H1508.08ZM1525.18 610V581.24H1530.99V610H1525.18ZM1554.14 599.426L1559.77 601.211C1558.91 604.35 1557.47 606.685 1555.46 608.215C1553.45 609.732 1550.91 610.49 1547.82 610.49C1544.01 610.49 1540.87 609.189 1538.41 606.586C1535.95 603.971 1534.72 600.4 1534.72 595.875C1534.72 591.088 1535.96 587.374 1538.43 584.732C1540.9 582.077 1544.15 580.749 1548.18 580.749C1551.7 580.749 1554.55 581.789 1556.75 583.869C1558.06 585.098 1559.04 586.864 1559.69 589.166L1553.94 590.539C1553.6 589.048 1552.89 587.871 1551.81 587.008C1550.73 586.144 1549.43 585.713 1547.88 585.713C1545.75 585.713 1544.02 586.478 1542.68 588.008C1541.36 589.538 1540.7 592.017 1540.7 595.443C1540.7 599.079 1541.36 601.669 1542.66 603.212C1543.97 604.755 1545.67 605.527 1547.77 605.527C1549.31 605.527 1550.64 605.037 1551.75 604.056C1552.86 603.075 1553.66 601.532 1554.14 599.426Z" fill="white"/>
<path d="M1399.36 201V188.115H1408.91V190.295H1401.96V193.151H1408.43V195.322H1401.96V198.829H1409.15V201H1399.36ZM1413.31 201V188.115H1417.2L1419.54 196.904L1421.85 188.115H1425.75V201H1423.33V190.857L1420.78 201H1418.27L1415.72 190.857V201H1413.31ZM1430.24 201V188.115H1432.84V201H1430.24ZM1436.65 196.808L1439.18 196.562C1439.33 197.411 1439.64 198.035 1440.1 198.434C1440.57 198.832 1441.2 199.031 1441.99 199.031C1442.83 199.031 1443.46 198.855 1443.88 198.504C1444.31 198.146 1444.52 197.73 1444.52 197.256C1444.52 196.951 1444.43 196.693 1444.25 196.482C1444.07 196.266 1443.76 196.078 1443.32 195.92C1443.01 195.814 1442.32 195.627 1441.23 195.357C1439.84 195.012 1438.86 194.587 1438.3 194.083C1437.51 193.374 1437.11 192.51 1437.11 191.49C1437.11 190.834 1437.3 190.222 1437.67 189.653C1438.04 189.079 1438.58 188.643 1439.27 188.344C1439.98 188.045 1440.82 187.896 1441.81 187.896C1443.43 187.896 1444.65 188.25 1445.46 188.959C1446.28 189.668 1446.71 190.614 1446.75 191.798L1444.15 191.912C1444.04 191.25 1443.8 190.775 1443.43 190.488C1443.07 190.195 1442.52 190.049 1441.79 190.049C1441.03 190.049 1440.44 190.204 1440.01 190.515C1439.74 190.714 1439.6 190.98 1439.6 191.314C1439.6 191.619 1439.73 191.88 1439.99 192.097C1440.31 192.372 1441.11 192.659 1442.38 192.958C1443.64 193.257 1444.58 193.567 1445.18 193.89C1445.79 194.206 1446.26 194.643 1446.6 195.199C1446.95 195.75 1447.12 196.433 1447.12 197.247C1447.12 197.985 1446.92 198.677 1446.51 199.321C1446.1 199.966 1445.52 200.446 1444.77 200.763C1444.02 201.073 1443.08 201.229 1441.96 201.229C1440.33 201.229 1439.08 200.854 1438.21 200.104C1437.34 199.348 1436.82 198.249 1436.65 196.808ZM1450.63 196.808L1453.16 196.562C1453.32 197.411 1453.62 198.035 1454.09 198.434C1454.55 198.832 1455.18 199.031 1455.98 199.031C1456.81 199.031 1457.44 198.855 1457.86 198.504C1458.29 198.146 1458.51 197.73 1458.51 197.256C1458.51 196.951 1458.42 196.693 1458.23 196.482C1458.06 196.266 1457.75 196.078 1457.3 195.92C1457 195.814 1456.3 195.627 1455.22 195.357C1453.82 195.012 1452.85 194.587 1452.28 194.083C1451.49 193.374 1451.1 192.51 1451.1 191.49C1451.1 190.834 1451.28 190.222 1451.65 189.653C1452.03 189.079 1452.56 188.643 1453.26 188.344C1453.96 188.045 1454.81 187.896 1455.8 187.896C1457.42 187.896 1458.63 188.25 1459.45 188.959C1460.27 189.668 1460.7 190.614 1460.74 191.798L1458.14 191.912C1458.03 191.25 1457.79 190.775 1457.42 190.488C1457.05 190.195 1456.51 190.049 1455.77 190.049C1455.02 190.049 1454.43 190.204 1454 190.515C1453.72 190.714 1453.58 190.98 1453.58 191.314C1453.58 191.619 1453.71 191.88 1453.97 192.097C1454.3 192.372 1455.1 192.659 1456.36 192.958C1457.63 193.257 1458.56 193.567 1459.17 193.89C1459.78 194.206 1460.25 194.643 1460.59 195.199C1460.94 195.75 1461.11 196.433 1461.11 197.247C1461.11 197.985 1460.9 198.677 1460.49 199.321C1460.08 199.966 1459.5 200.446 1458.75 200.763C1458 201.073 1457.07 201.229 1455.95 201.229C1454.32 201.229 1453.07 200.854 1452.2 200.104C1451.32 199.348 1450.8 198.249 1450.63 196.808ZM1465.2 201V188.115H1467.8V201H1465.2ZM1471.74 194.637C1471.74 193.324 1471.94 192.223 1472.33 191.332C1472.62 190.676 1473.02 190.087 1473.52 189.565C1474.03 189.044 1474.59 188.657 1475.19 188.405C1476 188.065 1476.92 187.896 1477.97 187.896C1479.87 187.896 1481.39 188.484 1482.52 189.662C1483.67 190.84 1484.24 192.478 1484.24 194.575C1484.24 196.655 1483.67 198.284 1482.54 199.462C1481.41 200.634 1479.9 201.22 1478.01 201.22C1476.09 201.22 1474.57 200.637 1473.44 199.471C1472.3 198.299 1471.74 196.688 1471.74 194.637ZM1474.42 194.549C1474.42 196.008 1474.76 197.115 1475.43 197.871C1476.1 198.621 1476.96 198.996 1478 198.996C1479.03 198.996 1479.88 198.624 1480.55 197.88C1481.21 197.13 1481.55 196.008 1481.55 194.514C1481.55 193.037 1481.22 191.936 1480.57 191.209C1479.93 190.482 1479.07 190.119 1478 190.119C1476.92 190.119 1476.06 190.488 1475.4 191.227C1474.75 191.959 1474.42 193.066 1474.42 194.549ZM1488.28 201V188.115H1490.81L1496.09 196.72V188.115H1498.5V201H1495.89L1490.7 192.598V201H1488.28Z" fill="url(#paint5_linear_76_289)"/>
<path d="M1331.7 235.386L1334.78 234.976C1335.13 236.719 1335.73 237.978 1336.57 238.753C1337.43 239.516 1338.46 239.898 1339.68 239.898C1341.13 239.898 1342.35 239.397 1343.34 238.394C1344.34 237.391 1344.84 236.15 1344.84 234.668C1344.84 233.256 1344.38 232.094 1343.46 231.182C1342.54 230.259 1341.36 229.798 1339.94 229.798C1339.36 229.798 1338.63 229.912 1337.77 230.14L1338.11 227.439C1338.31 227.462 1338.48 227.474 1338.6 227.474C1339.91 227.474 1341.09 227.132 1342.14 226.448C1343.19 225.765 1343.71 224.711 1343.71 223.287C1343.71 222.159 1343.33 221.224 1342.57 220.484C1341.81 219.743 1340.82 219.373 1339.61 219.373C1338.42 219.373 1337.42 219.749 1336.62 220.501C1335.82 221.253 1335.31 222.381 1335.08 223.885L1332.01 223.338C1332.38 221.276 1333.24 219.681 1334.57 218.553C1335.9 217.413 1337.56 216.844 1339.54 216.844C1340.91 216.844 1342.17 217.14 1343.32 217.732C1344.47 218.313 1345.35 219.111 1345.95 220.125C1346.57 221.139 1346.88 222.216 1346.88 223.355C1346.88 224.437 1346.59 225.423 1346 226.312C1345.42 227.2 1344.56 227.907 1343.42 228.431C1344.91 228.772 1346.06 229.485 1346.88 230.567C1347.7 231.638 1348.11 232.982 1348.11 234.6C1348.11 236.788 1347.31 238.645 1345.71 240.171C1344.12 241.687 1342.1 242.444 1339.66 242.444C1337.47 242.444 1335.64 241.789 1334.18 240.479C1332.73 239.169 1331.91 237.471 1331.7 235.386ZM1349.59 229.644C1349.59 226.682 1349.89 224.301 1350.5 222.5C1351.11 220.689 1352.02 219.293 1353.21 218.313C1354.42 217.334 1355.94 216.844 1357.76 216.844C1359.1 216.844 1360.28 217.117 1361.3 217.664C1362.31 218.2 1363.15 218.98 1363.81 220.005C1364.47 221.019 1364.99 222.261 1365.36 223.731C1365.74 225.189 1365.93 227.16 1365.93 229.644C1365.93 232.583 1365.63 234.959 1365.02 236.771C1364.42 238.571 1363.51 239.966 1362.31 240.958C1361.11 241.937 1359.59 242.427 1357.76 242.427C1355.34 242.427 1353.45 241.561 1352.07 239.83C1350.42 237.745 1349.59 234.349 1349.59 229.644ZM1352.75 229.644C1352.75 233.757 1353.23 236.497 1354.19 237.864C1355.16 239.22 1356.35 239.898 1357.76 239.898C1359.17 239.898 1360.36 239.214 1361.31 237.847C1362.28 236.48 1362.77 233.746 1362.77 229.644C1362.77 225.52 1362.28 222.78 1361.31 221.424C1360.36 220.068 1359.16 219.39 1357.73 219.39C1356.31 219.39 1355.18 219.988 1354.34 221.185C1353.28 222.711 1352.75 225.531 1352.75 229.644ZM1367.5 229.644C1367.5 226.682 1367.8 224.301 1368.4 222.5C1369.02 220.689 1369.92 219.293 1371.12 218.313C1372.33 217.334 1373.84 216.844 1375.67 216.844C1377.01 216.844 1378.19 217.117 1379.2 217.664C1380.22 218.2 1381.06 218.98 1381.72 220.005C1382.38 221.019 1382.9 222.261 1383.27 223.731C1383.65 225.189 1383.84 227.16 1383.84 229.644C1383.84 232.583 1383.53 234.959 1382.93 236.771C1382.33 238.571 1381.42 239.966 1380.21 240.958C1379.02 241.937 1377.5 242.427 1375.67 242.427C1373.25 242.427 1371.35 241.561 1369.98 239.83C1368.32 237.745 1367.5 234.349 1367.5 229.644ZM1370.66 229.644C1370.66 233.757 1371.14 236.497 1372.1 237.864C1373.06 239.22 1374.25 239.898 1375.67 239.898C1377.08 239.898 1378.26 239.214 1379.22 237.847C1380.19 236.48 1380.67 233.746 1380.67 229.644C1380.67 225.52 1380.19 222.78 1379.22 221.424C1378.26 220.068 1377.07 219.39 1375.63 219.39C1374.22 219.39 1373.09 219.988 1372.25 221.185C1371.19 222.711 1370.66 225.531 1370.66 229.644ZM1387.06 242V238.497H1390.57V242C1390.57 243.287 1390.34 244.324 1389.88 245.11C1389.43 245.908 1388.7 246.523 1387.71 246.956L1386.86 245.64C1387.51 245.355 1387.99 244.934 1388.29 244.375C1388.6 243.829 1388.77 243.037 1388.81 242H1387.06ZM1393.57 229.644C1393.57 226.682 1393.87 224.301 1394.48 222.5C1395.09 220.689 1396 219.293 1397.19 218.313C1398.4 217.334 1399.92 216.844 1401.74 216.844C1403.09 216.844 1404.26 217.117 1405.28 217.664C1406.29 218.2 1407.13 218.98 1407.79 220.005C1408.45 221.019 1408.97 222.261 1409.35 223.731C1409.72 225.189 1409.91 227.16 1409.91 229.644C1409.91 232.583 1409.61 234.959 1409 236.771C1408.4 238.571 1407.49 239.966 1406.29 240.958C1405.09 241.937 1403.58 242.427 1401.74 242.427C1399.33 242.427 1397.43 241.561 1396.05 239.83C1394.4 237.745 1393.57 234.349 1393.57 229.644ZM1396.73 229.644C1396.73 233.757 1397.21 236.497 1398.17 237.864C1399.14 239.22 1400.33 239.898 1401.74 239.898C1403.15 239.898 1404.34 239.214 1405.3 237.847C1406.26 236.48 1406.75 233.746 1406.75 229.644C1406.75 225.52 1406.26 222.78 1405.3 221.424C1404.34 220.068 1403.14 219.39 1401.71 219.39C1400.29 219.39 1399.17 219.988 1398.32 221.185C1397.26 222.711 1396.73 225.531 1396.73 229.644ZM1411.48 229.644C1411.48 226.682 1411.78 224.301 1412.38 222.5C1413 220.689 1413.91 219.293 1415.1 218.313C1416.31 217.334 1417.83 216.844 1419.65 216.844C1420.99 216.844 1422.17 217.117 1423.19 217.664C1424.2 218.2 1425.04 218.98 1425.7 220.005C1426.36 221.019 1426.88 222.261 1427.25 223.731C1427.63 225.189 1427.82 227.16 1427.82 229.644C1427.82 232.583 1427.52 234.959 1426.91 236.771C1426.31 238.571 1425.4 239.966 1424.19 240.958C1423 241.937 1421.48 242.427 1419.65 242.427C1417.23 242.427 1415.34 241.561 1413.96 239.83C1412.31 237.745 1411.48 234.349 1411.48 229.644ZM1414.64 229.644C1414.64 233.757 1415.12 236.497 1416.08 237.864C1417.04 239.22 1418.24 239.898 1419.65 239.898C1421.06 239.898 1422.25 239.214 1423.2 237.847C1424.17 236.48 1424.66 233.746 1424.66 229.644C1424.66 225.52 1424.17 222.78 1423.2 221.424C1422.25 220.068 1421.05 219.39 1419.61 219.39C1418.2 219.39 1417.07 219.988 1416.23 221.185C1415.17 222.711 1414.64 225.531 1414.64 229.644ZM1429.39 229.644C1429.39 226.682 1429.69 224.301 1430.29 222.5C1430.91 220.689 1431.81 219.293 1433.01 218.313C1434.22 217.334 1435.73 216.844 1437.56 216.844C1438.9 216.844 1440.08 217.117 1441.09 217.664C1442.11 218.2 1442.94 218.98 1443.61 220.005C1444.27 221.019 1444.78 222.261 1445.16 223.731C1445.54 225.189 1445.72 227.16 1445.72 229.644C1445.72 232.583 1445.42 234.959 1444.82 236.771C1444.21 238.571 1443.31 239.966 1442.1 240.958C1440.91 241.937 1439.39 242.427 1437.56 242.427C1435.14 242.427 1433.24 241.561 1431.86 239.83C1430.21 237.745 1429.39 234.349 1429.39 229.644ZM1432.55 229.644C1432.55 233.757 1433.03 236.497 1433.98 237.864C1434.95 239.22 1436.14 239.898 1437.56 239.898C1438.97 239.898 1440.15 239.214 1441.11 237.847C1442.08 236.48 1442.56 233.746 1442.56 229.644C1442.56 225.52 1442.08 222.78 1441.11 221.424C1440.15 220.068 1438.96 219.39 1437.52 219.39C1436.11 219.39 1434.98 219.988 1434.14 221.185C1433.08 222.711 1432.55 225.531 1432.55 229.644ZM1448.95 242V238.497H1452.46V242C1452.46 243.287 1452.23 244.324 1451.77 245.11C1451.32 245.908 1450.59 246.523 1449.6 246.956L1448.75 245.64C1449.4 245.355 1449.87 244.934 1450.18 244.375C1450.49 243.829 1450.66 243.037 1450.69 242H1448.95ZM1455.46 229.644C1455.46 226.682 1455.76 224.301 1456.37 222.5C1456.98 220.689 1457.89 219.293 1459.08 218.313C1460.29 217.334 1461.81 216.844 1463.63 216.844C1464.97 216.844 1466.15 217.117 1467.17 217.664C1468.18 218.2 1469.02 218.98 1469.68 220.005C1470.34 221.019 1470.86 222.261 1471.23 223.731C1471.61 225.189 1471.8 227.16 1471.8 229.644C1471.8 232.583 1471.5 234.959 1470.89 236.771C1470.29 238.571 1469.38 239.966 1468.18 240.958C1466.98 241.937 1465.46 242.427 1463.63 242.427C1461.21 242.427 1459.32 241.561 1457.94 239.83C1456.29 237.745 1455.46 234.349 1455.46 229.644ZM1458.62 229.644C1458.62 233.757 1459.1 236.497 1460.06 237.864C1461.03 239.22 1462.22 239.898 1463.63 239.898C1465.04 239.898 1466.23 239.214 1467.18 237.847C1468.15 236.48 1468.64 233.746 1468.64 229.644C1468.64 225.52 1468.15 222.78 1467.18 221.424C1466.23 220.068 1465.03 219.39 1463.6 219.39C1462.18 219.39 1461.05 219.988 1460.21 221.185C1459.15 222.711 1458.62 225.531 1458.62 229.644ZM1473.37 229.644C1473.37 226.682 1473.67 224.301 1474.27 222.5C1474.89 220.689 1475.79 219.293 1476.99 218.313C1478.2 217.334 1479.71 216.844 1481.54 216.844C1482.88 216.844 1484.06 217.117 1485.07 217.664C1486.09 218.2 1486.93 218.98 1487.59 220.005C1488.25 221.019 1488.77 222.261 1489.14 223.731C1489.52 225.189 1489.71 227.16 1489.71 229.644C1489.71 232.583 1489.4 234.959 1488.8 236.771C1488.2 238.571 1487.29 239.966 1486.08 240.958C1484.89 241.937 1483.37 242.427 1481.54 242.427C1479.12 242.427 1477.22 241.561 1475.85 239.83C1474.19 237.745 1473.37 234.349 1473.37 229.644ZM1476.53 229.644C1476.53 233.757 1477.01 236.497 1477.96 237.864C1478.93 239.22 1480.12 239.898 1481.54 239.898C1482.95 239.898 1484.13 239.214 1485.09 237.847C1486.06 236.48 1486.54 233.746 1486.54 229.644C1486.54 225.52 1486.06 222.78 1485.09 221.424C1484.13 220.068 1482.94 219.39 1481.5 219.39C1480.09 219.39 1478.96 219.988 1478.12 221.185C1477.06 222.711 1476.53 225.531 1476.53 229.644ZM1491.28 229.644C1491.28 226.682 1491.58 224.301 1492.18 222.5C1492.8 220.689 1493.7 219.293 1494.9 218.313C1496.11 217.334 1497.62 216.844 1499.44 216.844C1500.79 216.844 1501.97 217.117 1502.98 217.664C1504 218.2 1504.83 218.98 1505.49 220.005C1506.15 221.019 1506.67 222.261 1507.05 223.731C1507.43 225.189 1507.61 227.16 1507.61 229.644C1507.61 232.583 1507.31 234.959 1506.71 236.771C1506.1 238.571 1505.2 239.966 1503.99 240.958C1502.79 241.937 1501.28 242.427 1499.44 242.427C1497.03 242.427 1495.13 241.561 1493.75 239.83C1492.1 237.745 1491.28 234.349 1491.28 229.644ZM1494.44 229.644C1494.44 233.757 1494.92 236.497 1495.87 237.864C1496.84 239.22 1498.03 239.898 1499.44 239.898C1500.86 239.898 1502.04 239.214 1503 237.847C1503.97 236.48 1504.45 233.746 1504.45 229.644C1504.45 225.52 1503.97 222.78 1503 221.424C1502.04 220.068 1500.85 219.39 1499.41 219.39C1498 219.39 1496.87 219.988 1496.03 221.185C1494.97 222.711 1494.44 225.531 1494.44 229.644ZM1518.49 242V216.946H1523.48L1529.41 234.686C1529.96 236.338 1530.36 237.574 1530.61 238.394C1530.9 237.483 1531.34 236.144 1531.94 234.378L1537.94 216.946H1542.4V242H1539.21V221.031L1531.93 242H1528.94L1521.69 220.672V242H1518.49ZM1564.05 233.216L1567.37 234.053C1566.67 236.776 1565.42 238.855 1563.61 240.291C1561.81 241.715 1559.6 242.427 1556.99 242.427C1554.29 242.427 1552.1 241.88 1550.4 240.787C1548.71 239.681 1547.42 238.086 1546.54 236.001C1545.66 233.917 1545.22 231.678 1545.22 229.285C1545.22 226.676 1545.72 224.403 1546.71 222.466C1547.71 220.518 1549.13 219.043 1550.96 218.04C1552.81 217.026 1554.84 216.519 1557.05 216.519C1559.55 216.519 1561.66 217.157 1563.37 218.433C1565.08 219.709 1566.27 221.504 1566.94 223.816L1563.68 224.585C1563.1 222.763 1562.25 221.435 1561.15 220.604C1560.04 219.772 1558.65 219.356 1556.98 219.356C1555.05 219.356 1553.44 219.817 1552.14 220.74C1550.85 221.663 1549.95 222.905 1549.42 224.466C1548.9 226.015 1548.64 227.616 1548.64 229.268C1548.64 231.399 1548.95 233.261 1549.56 234.856C1550.19 236.44 1551.16 237.625 1552.47 238.411C1553.78 239.197 1555.19 239.59 1556.72 239.59C1558.58 239.59 1560.15 239.055 1561.44 237.984C1562.73 236.913 1563.6 235.324 1564.05 233.216Z" fill="white"/>
<defs>
<filter id="filter0_b_76_289" x="1158" y="110" width="582" height="582" filterUnits="userSpaceOnUse" color-interpolation-filters="sRGB">
<feFlood flood-opacity="0" result="BackgroundImageFix"/>
<feGaussianBlur in="BackgroundImage" stdDeviation="8"/>
<feComposite in2="SourceAlpha" operator="in" result="effect1_backgroundBlur_76_289"/>
<feBlend mode="normal" in="SourceGraphic" in2="effect1_backgroundBlur_76_289" result="shape"/>
</filter>
<linearGradient id="paint0_linear_76_289" x1="1165.54" y1="188.857" x2="1831.96" y2="199.169" gradientUnits="userSpaceOnUse">
<stop stop-color="#416CCA"/>
<stop offset="1" stop-color="#7852CB"/>
</linearGradient>
<radialGradient id="paint1_radial_76_289" cx="0" cy="0" r="1" gradientUnits="userSpaceOnUse" gradientTransform="translate(1447.51 281.894) rotate(90) scale(70.2399 121.244)">
<stop stop-color="#5C86E1"/>
<stop offset="1" stop-color="#8BAAEB"/>
</radialGradient>
<linearGradient id="paint2_linear_76_289" x1="1545.26" y1="342.801" x2="1447.51" y2="512.261" gradientUnits="userSpaceOnUse">
<stop stop-color="#4668C1"/>
<stop offset="1" stop-color="#6C3ABF"/>
</linearGradient>
<linearGradient id="paint3_linear_76_289" x1="1396.43" y1="495.069" x2="1399.38" y2="366.378" gradientUnits="userSpaceOnUse">
<stop stop-color="#402E82"/>
<stop offset="1" stop-color="#476DC7"/>
</linearGradient>
<linearGradient id="paint4_linear_76_289" x1="1447.09" y1="302.819" x2="1447.51" y2="502.589" gradientUnits="userSpaceOnUse">
<stop stop-color="#FDFEFF"/>
<stop offset="1" stop-color="#A7BFFE"/>
</linearGradient>
<linearGradient id="paint5_linear_76_289" x1="1396.43" y1="186.4" x2="1519.36" y2="195.639" gradientUnits="userSpaceOnUse">
<stop stop-color="#416CCA"/>
<stop offset="1" stop-color="#7852CB"/>
</linearGradient>
</defs>
</svg>
