<svg width="1920" height="1827" viewBox="0 0 1920 1827" fill="none" xmlns="http://www.w3.org/2000/svg">
<g opacity="0.1">
<path opacity="0.0344828" d="M1947.86 1726.48C1746.99 1467.91 1499.7 2164.65 1195.97 1733.85C892.233 1303.05 1415.63 611.585 993.013 692.043C570.401 772.501 881.485 2138.26 598.38 1465.64C315.275 793.01 449.218 404.861 576.548 401.231C678.413 398.327 555.423 229.388 481.195 145.282" stroke="#0E21FE"/>
<path opacity="0.0689655" d="M1887.76 1799.69C1710.66 1525.85 1406.81 2193.77 1142.38 1740.26C877.954 1286.76 1454.83 648.559 1029.43 690.72C604.031 732.881 796.698 2112.77 573.146 1421.66C349.594 730.546 515.079 358.112 641.507 365.818C742.65 371.982 635.11 193.795 568.697 103.931" stroke="#1620FC"/>
<path opacity="0.103448" d="M1820.94 1867.69C1668.74 1580.74 1311.46 2215.32 1087.97 1742.67C864.488 1270.01 1489.59 689.106 1064.84 693.104C640.086 697.103 714.228 2080.94 551.298 1376.57C388.367 672.206 583.688 318.011 708.213 336.866C807.833 351.949 716.417 165.915 658.257 71.0129" stroke="#1F1EFB"/>
<path opacity="0.137931" d="M1747.89 1929.93C1621.52 1632.12 1214.27 2229.17 1033.05 1741.03C851.836 1252.9 1519.6 732.795 1098.89 699.072C678.189 665.35 634.563 2043.04 532.867 1330.69C431.172 618.349 654.424 284.742 776.07 314.471C873.386 338.254 798.643 145.821 749.107 46.6321" stroke="#271DF9"/>
<path opacity="0.172414" d="M1669.16 1985.92C1569.35 1679.55 1115.92 2235.21 977.973 1735.35C840.021 1235.49 1544.65 779.174 1131.31 708.471C717.973 637.768 558.193 1999.36 517.888 1284.33C477.583 569.296 726.681 258.433 844.506 298.678C938.766 330.873 881.113 133.525 840.505 30.8268" stroke="#301CF8"/>
<path opacity="0.206897" d="M1585.34 2035.2C1512.62 1722.63 1017.11 2233.42 923.084 1725.65C829.061 1217.87 1564.57 827.787 1161.81 721.134C759.064 614.481 485.576 1950.27 506.364 1237.8C527.153 525.336 799.849 239.168 912.952 289.488C1003.43 329.744 963.16 128.989 931.713 23.579" stroke="#391BF6"/>
<path opacity="0.241379" d="M1497.08 2077.37C1451.78 1760.98 918.506 2223.83 868.743 1711.98C818.979 1200.12 1579.22 878.151 1190.16 736.858C801.098 595.565 417.149 1896.15 498.288 1191.42C579.426 486.703 873.332 226.964 980.858 286.843C1066.88 334.746 1044.14 132.104 1022.02 24.7954" stroke="#411AF5"/>
<path opacity="0.275862" d="M1405.02 2112.1C1387.25 1794.28 820.773 2206.51 815.268 1694.41C809.762 1182.31 1588.52 929.775 1216.1 755.415C843.672 581.055 353.281 1837.39 493.591 1145.48C633.901 453.582 946.504 221.779 1047.65 290.628C1128.58 345.708 1123.39 142.702 1110.69 34.3138" stroke="#4A19F3"/>
<path opacity="0.310345" d="M1309.86 2139.11C1319.52 1822.24 724.559 2181.61 762.979 1673.06C801.399 1164.52 1592.4 982.187 1239.4 776.583C886.395 570.979 294.312 1774.45 492.191 1100.29C690.069 426.139 1018.76 223.544 1112.79 300.71C1188.02 362.442 1200.29 160.584 1197.02 51.9377" stroke="#5317F2"/>
<path opacity="0.344828" d="M1212.29 2158.19C1249.09 1844.62 630.514 2149.31 712.204 1648.06C793.894 1146.82 1590.89 1034.89 1259.89 800.1C928.899 565.306 240.561 1707.79 493.999 1056.13C747.437 404.468 1089.52 232.113 1175.77 316.88C1244.77 384.695 1274.25 185.474 1280.36 77.3864" stroke="#5B16F0"/>
<path opacity="0.37931" d="M1113.06 2169.19C1176.5 1861.24 539.264 2109.87 663.251 1619.58C787.237 1129.3 1584.02 1087.42 1277.41 825.706C970.814 563.988 192.296 1637.9 498.897 1013.27C805.499 388.637 1158.24 247.309 1236.09 338.91C1298.37 412.191 1344.7 217.066 1360.07 110.343" stroke="#6415EF"/>
<path opacity="0.413793" d="M1012.85 2172.03C1102.23 1871.94 451.359 2063.59 616.362 1587.81C781.364 1112.02 1571.84 1139.31 1291.78 853.126C1011.73 566.941 149.691 1565.3 506.694 971.979C863.697 378.662 1224.3 268.901 1293.23 366.521C1348.37 444.617 1411.06 255.002 1435.51 150.432" stroke="#6C14ED"/>
<path opacity="0.448276" d="M912.425 2166.67C1026.86 1876.61 367.402 2010.8 571.846 1552.93C776.29 1095.05 1554.52 1190.08 1302.92 882.056C1051.32 574.029 112.962 1490.47 517.263 932.481C921.563 374.495 1287.24 296.596 1346.8 399.379C1394.44 481.605 1472.88 298.862 1506.15 197.212" stroke="#7513EC"/>
<path opacity="0.482759" d="M812.478 2153.18C950.915 1875.22 287.877 1951.93 529.908 1515.19C771.939 1078.46 1532.19 1239.33 1310.7 912.229C1089.22 585.132 82.1915 1413.97 530.371 895.028C978.551 376.087 1346.52 330.099 1396.33 437.157C1436.17 522.804 1529.66 348.231 1571.42 250.238" stroke="#7E12EA"/>
<path opacity="0.517241" d="M713.756 2131.65C874.959 1867.76 213.304 1887.36 490.804 1474.83C768.304 1062.3 1505.06 1286.6 1315.09 943.321C1125.11 600.046 57.4898 1336.31 545.844 859.799C1034.2 383.292 1401.7 369.023 1441.47 479.444C1473.29 567.781 1581 402.604 1630.87 308.973" stroke="#8610E9"/>
<path opacity="0.586207" d="M522.69 2065.22C725.097 1834.88 80.6759 1743.14 421.796 1387.32C762.916 1031.51 1437.36 1373.69 1313.47 1007.09C1189.58 640.497 26.2907 1179.63 582.89 796.759C1139.49 413.884 1498.01 461.541 1517.19 575.889C1532.54 667.368 1665.82 524.33 1730.55 441.376" stroke="#980EE6"/>
<path opacity="0.62069" d="M431.665 2020.83C652.23 1809.69 23.3606 1664.51 392.203 1340.75C761.045 1016.98 1397.32 1412.8 1307.45 1039.17C1217.57 665.547 19.7027 1101.67 603.957 769.245C1188.21 436.822 1538.38 514.24 1547.18 629.141C1554.21 721.062 1698.69 590.583 1770.04 513.853" stroke="#A00DE4"/>
<path opacity="0.655172" d="M344.518 1969.45C581.443 1778.91 -27.5019 1582.29 366.088 1292.69C759.677 1003.08 1353.62 1448.52 1298.03 1070.99C1242.44 693.455 19.0281 1024.63 626.407 744.563C1233.79 464.494 1573.17 570.59 1571.63 685.109C1570.4 776.724 1724.89 659.662 1802.29 589.679" stroke="#A90CE3"/>
<path opacity="0.689655" d="M261.814 1911.46C513.198 1742.76 -71.6804 1497.04 343.524 1243.45C758.729 989.854 1306.57 1480.57 1285.26 1102.25C1263.94 723.923 24.097 949.013 649.949 722.799C1275.8 496.585 1602.08 630.079 1590.34 743.294C1580.95 833.866 1744.23 730.972 1827.04 668.204" stroke="#B10BE1"/>
<path opacity="0.724138" d="M184.111 1847.31C447.957 1701.52 -108.965 1409.38 324.589 1193.35C758.144 977.319 1256.55 1508.71 1269.21 1132.68C1281.88 756.64 34.7294 875.286 674.316 704.016C1313.9 532.746 1624.91 692.176 1603.19 803.186C1585.81 891.993 1756.59 803.907 1844.15 748.763" stroke="#BA09E0"/>
<path opacity="0.758621" d="M111.9 1777.48C386.138 1655.48 -139.22 1319.9 309.313 1142.7C757.846 965.502 1203.93 1532.73 1250 1162C1296.08 791.277 50.6868 803.9 699.222 688.25C1347.76 572.601 1641.47 756.334 1610.06 864.266C1584.93 950.612 1761.88 877.855 1853.49 830.684" stroke="#C308DE"/>
<path opacity="0.793103" d="M45.6421 1702.5C328.144 1605 -162.346 1229.22 297.712 1091.82C757.771 954.416 1149.11 1552.44 1227.76 1189.97C1306.42 827.494 71.7105 735.279 724.394 675.512C1377.08 615.745 1651.64 821.997 1610.92 926.014C1578.34 1009.23 1760.08 952.204 1855.03 913.291" stroke="#CB07DD"/>
<path opacity="0.827586" d="M-14.2632 1622.95C274.33 1550.45 -178.312 1137.96 289.766 1041.02C757.844 944.079 1092.49 1567.72 1202.63 1216.33C1312.77 864.949 97.4958 669.827 749.548 665.794C1401.6 661.76 1655.34 888.61 1605.75 987.916C1566.08 1067.36 1751.23 1026.35 1848.77 995.92" stroke="#D406DB"/>
<path opacity="0.862069" d="M-67.4495 1539.42C225.036 1492.24 -187.116 1046.75 285.447 990.619C758.01 934.488 1034.5 1578.46 1174.79 1240.87C1315.09 903.285 127.73 607.908 774.429 659.053C1421.13 710.199 1652.56 955.606 1594.61 1049.45C1548.25 1124.53 1735.41 1099.7 1834.79 1077.9" stroke="#DD05DA"/>
<path opacity="0.896552" d="M-113.631 1452.54C180.539 1430.82 -188.836 956.2 284.677 940.926C758.19 925.652 975.55 1584.62 1144.43 1263.38C1313.3 942.153 162.046 549.865 798.76 655.239C1435.47 760.612 1643.3 1022.43 1577.57 1110.12C1524.98 1180.28 1712.75 1171.66 1813.21 1158.59" stroke="#E504D8"/>
<path opacity="0.931035" d="M-152.559 1362.94C141.095 1366.61 -183.582 866.898 287.372 892.224C758.325 917.55 916.06 1586.15 1111.74 1283.67C1307.42 981.182 200.073 495.987 822.296 654.252C1444.52 812.517 1627.65 1088.53 1554.76 1169.43C1496.45 1234.15 1683.43 1241.67 1784.21 1237.34" stroke="#EE02D7"/>
<path opacity="0.965517" d="M-184.057 1271.3C106.905 1300.1 -171.526 779.433 293.412 844.802C758.349 910.172 856.443 1583.08 1076.95 1301.55C1297.45 1020.02 241.409 446.541 844.788 655.991C1448.17 865.44 1605.73 1153.35 1526.36 1226.88C1462.87 1285.71 1647.69 1309.16 1748.03 1313.54" stroke="#F601D5"/>
<path d="M-207.996 1178.28C78.1353 1231.78 -152.877 694.374 302.663 798.938C758.204 903.501 797.111 1575.46 1040.28 1316.89C1283.45 1058.32 285.641 401.758 866.01 660.33C1446.38 918.902 1577.69 1216.38 1492.58 1282.04C1424.49 1334.56 1605.79 1373.63 1704.95 1386.6" stroke="#FF00D4"/>
</g>
</svg>
