<svg width="349" height="349" viewBox="0 0 349 349" fill="none" xmlns="http://www.w3.org/2000/svg">
<g filter="url(#filter0_ii_121_673)">
<g clip-path="url(#clip0_121_673)">
<rect width="349" height="349" rx="174.5" fill="white"/>
<rect width="349" height="349" rx="174.5" fill="#2B2A3A"/>
<mask id="path-2-inside-1_121_673" fill="white">
<path fill-rule="evenodd" clip-rule="evenodd" d="M180.443 32.8251L175.546 30L170.601 32.7392L54.1943 97.2139L49 100.091L49.0397 106.029L49.9534 242.57L49.9914 248.248L54.8877 251.125L113.365 285.48L123.496 268.236L69.915 236.757L69.079 111.833L175.346 52.974L184.472 58.2393L185.182 252.773L185.245 269.906L200.132 261.426L257.878 228.532L262.928 225.655V219.843V174.523V164.396H262.928V164.294V164.176V164.059V163.941V163.823V163.705V163.587V163.469V163.351V163.232V163.114V162.995V162.877V162.758V162.639V162.521V162.402V162.283V162.163V162.044V161.925V161.806V161.686V161.567V161.447V161.328V161.208V161.088V160.968V160.849V160.729V160.609V160.489V160.369V160.249V160.129V160.008V159.888V159.768V159.648V159.527V159.407V159.287V159.166V159.046V158.926V158.805V158.685V158.564V158.444V158.323V158.203V158.082V157.961V157.841V157.72V157.6V157.479V157.359V157.238V157.118V156.997V156.877V156.756V156.636V156.515V156.395V156.274V156.154V156.034V155.913V155.793V155.673V155.553V155.432V155.312V155.192V155.072V154.952V154.832V154.712V154.592V154.473V154.353V154.233V154.114V153.994V153.874V153.755V153.636V153.516V153.397V153.278V153.159V153.04V152.921V152.802V152.683V152.565V152.446V152.328V152.209V152.091V151.973V151.855V151.737V151.619V151.501V151.383V151.266V151.148V151.031V150.914V150.796V150.679V150.563V150.446V150.329V150.213V150.096V149.98V149.864V149.748V149.632V149.516V149.401V149.286V149.17V149.055V148.94V148.825V148.711V148.596V148.482V148.368V148.254V148.14V148.026V147.913V147.799V147.686V147.573V147.46V147.348V147.235V147.123V147.011V146.899V146.787V146.676V146.565V146.453V146.343V146.232V146.121V146.011V145.901V145.791V145.681V145.572V145.463V145.353V145.245V145.136V145.028V144.919V144.812V144.704V144.596V144.489V144.382V144.275V144.169V144.063V143.956V143.851V143.745V143.64V143.535V143.43V143.325V143.221V143.117V143.013V142.91V142.807V142.704V142.601V142.499V142.396V142.294V142.193V142.092V141.991V141.89V141.789V141.689V141.589V141.49V141.39V141.291V141.193V141.094V140.996V140.898V140.801V140.704V140.607V140.51V140.414V140.318V140.223V140.127V140.032V139.938V139.843V139.749V139.656V139.562V139.47V139.377V139.285V139.193V139.101V139.01V138.919V138.828V138.738V138.648V138.559V138.47V138.381V138.292V138.204V138.117V138.029V137.942V137.856V137.77V137.684V137.598V137.513V137.429V137.344V137.26V137.177V137.094V137.011V136.929V136.847V136.765V136.684V136.603V136.523V136.443V136.364V136.285V136.206V136.128V136.05V135.972V135.895V135.819V135.743V135.667V135.592V135.517V135.442V135.368V135.295V135.222V135.149V135.077V135.005V134.934V134.863V134.792V134.722V134.653V134.584V134.515V134.447V134.379V134.312V134.246V134.179V134.114V134.048V133.983V133.919V133.855V133.792V133.729V133.667V133.605V133.543V133.482V133.422V133.362V133.302V133.244V133.185V133.127V133.07V133.013V132.957V132.901V132.845V132.79V132.736V132.682V132.629V132.576V132.524V132.473V132.421V132.371V132.321V132.271V132.222V132.174V132.126V132.078V132.032V131.985V131.94V131.895V131.85V131.806V131.763V131.72V131.677V131.636V131.594V131.554V131.514V131.474V131.435V131.397V131.359V131.322V131.286V131.25V131.214V131.18V131.145V131.112V131.079V131.046V131.015V130.983V130.953V130.923V130.894V130.865V130.837V130.809V130.782V130.756V130.731V130.706V130.681V130.657V130.634V130.612V130.59V130.569V130.548V130.528V130.509V130.49V130.472V130.455V130.438V130.422V130.407V130.392V130.378V130.365V130.352V130.34V130.329V130.318V130.308V130.299V130.29V130.282V130.275V130.268V130.262V130.257V130.252V130.248V130.245V130.243V130.241C262.928 126.925 261.266 124.695 261.043 124.395L261.024 124.37C260.549 123.713 260.097 123.262 259.912 123.081C259.501 122.679 259.144 122.401 259.033 122.314C258.749 122.094 258.502 121.927 258.414 121.868C258.189 121.715 257.957 121.568 257.785 121.461C257.413 121.228 256.918 120.928 256.351 120.587C255.198 119.896 253.558 118.926 251.561 117.753C247.56 115.404 242.037 112.187 235.924 108.643C225.729 102.731 213.853 95.8835 204.59 90.5827L204.451 52.415L204.43 46.6637L199.448 43.7896L180.443 32.8251ZM204.675 113.691L204.862 165.131L242.928 164.649V164.646V164.529V164.411V164.294V164.176V164.059V163.941V163.823V163.705V163.587V163.469V163.351V163.232V163.114V162.995V162.877V162.758V162.639V162.521V162.402V162.283V162.163V162.044V161.925V161.806V161.686V161.567V161.447V161.328V161.208V161.088V160.968V160.849V160.729V160.609V160.489V160.369V160.249V160.129V160.008V159.888V159.768V159.648V159.527V159.407V159.287V159.166V159.046V158.926V158.805V158.685V158.564V158.444V158.323V158.203V158.082V157.961V157.841V157.72V157.6V157.479V157.359V157.238V157.118V156.997V156.877V156.756V156.636V156.515V156.395V156.274V156.154V156.034V155.913V155.793V155.673V155.553V155.432V155.312V155.192V155.072V154.952V154.832V154.712V154.592V154.473V154.353V154.233V154.114V153.994V153.874V153.755V153.636V153.516V153.397V153.278V153.159V153.04V152.921V152.802V152.683V152.565V152.446V152.328V152.209V152.091V151.973V151.855V151.737V151.619V151.501V151.383V151.266V151.148V151.031V150.914V150.796V150.679V150.563V150.446V150.329V150.213V150.096V149.98V149.864V149.748V149.632V149.516V149.401V149.286V149.17V149.055V148.94V148.825V148.711V148.596V148.482V148.368V148.254V148.14V148.026V147.913V147.799V147.686V147.573V147.46V147.348V147.235V147.123V147.011V146.899V146.787V146.676V146.565V146.453V146.343V146.232V146.121V146.011V145.901V145.791V145.681V145.572V145.463V145.353V145.245V145.136V145.028V144.919V144.812V144.704V144.596V144.489V144.382V144.275V144.169V144.063V143.956V143.851V143.745V143.64V143.535V143.43V143.325V143.221V143.117V143.013V142.91V142.807V142.704V142.601V142.499V142.396V142.294V142.193V142.092V141.991V141.89V141.789V141.689V141.589V141.49V141.39V141.291V141.193V141.094V140.996V140.898V140.801V140.704V140.607V140.51V140.414V140.318V140.223V140.127V140.032V139.938V139.843V139.749V139.656V139.562V139.47V139.377V139.285V139.193V139.101V139.01V138.919V138.828V138.738V138.648V138.559V138.47V138.381V138.292V138.204V138.117V138.029V137.942V137.856V137.77V137.684V137.598V137.513V137.429V137.344V137.26V137.177V137.094V137.011V136.929V136.847V136.765V136.684V136.603V136.523V136.443V136.364V136.285V136.206V136.128V136.05V135.972V135.895V135.878L242.279 135.497C242.007 135.336 241.725 135.17 241.434 135C237.479 132.677 231.992 129.482 225.891 125.944C219.135 122.027 211.644 117.7 204.675 113.691ZM205.119 235.567L204.935 185.131L242.928 184.65V214.031L205.119 235.567ZM280.965 113.805L227.471 83.0465L237.441 65.7084L295.918 99.3329L300.902 102.198L300.933 107.947L301.664 240.983L301.696 246.755L296.713 249.67L180.49 317.65L175.31 320.679L170.2 317.534L151.195 305.839L146.436 302.91V297.322V259.277C136.993 253.886 125.01 246.982 114.785 241.062C108.703 237.54 103.23 234.359 99.2725 232.045C97.2969 230.89 95.6834 229.942 94.5561 229.273C93.9983 228.941 93.5283 228.66 93.1838 228.449C93.0224 228.351 92.8275 228.231 92.6469 228.114C92.5757 228.068 92.3894 227.948 92.1752 227.795L92.1745 227.794C92.095 227.737 91.8147 227.537 91.4835 227.255C91.3462 227.138 90.939 226.789 90.4846 226.277C90.2442 225.997 89.6809 225.244 89.3739 224.762C88.9216 223.915 88.108 221.357 87.9582 219.632V219.629L87.9582 219.619L87.9582 219.582L87.9582 219.443L87.9581 218.912L87.9577 216.899L87.9565 209.536C87.9554 203.325 87.954 194.748 87.9525 185.244C87.9497 166.237 87.9468 143.521 87.9468 128.604V122.703L93.1128 119.85L151.602 87.5525L166.436 79.3611V96.3065V291.734L175.571 297.356L281.633 235.32L280.965 113.805ZM146.436 236.228V113.252L107.947 134.505C107.948 149.109 107.95 168.596 107.953 185.241C107.954 197.268 107.956 207.812 107.957 213.954C108.401 214.214 108.871 214.49 109.367 214.78C113.291 217.074 118.737 220.239 124.807 223.753C131.668 227.726 139.311 232.136 146.436 236.228Z"/>
</mask>
<path fill-rule="evenodd" clip-rule="evenodd" d="M180.443 32.8251L175.546 30L170.601 32.7392L54.1943 97.2139L49 100.091L49.0397 106.029L49.9534 242.57L49.9914 248.248L54.8877 251.125L113.365 285.48L123.496 268.236L69.915 236.757L69.079 111.833L175.346 52.974L184.472 58.2393L185.182 252.773L185.245 269.906L200.132 261.426L257.878 228.532L262.928 225.655V219.843V174.523V164.396H262.928V164.294V164.176V164.059V163.941V163.823V163.705V163.587V163.469V163.351V163.232V163.114V162.995V162.877V162.758V162.639V162.521V162.402V162.283V162.163V162.044V161.925V161.806V161.686V161.567V161.447V161.328V161.208V161.088V160.968V160.849V160.729V160.609V160.489V160.369V160.249V160.129V160.008V159.888V159.768V159.648V159.527V159.407V159.287V159.166V159.046V158.926V158.805V158.685V158.564V158.444V158.323V158.203V158.082V157.961V157.841V157.72V157.6V157.479V157.359V157.238V157.118V156.997V156.877V156.756V156.636V156.515V156.395V156.274V156.154V156.034V155.913V155.793V155.673V155.553V155.432V155.312V155.192V155.072V154.952V154.832V154.712V154.592V154.473V154.353V154.233V154.114V153.994V153.874V153.755V153.636V153.516V153.397V153.278V153.159V153.04V152.921V152.802V152.683V152.565V152.446V152.328V152.209V152.091V151.973V151.855V151.737V151.619V151.501V151.383V151.266V151.148V151.031V150.914V150.796V150.679V150.563V150.446V150.329V150.213V150.096V149.98V149.864V149.748V149.632V149.516V149.401V149.286V149.17V149.055V148.94V148.825V148.711V148.596V148.482V148.368V148.254V148.14V148.026V147.913V147.799V147.686V147.573V147.46V147.348V147.235V147.123V147.011V146.899V146.787V146.676V146.565V146.453V146.343V146.232V146.121V146.011V145.901V145.791V145.681V145.572V145.463V145.353V145.245V145.136V145.028V144.919V144.812V144.704V144.596V144.489V144.382V144.275V144.169V144.063V143.956V143.851V143.745V143.64V143.535V143.43V143.325V143.221V143.117V143.013V142.91V142.807V142.704V142.601V142.499V142.396V142.294V142.193V142.092V141.991V141.89V141.789V141.689V141.589V141.49V141.39V141.291V141.193V141.094V140.996V140.898V140.801V140.704V140.607V140.51V140.414V140.318V140.223V140.127V140.032V139.938V139.843V139.749V139.656V139.562V139.47V139.377V139.285V139.193V139.101V139.01V138.919V138.828V138.738V138.648V138.559V138.47V138.381V138.292V138.204V138.117V138.029V137.942V137.856V137.77V137.684V137.598V137.513V137.429V137.344V137.26V137.177V137.094V137.011V136.929V136.847V136.765V136.684V136.603V136.523V136.443V136.364V136.285V136.206V136.128V136.05V135.972V135.895V135.819V135.743V135.667V135.592V135.517V135.442V135.368V135.295V135.222V135.149V135.077V135.005V134.934V134.863V134.792V134.722V134.653V134.584V134.515V134.447V134.379V134.312V134.246V134.179V134.114V134.048V133.983V133.919V133.855V133.792V133.729V133.667V133.605V133.543V133.482V133.422V133.362V133.302V133.244V133.185V133.127V133.07V133.013V132.957V132.901V132.845V132.79V132.736V132.682V132.629V132.576V132.524V132.473V132.421V132.371V132.321V132.271V132.222V132.174V132.126V132.078V132.032V131.985V131.94V131.895V131.85V131.806V131.763V131.72V131.677V131.636V131.594V131.554V131.514V131.474V131.435V131.397V131.359V131.322V131.286V131.25V131.214V131.18V131.145V131.112V131.079V131.046V131.015V130.983V130.953V130.923V130.894V130.865V130.837V130.809V130.782V130.756V130.731V130.706V130.681V130.657V130.634V130.612V130.59V130.569V130.548V130.528V130.509V130.49V130.472V130.455V130.438V130.422V130.407V130.392V130.378V130.365V130.352V130.34V130.329V130.318V130.308V130.299V130.29V130.282V130.275V130.268V130.262V130.257V130.252V130.248V130.245V130.243V130.241C262.928 126.925 261.266 124.695 261.043 124.395L261.024 124.37C260.549 123.713 260.097 123.262 259.912 123.081C259.501 122.679 259.144 122.401 259.033 122.314C258.749 122.094 258.502 121.927 258.414 121.868C258.189 121.715 257.957 121.568 257.785 121.461C257.413 121.228 256.918 120.928 256.351 120.587C255.198 119.896 253.558 118.926 251.561 117.753C247.56 115.404 242.037 112.187 235.924 108.643C225.729 102.731 213.853 95.8835 204.59 90.5827L204.451 52.415L204.43 46.6637L199.448 43.7896L180.443 32.8251ZM204.675 113.691L204.862 165.131L242.928 164.649V164.646V164.529V164.411V164.294V164.176V164.059V163.941V163.823V163.705V163.587V163.469V163.351V163.232V163.114V162.995V162.877V162.758V162.639V162.521V162.402V162.283V162.163V162.044V161.925V161.806V161.686V161.567V161.447V161.328V161.208V161.088V160.968V160.849V160.729V160.609V160.489V160.369V160.249V160.129V160.008V159.888V159.768V159.648V159.527V159.407V159.287V159.166V159.046V158.926V158.805V158.685V158.564V158.444V158.323V158.203V158.082V157.961V157.841V157.72V157.6V157.479V157.359V157.238V157.118V156.997V156.877V156.756V156.636V156.515V156.395V156.274V156.154V156.034V155.913V155.793V155.673V155.553V155.432V155.312V155.192V155.072V154.952V154.832V154.712V154.592V154.473V154.353V154.233V154.114V153.994V153.874V153.755V153.636V153.516V153.397V153.278V153.159V153.04V152.921V152.802V152.683V152.565V152.446V152.328V152.209V152.091V151.973V151.855V151.737V151.619V151.501V151.383V151.266V151.148V151.031V150.914V150.796V150.679V150.563V150.446V150.329V150.213V150.096V149.98V149.864V149.748V149.632V149.516V149.401V149.286V149.17V149.055V148.94V148.825V148.711V148.596V148.482V148.368V148.254V148.14V148.026V147.913V147.799V147.686V147.573V147.46V147.348V147.235V147.123V147.011V146.899V146.787V146.676V146.565V146.453V146.343V146.232V146.121V146.011V145.901V145.791V145.681V145.572V145.463V145.353V145.245V145.136V145.028V144.919V144.812V144.704V144.596V144.489V144.382V144.275V144.169V144.063V143.956V143.851V143.745V143.64V143.535V143.43V143.325V143.221V143.117V143.013V142.91V142.807V142.704V142.601V142.499V142.396V142.294V142.193V142.092V141.991V141.89V141.789V141.689V141.589V141.49V141.39V141.291V141.193V141.094V140.996V140.898V140.801V140.704V140.607V140.51V140.414V140.318V140.223V140.127V140.032V139.938V139.843V139.749V139.656V139.562V139.47V139.377V139.285V139.193V139.101V139.01V138.919V138.828V138.738V138.648V138.559V138.47V138.381V138.292V138.204V138.117V138.029V137.942V137.856V137.77V137.684V137.598V137.513V137.429V137.344V137.26V137.177V137.094V137.011V136.929V136.847V136.765V136.684V136.603V136.523V136.443V136.364V136.285V136.206V136.128V136.05V135.972V135.895V135.878L242.279 135.497C242.007 135.336 241.725 135.17 241.434 135C237.479 132.677 231.992 129.482 225.891 125.944C219.135 122.027 211.644 117.7 204.675 113.691ZM205.119 235.567L204.935 185.131L242.928 184.65V214.031L205.119 235.567ZM280.965 113.805L227.471 83.0465L237.441 65.7084L295.918 99.3329L300.902 102.198L300.933 107.947L301.664 240.983L301.696 246.755L296.713 249.67L180.49 317.65L175.31 320.679L170.2 317.534L151.195 305.839L146.436 302.91V297.322V259.277C136.993 253.886 125.01 246.982 114.785 241.062C108.703 237.54 103.23 234.359 99.2725 232.045C97.2969 230.89 95.6834 229.942 94.5561 229.273C93.9983 228.941 93.5283 228.66 93.1838 228.449C93.0224 228.351 92.8275 228.231 92.6469 228.114C92.5757 228.068 92.3894 227.948 92.1752 227.795L92.1745 227.794C92.095 227.737 91.8147 227.537 91.4835 227.255C91.3462 227.138 90.939 226.789 90.4846 226.277C90.2442 225.997 89.6809 225.244 89.3739 224.762C88.9216 223.915 88.108 221.357 87.9582 219.632V219.629L87.9582 219.619L87.9582 219.582L87.9582 219.443L87.9581 218.912L87.9577 216.899L87.9565 209.536C87.9554 203.325 87.954 194.748 87.9525 185.244C87.9497 166.237 87.9468 143.521 87.9468 128.604V122.703L93.1128 119.85L151.602 87.5525L166.436 79.3611V96.3065V291.734L175.571 297.356L281.633 235.32L280.965 113.805ZM146.436 236.228V113.252L107.947 134.505C107.948 149.109 107.95 168.596 107.953 185.241C107.954 197.268 107.956 207.812 107.957 213.954C108.401 214.214 108.871 214.49 109.367 214.78C113.291 217.074 118.737 220.239 124.807 223.753C131.668 227.726 139.311 232.136 146.436 236.228Z" fill="white"/>
<path d="M175.546 30L177.045 27.4014L175.576 26.5539L174.093 27.3757L175.546 30ZM180.443 32.8251L181.942 30.2266L181.942 30.2266L180.443 32.8251ZM170.601 32.7392L172.054 35.3635L172.054 35.3635L170.601 32.7392ZM54.1943 97.2139L52.7408 94.5896L52.7408 94.5896L54.1943 97.2139ZM49 100.091L47.5464 97.4666L45.9881 98.3297L46.0001 100.111L49 100.091ZM49.0397 106.029L46.0398 106.049L46.0398 106.049L49.0397 106.029ZM49.9534 242.57L46.9535 242.59L46.9535 242.59L49.9534 242.57ZM49.9914 248.248L46.9915 248.269L47.0029 249.972L48.4718 250.835L49.9914 248.248ZM54.8877 251.125L53.3681 253.712L53.3681 253.712L54.8877 251.125ZM113.365 285.48L111.845 288.067L114.432 289.587L115.952 287L113.365 285.48ZM123.496 268.236L126.083 269.756L127.602 267.169L125.016 265.65L123.496 268.236ZM69.915 236.757L66.9151 236.777L66.9265 238.481L68.3953 239.344L69.915 236.757ZM69.079 111.833L67.6255 109.208L66.0672 110.071L66.0791 111.853L69.079 111.833ZM175.346 52.974L176.845 50.3754L175.376 49.5279L173.892 50.3497L175.346 52.974ZM184.472 58.2393L187.472 58.2283L187.466 56.503L185.971 55.6407L184.472 58.2393ZM185.182 252.773L182.182 252.784L182.182 252.784L185.182 252.773ZM185.245 269.906L182.245 269.916L182.263 275.056L186.73 272.512L185.245 269.906ZM200.132 261.426L198.647 258.819L198.647 258.819L200.132 261.426ZM257.878 228.532L259.363 231.139L259.363 231.139L257.878 228.532ZM262.928 225.655L264.413 228.262L265.928 227.399V225.655H262.928ZM262.928 164.396H265.928V161.396H262.928V164.396ZM262.928 164.396H259.928V167.396H262.928V164.396ZM261.043 124.395L258.632 126.18L258.637 126.187L261.043 124.395ZM261.024 124.37L258.595 126.13L258.604 126.142L258.613 126.155L261.024 124.37ZM259.912 123.081L257.814 125.226L257.815 125.226L259.912 123.081ZM259.033 122.314L257.193 124.684L257.193 124.684L259.033 122.314ZM258.414 121.868L260.094 119.382L260.094 119.382L258.414 121.868ZM257.785 121.461L259.376 118.918L259.376 118.918L257.785 121.461ZM256.351 120.587L257.894 118.015L257.894 118.015L256.351 120.587ZM251.561 117.753L250.042 120.34L250.042 120.34L251.561 117.753ZM235.924 108.643L234.419 111.238L234.419 111.238L235.924 108.643ZM204.59 90.5827L201.59 90.5936L201.597 92.326L203.1 93.1864L204.59 90.5827ZM204.451 52.415L201.451 52.426L201.451 52.426L204.451 52.415ZM204.43 46.6637L207.43 46.6528L207.424 44.9274L205.929 44.0652L204.43 46.6637ZM199.448 43.7896L197.949 46.3882L197.949 46.3882L199.448 43.7896ZM204.675 113.691L206.171 111.09L201.656 108.493L201.675 113.702L204.675 113.691ZM204.862 165.131L201.862 165.142L201.873 168.169L204.9 168.13L204.862 165.131ZM242.928 164.649L242.966 167.649L245.928 167.611V164.649H242.928ZM242.928 135.878H245.928V134.163L244.45 133.293L242.928 135.878ZM242.279 135.497L243.801 132.911L243.801 132.911L242.279 135.497ZM241.434 135L239.915 137.587L239.915 137.587L241.434 135ZM225.891 125.944L224.386 128.54L225.891 125.944ZM204.935 185.131L204.897 182.132L201.925 182.169L201.935 185.142L204.935 185.131ZM205.119 235.567L202.119 235.578L202.138 240.718L206.604 238.174L205.119 235.567ZM242.928 184.65H245.928V181.612L242.89 181.651L242.928 184.65ZM242.928 214.031L244.413 216.637L245.928 215.774V214.031H242.928ZM227.471 83.0465L224.871 81.5511L223.375 84.1518L225.976 85.6472L227.471 83.0465ZM280.965 113.805L283.965 113.789L283.956 112.064L282.461 111.205L280.965 113.805ZM237.441 65.7084L238.936 63.1077L236.336 61.6123L234.84 64.213L237.441 65.7084ZM295.918 99.3329L297.414 96.7322L297.414 96.7322L295.918 99.3329ZM300.902 102.198L303.902 102.182L303.892 100.457L302.397 99.5977L300.902 102.198ZM300.933 107.947L303.933 107.931L303.933 107.931L300.933 107.947ZM301.664 240.983L298.664 240.999L298.664 240.999L301.664 240.983ZM301.696 246.755L303.211 249.345L304.705 248.471L304.696 246.739L301.696 246.755ZM296.713 249.67L298.228 252.259L298.228 252.259L296.713 249.67ZM180.49 317.65L182.004 320.239L182.004 320.239L180.49 317.65ZM175.31 320.679L173.738 323.234L175.271 324.178L176.825 323.269L175.31 320.679ZM170.2 317.534L171.772 314.979L171.772 314.979L170.2 317.534ZM151.195 305.839L152.767 303.284L152.767 303.284L151.195 305.839ZM146.436 302.91H143.436V304.587L144.863 305.465L146.436 302.91ZM146.436 259.277H149.436V257.535L147.923 256.672L146.436 259.277ZM114.785 241.062L113.282 243.658L113.282 243.658L114.785 241.062ZM99.2725 232.045L97.7583 234.635L97.7583 234.635L99.2725 232.045ZM94.5561 229.273L93.0245 231.852L93.0245 231.852L94.5561 229.273ZM93.1838 228.449L91.6194 231.009L91.6195 231.009L93.1838 228.449ZM92.6469 228.114L94.2739 225.594L94.2737 225.593L92.6469 228.114ZM92.1752 227.795L90.3966 230.21L90.4141 230.223L90.4318 230.236L92.1752 227.795ZM92.1745 227.794L93.9531 225.378L93.9354 225.365L93.9174 225.352L92.1745 227.794ZM91.4835 227.255L89.5389 229.54L89.539 229.54L91.4835 227.255ZM90.4846 226.277L88.2057 228.229L88.2236 228.249L88.2419 228.27L90.4846 226.277ZM89.3739 224.762L86.7277 226.175L86.7818 226.277L86.8434 226.373L89.3739 224.762ZM87.9582 219.632H84.9582V219.762L84.9695 219.892L87.9582 219.632ZM87.9582 219.629L90.9582 219.629L90.9582 219.628L87.9582 219.629ZM87.9582 219.619L84.9582 219.619L84.9582 219.62L87.9582 219.619ZM87.9582 219.582L90.9582 219.582L90.9582 219.582L87.9582 219.582ZM87.9582 219.443L84.9582 219.444L84.9582 219.444L87.9582 219.443ZM87.9581 218.912L90.9581 218.912L90.9581 218.912L87.9581 218.912ZM87.9577 216.899L84.9577 216.899L84.9577 216.899L87.9577 216.899ZM87.9565 209.536L84.9565 209.536L84.9565 209.536L87.9565 209.536ZM87.9525 185.244L90.9525 185.244L87.9525 185.244ZM87.9468 122.703L86.4966 120.076L84.9468 120.932V122.703H87.9468ZM93.1128 119.85L91.6627 117.224L91.6627 117.224L93.1128 119.85ZM151.602 87.5525L150.151 84.9262L150.151 84.9262L151.602 87.5525ZM166.436 79.3611H169.436V74.2775L164.985 76.7349L166.436 79.3611ZM166.436 291.734H163.436V293.411L164.863 294.289L166.436 291.734ZM175.571 297.356L173.999 299.911L175.532 300.855L177.086 299.946L175.571 297.356ZM281.633 235.32L283.148 237.91L284.642 237.036L284.633 235.304L281.633 235.32ZM146.436 113.252H149.436V108.168L144.985 110.626L146.436 113.252ZM146.436 236.228L144.941 238.83L149.436 241.411V236.228H146.436ZM107.947 134.505L106.497 131.879L104.947 132.735L104.947 134.505L107.947 134.505ZM107.953 185.241L110.953 185.241L107.953 185.241ZM107.957 213.954L104.957 213.955L104.958 215.674L106.44 216.543L107.957 213.954ZM109.367 214.78L110.882 212.19L110.882 212.19L109.367 214.78ZM124.807 223.753L123.303 226.35L123.303 226.35L124.807 223.753ZM174.047 32.5986L178.944 35.4237L181.942 30.2266L177.045 27.4014L174.047 32.5986ZM172.054 35.3635L177 32.6243L174.093 27.3757L169.147 30.1149L172.054 35.3635ZM55.6479 99.8382L172.054 35.3635L169.147 30.1149L52.7408 94.5896L55.6479 99.8382ZM50.4536 102.715L55.6479 99.8382L52.7408 94.5896L47.5464 97.4666L50.4536 102.715ZM52.0397 106.009L51.9999 100.071L46.0001 100.111L46.0398 106.049L52.0397 106.009ZM52.9534 242.55L52.0397 106.009L46.0398 106.049L46.9535 242.59L52.9534 242.55ZM52.9914 248.228L52.9534 242.55L46.9535 242.59L46.9915 248.269L52.9914 248.228ZM56.4074 248.538L51.5111 245.662L48.4718 250.835L53.3681 253.712L56.4074 248.538ZM114.885 282.894L56.4074 248.538L53.3681 253.712L111.845 288.067L114.885 282.894ZM120.909 266.717L110.778 283.961L115.952 287L126.083 269.756L120.909 266.717ZM68.3953 239.344L121.976 270.823L125.016 265.65L71.4346 234.171L68.3953 239.344ZM66.0791 111.853L66.9151 236.777L72.9149 236.737L72.079 111.812L66.0791 111.853ZM173.892 50.3497L67.6255 109.208L70.5326 114.457L176.799 55.5983L173.892 50.3497ZM185.971 55.6407L176.845 50.3754L173.846 55.5726L182.973 60.8378L185.971 55.6407ZM188.182 252.762L187.472 58.2283L181.472 58.2502L182.182 252.784L188.182 252.762ZM188.245 269.895L188.182 252.762L182.182 252.784L182.245 269.916L188.245 269.895ZM198.647 258.819L183.76 267.299L186.73 272.512L201.616 264.032L198.647 258.819ZM256.393 225.925L198.647 258.819L201.616 264.032L259.363 231.139L256.393 225.925ZM261.444 223.049L256.393 225.925L259.363 231.139L264.413 228.262L261.444 223.049ZM259.928 219.843V225.655H265.928V219.843H259.928ZM259.928 174.523V219.843H265.928V174.523H259.928ZM259.928 164.396V174.523H265.928V164.396H259.928ZM262.928 167.396H262.928V161.396H262.928V167.396ZM265.928 164.396V164.294H259.928V164.396H265.928ZM265.928 164.294V164.176H259.928V164.294H265.928ZM265.928 164.176V164.059H259.928V164.176H265.928ZM265.928 164.059V163.941H259.928V164.059H265.928ZM265.928 163.941V163.823H259.928V163.941H265.928ZM265.928 163.823V163.705H259.928V163.823H265.928ZM265.928 163.705V163.587H259.928V163.705H265.928ZM265.928 163.587V163.469H259.928V163.587H265.928ZM265.928 163.469V163.351H259.928V163.469H265.928ZM265.928 163.351V163.232H259.928V163.351H265.928ZM265.928 163.232V163.114H259.928V163.232H265.928ZM265.928 163.114V162.995H259.928V163.114H265.928ZM265.928 162.995V162.877H259.928V162.995H265.928ZM265.928 162.877V162.758H259.928V162.877H265.928ZM265.928 162.758V162.639H259.928V162.758H265.928ZM265.928 162.639V162.521H259.928V162.639H265.928ZM265.928 162.521V162.402H259.928V162.521H265.928ZM265.928 162.402V162.283H259.928V162.402H265.928ZM265.928 162.283V162.163H259.928V162.283H265.928ZM265.928 162.163V162.044H259.928V162.163H265.928ZM265.928 162.044V161.925H259.928V162.044H265.928ZM265.928 161.925V161.806H259.928V161.925H265.928ZM265.928 161.806V161.686H259.928V161.806H265.928ZM265.928 161.686V161.567H259.928V161.686H265.928ZM265.928 161.567V161.447H259.928V161.567H265.928ZM265.928 161.447V161.328H259.928V161.447H265.928ZM265.928 161.328V161.208H259.928V161.328H265.928ZM265.928 161.208V161.088H259.928V161.208H265.928ZM265.928 161.088V160.968H259.928V161.088H265.928ZM265.928 160.968V160.849H259.928V160.968H265.928ZM265.928 160.849V160.729H259.928V160.849H265.928ZM265.928 160.729V160.609H259.928V160.729H265.928ZM265.928 160.609V160.489H259.928V160.609H265.928ZM265.928 160.489V160.369H259.928V160.489H265.928ZM265.928 160.369V160.249H259.928V160.369H265.928ZM265.928 160.249V160.129H259.928V160.249H265.928ZM265.928 160.129V160.008H259.928V160.129H265.928ZM265.928 160.008V159.888H259.928V160.008H265.928ZM265.928 159.888V159.768H259.928V159.888H265.928ZM265.928 159.768V159.648H259.928V159.768H265.928ZM265.928 159.648V159.527H259.928V159.648H265.928ZM265.928 159.527V159.407H259.928V159.527H265.928ZM265.928 159.407V159.287H259.928V159.407H265.928ZM265.928 159.287V159.166H259.928V159.287H265.928ZM265.928 159.166V159.046H259.928V159.166H265.928ZM265.928 159.046V158.926H259.928V159.046H265.928ZM265.928 158.926V158.805H259.928V158.926H265.928ZM265.928 158.805V158.685H259.928V158.805H265.928ZM265.928 158.685V158.564H259.928V158.685H265.928ZM265.928 158.564V158.444H259.928V158.564H265.928ZM265.928 158.444V158.323H259.928V158.444H265.928ZM265.928 158.323V158.203H259.928V158.323H265.928ZM265.928 158.203V158.082H259.928V158.203H265.928ZM265.928 158.082V157.961H259.928V158.082H265.928ZM265.928 157.961V157.841H259.928V157.961H265.928ZM265.928 157.841V157.72H259.928V157.841H265.928ZM265.928 157.72V157.6H259.928V157.72H265.928ZM265.928 157.6V157.479H259.928V157.6H265.928ZM265.928 157.479V157.359H259.928V157.479H265.928ZM265.928 157.359V157.238H259.928V157.359H265.928ZM265.928 157.238V157.118H259.928V157.238H265.928ZM265.928 157.118V156.997H259.928V157.118H265.928ZM265.928 156.997V156.877H259.928V156.997H265.928ZM265.928 156.877V156.756H259.928V156.877H265.928ZM265.928 156.756V156.636H259.928V156.756H265.928ZM265.928 156.636V156.515H259.928V156.636H265.928ZM265.928 156.515V156.395H259.928V156.515H265.928ZM265.928 156.395V156.274H259.928V156.395H265.928ZM265.928 156.274V156.154H259.928V156.274H265.928ZM265.928 156.154V156.034H259.928V156.154H265.928ZM265.928 156.034V155.913H259.928V156.034H265.928ZM265.928 155.913V155.793H259.928V155.913H265.928ZM265.928 155.793V155.673H259.928V155.793H265.928ZM265.928 155.673V155.553H259.928V155.673H265.928ZM265.928 155.553V155.432H259.928V155.553H265.928ZM265.928 155.432V155.312H259.928V155.432H265.928ZM265.928 155.312V155.192H259.928V155.312H265.928ZM265.928 155.192V155.072H259.928V155.192H265.928ZM265.928 155.072V154.952H259.928V155.072H265.928ZM265.928 154.952V154.832H259.928V154.952H265.928ZM265.928 154.832V154.712H259.928V154.832H265.928ZM265.928 154.712V154.592H259.928V154.712H265.928ZM265.928 154.592V154.473H259.928V154.592H265.928ZM265.928 154.473V154.353H259.928V154.473H265.928ZM265.928 154.353V154.233H259.928V154.353H265.928ZM265.928 154.233V154.114H259.928V154.233H265.928ZM265.928 154.114V153.994H259.928V154.114H265.928ZM265.928 153.994V153.874H259.928V153.994H265.928ZM265.928 153.874V153.755H259.928V153.874H265.928ZM265.928 153.755V153.636H259.928V153.755H265.928ZM265.928 153.636V153.516H259.928V153.636H265.928ZM265.928 153.516V153.397H259.928V153.516H265.928ZM265.928 153.397V153.278H259.928V153.397H265.928ZM265.928 153.278V153.159H259.928V153.278H265.928ZM265.928 153.159V153.04H259.928V153.159H265.928ZM265.928 153.04V152.921H259.928V153.04H265.928ZM265.928 152.921V152.802H259.928V152.921H265.928ZM265.928 152.802V152.683H259.928V152.802H265.928ZM265.928 152.683V152.565H259.928V152.683H265.928ZM265.928 152.565V152.446H259.928V152.565H265.928ZM265.928 152.446V152.328H259.928V152.446H265.928ZM265.928 152.328V152.209H259.928V152.328H265.928ZM265.928 152.209V152.091H259.928V152.209H265.928ZM265.928 152.091V151.973H259.928V152.091H265.928ZM265.928 151.973V151.855H259.928V151.973H265.928ZM265.928 151.855V151.737H259.928V151.855H265.928ZM265.928 151.737V151.619H259.928V151.737H265.928ZM265.928 151.619V151.501H259.928V151.619H265.928ZM265.928 151.501V151.383H259.928V151.501H265.928ZM265.928 151.383V151.266H259.928V151.383H265.928ZM265.928 151.266V151.148H259.928V151.266H265.928ZM265.928 151.148V151.031H259.928V151.148H265.928ZM265.928 151.031V150.914H259.928V151.031H265.928ZM265.928 150.914V150.796H259.928V150.914H265.928ZM265.928 150.796V150.679H259.928V150.796H265.928ZM265.928 150.679V150.563H259.928V150.679H265.928ZM265.928 150.563V150.446H259.928V150.563H265.928ZM265.928 150.446V150.329H259.928V150.446H265.928ZM265.928 150.329V150.213H259.928V150.329H265.928ZM265.928 150.213V150.096H259.928V150.213H265.928ZM265.928 150.096V149.98H259.928V150.096H265.928ZM265.928 149.98V149.864H259.928V149.98H265.928ZM265.928 149.864V149.748H259.928V149.864H265.928ZM265.928 149.748V149.632H259.928V149.748H265.928ZM265.928 149.632V149.516H259.928V149.632H265.928ZM265.928 149.516V149.401H259.928V149.516H265.928ZM265.928 149.401V149.286H259.928V149.401H265.928ZM265.928 149.286V149.17H259.928V149.286H265.928ZM265.928 149.17V149.055H259.928V149.17H265.928ZM265.928 149.055V148.94H259.928V149.055H265.928ZM265.928 148.94V148.825H259.928V148.94H265.928ZM265.928 148.825V148.711H259.928V148.825H265.928ZM265.928 148.711V148.596H259.928V148.711H265.928ZM265.928 148.596V148.482H259.928V148.596H265.928ZM265.928 148.482V148.368H259.928V148.482H265.928ZM265.928 148.368V148.254H259.928V148.368H265.928ZM265.928 148.254V148.14H259.928V148.254H265.928ZM265.928 148.14V148.026H259.928V148.14H265.928ZM265.928 148.026V147.913H259.928V148.026H265.928ZM265.928 147.913V147.799H259.928V147.913H265.928ZM265.928 147.799V147.686H259.928V147.799H265.928ZM265.928 147.686V147.573H259.928V147.686H265.928ZM265.928 147.573V147.46H259.928V147.573H265.928ZM265.928 147.46V147.348H259.928V147.46H265.928ZM265.928 147.348V147.235H259.928V147.348H265.928ZM265.928 147.235V147.123H259.928V147.235H265.928ZM265.928 147.123V147.011H259.928V147.123H265.928ZM265.928 147.011V146.899H259.928V147.011H265.928ZM265.928 146.899V146.787H259.928V146.899H265.928ZM265.928 146.787V146.676H259.928V146.787H265.928ZM265.928 146.676V146.565H259.928V146.676H265.928ZM265.928 146.565V146.453H259.928V146.565H265.928ZM265.928 146.453V146.343H259.928V146.453H265.928ZM265.928 146.343V146.232H259.928V146.343H265.928ZM265.928 146.232V146.121H259.928V146.232H265.928ZM265.928 146.121V146.011H259.928V146.121H265.928ZM265.928 146.011V145.901H259.928V146.011H265.928ZM265.928 145.901V145.791H259.928V145.901H265.928ZM265.928 145.791V145.681H259.928V145.791H265.928ZM265.928 145.681V145.572H259.928V145.681H265.928ZM265.928 145.572V145.463H259.928V145.572H265.928ZM265.928 145.463V145.353H259.928V145.463H265.928ZM265.928 145.353V145.245H259.928V145.353H265.928ZM265.928 145.245V145.136H259.928V145.245H265.928ZM265.928 145.136V145.028H259.928V145.136H265.928ZM265.928 145.028V144.919H259.928V145.028H265.928ZM265.928 144.919V144.812H259.928V144.919H265.928ZM265.928 144.812V144.704H259.928V144.812H265.928ZM265.928 144.704V144.596H259.928V144.704H265.928ZM265.928 144.596V144.489H259.928V144.596H265.928ZM265.928 144.489V144.382H259.928V144.489H265.928ZM265.928 144.382V144.275H259.928V144.382H265.928ZM265.928 144.275V144.169H259.928V144.275H265.928ZM265.928 144.169V144.063H259.928V144.169H265.928ZM265.928 144.063V143.956H259.928V144.063H265.928ZM265.928 143.956V143.851H259.928V143.956H265.928ZM265.928 143.851V143.745H259.928V143.851H265.928ZM265.928 143.745V143.64H259.928V143.745H265.928ZM265.928 143.64V143.535H259.928V143.64H265.928ZM265.928 143.535V143.43H259.928V143.535H265.928ZM265.928 143.43V143.325H259.928V143.43H265.928ZM265.928 143.325V143.221H259.928V143.325H265.928ZM265.928 143.221V143.117H259.928V143.221H265.928ZM265.928 143.117V143.013H259.928V143.117H265.928ZM265.928 143.013V142.91H259.928V143.013H265.928ZM265.928 142.91V142.807H259.928V142.91H265.928ZM265.928 142.807V142.704H259.928V142.807H265.928ZM265.928 142.704V142.601H259.928V142.704H265.928ZM265.928 142.601V142.499H259.928V142.601H265.928ZM265.928 142.499V142.396H259.928V142.499H265.928ZM265.928 142.396V142.294H259.928V142.396H265.928ZM265.928 142.294V142.193H259.928V142.294H265.928ZM265.928 142.193V142.092H259.928V142.193H265.928ZM265.928 142.092V141.991H259.928V142.092H265.928ZM265.928 141.991V141.89H259.928V141.991H265.928ZM265.928 141.89V141.789H259.928V141.89H265.928ZM265.928 141.789V141.689H259.928V141.789H265.928ZM265.928 141.689V141.589H259.928V141.689H265.928ZM265.928 141.589V141.49H259.928V141.589H265.928ZM265.928 141.49V141.39H259.928V141.49H265.928ZM265.928 141.39V141.291H259.928V141.39H265.928ZM265.928 141.291V141.193H259.928V141.291H265.928ZM265.928 141.193V141.094H259.928V141.193H265.928ZM265.928 141.094V140.996H259.928V141.094H265.928ZM265.928 140.996V140.898H259.928V140.996H265.928ZM265.928 140.898V140.801H259.928V140.898H265.928ZM265.928 140.801V140.704H259.928V140.801H265.928ZM265.928 140.704V140.607H259.928V140.704H265.928ZM265.928 140.607V140.51H259.928V140.607H265.928ZM265.928 140.51V140.414H259.928V140.51H265.928ZM265.928 140.414V140.318H259.928V140.414H265.928ZM265.928 140.318V140.223H259.928V140.318H265.928ZM265.928 140.223V140.127H259.928V140.223H265.928ZM265.928 140.127V140.032H259.928V140.127H265.928ZM265.928 140.032V139.938H259.928V140.032H265.928ZM265.928 139.938V139.843H259.928V139.938H265.928ZM265.928 139.843V139.749H259.928V139.843H265.928ZM265.928 139.749V139.656H259.928V139.749H265.928ZM265.928 139.656V139.562H259.928V139.656H265.928ZM265.928 139.562V139.47H259.928V139.562H265.928ZM265.928 139.47V139.377H259.928V139.47H265.928ZM265.928 139.377V139.285H259.928V139.377H265.928ZM265.928 139.285V139.193H259.928V139.285H265.928ZM265.928 139.193V139.101H259.928V139.193H265.928ZM265.928 139.101V139.01H259.928V139.101H265.928ZM265.928 139.01V138.919H259.928V139.01H265.928ZM265.928 138.919V138.828H259.928V138.919H265.928ZM265.928 138.828V138.738H259.928V138.828H265.928ZM265.928 138.738V138.648H259.928V138.738H265.928ZM265.928 138.648V138.559H259.928V138.648H265.928ZM265.928 138.559V138.47H259.928V138.559H265.928ZM265.928 138.47V138.381H259.928V138.47H265.928ZM265.928 138.381V138.292H259.928V138.381H265.928ZM265.928 138.292V138.204H259.928V138.292H265.928ZM265.928 138.204V138.117H259.928V138.204H265.928ZM265.928 138.117V138.029H259.928V138.117H265.928ZM265.928 138.029V137.942H259.928V138.029H265.928ZM265.928 137.942V137.856H259.928V137.942H265.928ZM265.928 137.856V137.77H259.928V137.856H265.928ZM265.928 137.77V137.684H259.928V137.77H265.928ZM265.928 137.684V137.598H259.928V137.684H265.928ZM265.928 137.598V137.513H259.928V137.598H265.928ZM265.928 137.513V137.429H259.928V137.513H265.928ZM265.928 137.429V137.344H259.928V137.429H265.928ZM265.928 137.344V137.26H259.928V137.344H265.928ZM265.928 137.26V137.177H259.928V137.26H265.928ZM265.928 137.177V137.094H259.928V137.177H265.928ZM265.928 137.094V137.011H259.928V137.094H265.928ZM265.928 137.011V136.929H259.928V137.011H265.928ZM265.928 136.929V136.847H259.928V136.929H265.928ZM265.928 136.847V136.765H259.928V136.847H265.928ZM265.928 136.765V136.684H259.928V136.765H265.928ZM265.928 136.684V136.603H259.928V136.684H265.928ZM265.928 136.603V136.523H259.928V136.603H265.928ZM265.928 136.523V136.443H259.928V136.523H265.928ZM265.928 136.443V136.364H259.928V136.443H265.928ZM265.928 136.364V136.285H259.928V136.364H265.928ZM265.928 136.285V136.206H259.928V136.285H265.928ZM265.928 136.206V136.128H259.928V136.206H265.928ZM265.928 136.128V136.05H259.928V136.128H265.928ZM265.928 136.05V135.972H259.928V136.05H265.928ZM265.928 135.972V135.895H259.928V135.972H265.928ZM265.928 135.895V135.819H259.928V135.895H265.928ZM265.928 135.819V135.743H259.928V135.819H265.928ZM265.928 135.743V135.667H259.928V135.743H265.928ZM265.928 135.667V135.592H259.928V135.667H265.928ZM265.928 135.592V135.517H259.928V135.592H265.928ZM265.928 135.517V135.442H259.928V135.517H265.928ZM265.928 135.442V135.368H259.928V135.442H265.928ZM265.928 135.368V135.295H259.928V135.368H265.928ZM265.928 135.295V135.222H259.928V135.295H265.928ZM265.928 135.222V135.149H259.928V135.222H265.928ZM265.928 135.149V135.077H259.928V135.149H265.928ZM265.928 135.077V135.005H259.928V135.077H265.928ZM265.928 135.005V134.934H259.928V135.005H265.928ZM265.928 134.934V134.863H259.928V134.934H265.928ZM265.928 134.863V134.792H259.928V134.863H265.928ZM265.928 134.792V134.722H259.928V134.792H265.928ZM265.928 134.722V134.653H259.928V134.722H265.928ZM265.928 134.653V134.584H259.928V134.653H265.928ZM265.928 134.584V134.515H259.928V134.584H265.928ZM265.928 134.515V134.447H259.928V134.515H265.928ZM265.928 134.447V134.379H259.928V134.447H265.928ZM265.928 134.379V134.312H259.928V134.379H265.928ZM265.928 134.312V134.246H259.928V134.312H265.928ZM265.928 134.246V134.179H259.928V134.246H265.928ZM265.928 134.179V134.114H259.928V134.179H265.928ZM265.928 134.114V134.048H259.928V134.114H265.928ZM265.928 134.048V133.983H259.928V134.048H265.928ZM265.928 133.983V133.919H259.928V133.983H265.928ZM265.928 133.919V133.855H259.928V133.919H265.928ZM265.928 133.855V133.792H259.928V133.855H265.928ZM265.928 133.792V133.729H259.928V133.792H265.928ZM265.928 133.729V133.667H259.928V133.729H265.928ZM265.928 133.667V133.605H259.928V133.667H265.928ZM265.928 133.605V133.543H259.928V133.605H265.928ZM265.928 133.543V133.482H259.928V133.543H265.928ZM265.928 133.482V133.422H259.928V133.482H265.928ZM265.928 133.422V133.362H259.928V133.422H265.928ZM265.928 133.362V133.302H259.928V133.362H265.928ZM265.928 133.302V133.244H259.928V133.302H265.928ZM265.928 133.244V133.185H259.928V133.244H265.928ZM265.928 133.185V133.127H259.928V133.185H265.928ZM265.928 133.127V133.07H259.928V133.127H265.928ZM265.928 133.07V133.013H259.928V133.07H265.928ZM265.928 133.013V132.957H259.928V133.013H265.928ZM265.928 132.957V132.901H259.928V132.957H265.928ZM265.928 132.901V132.845H259.928V132.901H265.928ZM265.928 132.845V132.79H259.928V132.845H265.928ZM265.928 132.79V132.736H259.928V132.79H265.928ZM265.928 132.736V132.682H259.928V132.736H265.928ZM265.928 132.682V132.629H259.928V132.682H265.928ZM265.928 132.629V132.576H259.928V132.629H265.928ZM265.928 132.576V132.524H259.928V132.576H265.928ZM265.928 132.524V132.473H259.928V132.524H265.928ZM265.928 132.473V132.421H259.928V132.473H265.928ZM265.928 132.421V132.371H259.928V132.421H265.928ZM265.928 132.371V132.321H259.928V132.371H265.928ZM265.928 132.321V132.271H259.928V132.321H265.928ZM265.928 132.271V132.222H259.928V132.271H265.928ZM265.928 132.222V132.174H259.928V132.222H265.928ZM265.928 132.174V132.126H259.928V132.174H265.928ZM265.928 132.126V132.078H259.928V132.126H265.928ZM265.928 132.078V132.032H259.928V132.078H265.928ZM265.928 132.032V131.985H259.928V132.032H265.928ZM265.928 131.985V131.94H259.928V131.985H265.928ZM265.928 131.94V131.895H259.928V131.94H265.928ZM265.928 131.895V131.85H259.928V131.895H265.928ZM265.928 131.85V131.806H259.928V131.85H265.928ZM265.928 131.806V131.763H259.928V131.806H265.928ZM265.928 131.763V131.72H259.928V131.763H265.928ZM265.928 131.72V131.677H259.928V131.72H265.928ZM265.928 131.677V131.636H259.928V131.677H265.928ZM265.928 131.636V131.594H259.928V131.636H265.928ZM265.928 131.594V131.554H259.928V131.594H265.928ZM265.928 131.554V131.514H259.928V131.554H265.928ZM265.928 131.514V131.474H259.928V131.514H265.928ZM265.928 131.474V131.435H259.928V131.474H265.928ZM265.928 131.435V131.397H259.928V131.435H265.928ZM265.928 131.397V131.359H259.928V131.397H265.928ZM265.928 131.359V131.322H259.928V131.359H265.928ZM265.928 131.322V131.286H259.928V131.322H265.928ZM265.928 131.286V131.25H259.928V131.286H265.928ZM265.928 131.25V131.214H259.928V131.25H265.928ZM265.928 131.214V131.18H259.928V131.214H265.928ZM265.928 131.18V131.145H259.928V131.18H265.928ZM265.928 131.145V131.112H259.928V131.145H265.928ZM265.928 131.112V131.079H259.928V131.112H265.928ZM265.928 131.079V131.046H259.928V131.079H265.928ZM265.928 131.046V131.015H259.928V131.046H265.928ZM265.928 131.015V130.983H259.928V131.015H265.928ZM265.928 130.983V130.953H259.928V130.983H265.928ZM265.928 130.953V130.923H259.928V130.953H265.928ZM265.928 130.923V130.894H259.928V130.923H265.928ZM265.928 130.894V130.865H259.928V130.894H265.928ZM265.928 130.865V130.837H259.928V130.865H265.928ZM265.928 130.837V130.809H259.928V130.837H265.928ZM265.928 130.809V130.782H259.928V130.809H265.928ZM265.928 130.782V130.756H259.928V130.782H265.928ZM265.928 130.756V130.731H259.928V130.756H265.928ZM265.928 130.731V130.706H259.928V130.731H265.928ZM265.928 130.706V130.681H259.928V130.706H265.928ZM265.928 130.681V130.657H259.928V130.681H265.928ZM265.928 130.657V130.634H259.928V130.657H265.928ZM265.928 130.634V130.612H259.928V130.634H265.928ZM265.928 130.612V130.59H259.928V130.612H265.928ZM265.928 130.59V130.569H259.928V130.59H265.928ZM265.928 130.569V130.548H259.928V130.569H265.928ZM265.928 130.548V130.528H259.928V130.548H265.928ZM265.928 130.528V130.509H259.928V130.528H265.928ZM265.928 130.509V130.49H259.928V130.509H265.928ZM265.928 130.49V130.472H259.928V130.49H265.928ZM265.928 130.472V130.455H259.928V130.472H265.928ZM265.928 130.455V130.438H259.928V130.455H265.928ZM265.928 130.438V130.422H259.928V130.438H265.928ZM265.928 130.422V130.407H259.928V130.422H265.928ZM265.928 130.407V130.392H259.928V130.407H265.928ZM265.928 130.392V130.378H259.928V130.392H265.928ZM265.928 130.378V130.365H259.928V130.378H265.928ZM265.928 130.365V130.352H259.928V130.365H265.928ZM265.928 130.352V130.34H259.928V130.352H265.928ZM265.928 130.34V130.329H259.928V130.34H265.928ZM265.928 130.329V130.318H259.928V130.329H265.928ZM265.928 130.318V130.308H259.928V130.318H265.928ZM265.928 130.308V130.299H259.928V130.308H265.928ZM265.928 130.299V130.29H259.928V130.299H265.928ZM265.928 130.29V130.282H259.928V130.29H265.928ZM265.928 130.282V130.275H259.928V130.282H265.928ZM265.928 130.275V130.268H259.928V130.275H265.928ZM265.928 130.268V130.262H259.928V130.268H265.928ZM265.928 130.262V130.257H259.928V130.262H265.928ZM265.928 130.257V130.252H259.928V130.257H265.928ZM265.928 130.252V130.248H259.928V130.252H265.928ZM265.928 130.248V130.245H259.928V130.248H265.928ZM265.928 130.245V130.243H259.928V130.245H265.928ZM265.928 130.243V130.241H259.928V130.243H265.928ZM265.928 130.241C265.928 125.94 263.789 123.06 263.448 122.602L258.637 126.187C258.743 126.33 259.928 127.909 259.928 130.241H265.928ZM263.454 122.61L263.435 122.585L258.613 126.155L258.632 126.18L263.454 122.61ZM263.454 122.61C262.837 121.758 262.252 121.173 262.009 120.936L257.815 125.226C257.943 125.352 258.261 125.669 258.595 126.13L263.454 122.61ZM262.009 120.936C261.478 120.416 261.017 120.057 260.872 119.945L257.193 124.684C257.271 124.745 257.524 124.942 257.814 125.226L262.009 120.936ZM260.873 119.945C260.51 119.663 260.199 119.453 260.094 119.382L256.734 124.353C256.806 124.401 256.987 124.525 257.193 124.684L260.873 119.945ZM260.094 119.382C259.824 119.199 259.556 119.03 259.376 118.918L256.195 124.005C256.358 124.107 256.554 124.231 256.734 124.353L260.094 119.382ZM259.376 118.918C258.98 118.67 258.466 118.358 257.894 118.015L254.807 123.16C255.371 123.498 255.846 123.787 256.195 124.005L259.376 118.918ZM257.894 118.015C256.729 117.316 255.079 116.34 253.08 115.166L250.042 120.34C252.036 121.511 253.667 122.476 254.807 123.16L257.894 118.015ZM253.08 115.166C249.072 112.813 243.543 109.593 237.429 106.047L234.419 111.238C240.53 114.781 246.048 117.995 250.042 120.34L253.08 115.166ZM237.429 106.047C227.23 100.134 215.349 93.2831 206.08 87.9789L203.1 93.1864C212.357 98.4839 224.228 105.329 234.419 111.238L237.429 106.047ZM201.451 52.426L201.59 90.5936L207.59 90.5717L207.451 52.4041L201.451 52.426ZM201.43 46.6747L201.451 52.426L207.451 52.4041L207.43 46.6528L201.43 46.6747ZM197.949 46.3882L202.931 49.2623L205.929 44.0652L200.947 41.1911L197.949 46.3882ZM178.944 35.4237L197.949 46.3882L200.947 41.1911L181.942 30.2266L178.944 35.4237ZM201.675 113.702L201.862 165.142L207.862 165.12L207.675 113.68L201.675 113.702ZM204.9 168.13L242.966 167.649L242.89 161.649L204.824 162.131L204.9 168.13ZM239.928 164.646V164.649H245.928V164.646H239.928ZM239.928 164.529V164.646H245.928V164.529H239.928ZM239.928 164.411V164.529H245.928V164.411H239.928ZM239.928 164.294V164.411H245.928V164.294H239.928ZM239.928 164.176V164.294H245.928V164.176H239.928ZM239.928 164.059V164.176H245.928V164.059H239.928ZM239.928 163.941V164.059H245.928V163.941H239.928ZM239.928 163.823V163.941H245.928V163.823H239.928ZM239.928 163.705V163.823H245.928V163.705H239.928ZM239.928 163.587V163.705H245.928V163.587H239.928ZM239.928 163.469V163.587H245.928V163.469H239.928ZM239.928 163.351V163.469H245.928V163.351H239.928ZM239.928 163.232V163.351H245.928V163.232H239.928ZM239.928 163.114V163.232H245.928V163.114H239.928ZM239.928 162.995V163.114H245.928V162.995H239.928ZM239.928 162.877V162.995H245.928V162.877H239.928ZM239.928 162.758V162.877H245.928V162.758H239.928ZM239.928 162.639V162.758H245.928V162.639H239.928ZM239.928 162.521V162.639H245.928V162.521H239.928ZM239.928 162.402V162.521H245.928V162.402H239.928ZM239.928 162.283V162.402H245.928V162.283H239.928ZM239.928 162.163V162.283H245.928V162.163H239.928ZM239.928 162.044V162.163H245.928V162.044H239.928ZM239.928 161.925V162.044H245.928V161.925H239.928ZM239.928 161.806V161.925H245.928V161.806H239.928ZM239.928 161.686V161.806H245.928V161.686H239.928ZM239.928 161.567V161.686H245.928V161.567H239.928ZM239.928 161.447V161.567H245.928V161.447H239.928ZM239.928 161.328V161.447H245.928V161.328H239.928ZM239.928 161.208V161.328H245.928V161.208H239.928ZM239.928 161.088V161.208H245.928V161.088H239.928ZM239.928 160.968V161.088H245.928V160.968H239.928ZM239.928 160.849V160.968H245.928V160.849H239.928ZM239.928 160.729V160.849H245.928V160.729H239.928ZM239.928 160.609V160.729H245.928V160.609H239.928ZM239.928 160.489V160.609H245.928V160.489H239.928ZM239.928 160.369V160.489H245.928V160.369H239.928ZM239.928 160.249V160.369H245.928V160.249H239.928ZM239.928 160.129V160.249H245.928V160.129H239.928ZM239.928 160.008V160.129H245.928V160.008H239.928ZM239.928 159.888V160.008H245.928V159.888H239.928ZM239.928 159.768V159.888H245.928V159.768H239.928ZM239.928 159.648V159.768H245.928V159.648H239.928ZM239.928 159.527V159.648H245.928V159.527H239.928ZM239.928 159.407V159.527H245.928V159.407H239.928ZM239.928 159.287V159.407H245.928V159.287H239.928ZM239.928 159.166V159.287H245.928V159.166H239.928ZM239.928 159.046V159.166H245.928V159.046H239.928ZM239.928 158.926V159.046H245.928V158.926H239.928ZM239.928 158.805V158.926H245.928V158.805H239.928ZM239.928 158.685V158.805H245.928V158.685H239.928ZM239.928 158.564V158.685H245.928V158.564H239.928ZM239.928 158.444V158.564H245.928V158.444H239.928ZM239.928 158.323V158.444H245.928V158.323H239.928ZM239.928 158.203V158.323H245.928V158.203H239.928ZM239.928 158.082V158.203H245.928V158.082H239.928ZM239.928 157.961V158.082H245.928V157.961H239.928ZM239.928 157.841V157.961H245.928V157.841H239.928ZM239.928 157.72V157.841H245.928V157.72H239.928ZM239.928 157.6V157.72H245.928V157.6H239.928ZM239.928 157.479V157.6H245.928V157.479H239.928ZM239.928 157.359V157.479H245.928V157.359H239.928ZM239.928 157.238V157.359H245.928V157.238H239.928ZM239.928 157.118V157.238H245.928V157.118H239.928ZM239.928 156.997V157.118H245.928V156.997H239.928ZM239.928 156.877V156.997H245.928V156.877H239.928ZM239.928 156.756V156.877H245.928V156.756H239.928ZM239.928 156.636V156.756H245.928V156.636H239.928ZM239.928 156.515V156.636H245.928V156.515H239.928ZM239.928 156.395V156.515H245.928V156.395H239.928ZM239.928 156.274V156.395H245.928V156.274H239.928ZM239.928 156.154V156.274H245.928V156.154H239.928ZM239.928 156.034V156.154H245.928V156.034H239.928ZM239.928 155.913V156.034H245.928V155.913H239.928ZM239.928 155.793V155.913H245.928V155.793H239.928ZM239.928 155.673V155.793H245.928V155.673H239.928ZM239.928 155.553V155.673H245.928V155.553H239.928ZM239.928 155.432V155.553H245.928V155.432H239.928ZM239.928 155.312V155.432H245.928V155.312H239.928ZM239.928 155.192V155.312H245.928V155.192H239.928ZM239.928 155.072V155.192H245.928V155.072H239.928ZM239.928 154.952V155.072H245.928V154.952H239.928ZM239.928 154.832V154.952H245.928V154.832H239.928ZM239.928 154.712V154.832H245.928V154.712H239.928ZM239.928 154.592V154.712H245.928V154.592H239.928ZM239.928 154.473V154.592H245.928V154.473H239.928ZM239.928 154.353V154.473H245.928V154.353H239.928ZM239.928 154.233V154.353H245.928V154.233H239.928ZM239.928 154.114V154.233H245.928V154.114H239.928ZM239.928 153.994V154.114H245.928V153.994H239.928ZM239.928 153.874V153.994H245.928V153.874H239.928ZM239.928 153.755V153.874H245.928V153.755H239.928ZM239.928 153.636V153.755H245.928V153.636H239.928ZM239.928 153.516V153.636H245.928V153.516H239.928ZM239.928 153.397V153.516H245.928V153.397H239.928ZM239.928 153.278V153.397H245.928V153.278H239.928ZM239.928 153.159V153.278H245.928V153.159H239.928ZM239.928 153.04V153.159H245.928V153.04H239.928ZM239.928 152.921V153.04H245.928V152.921H239.928ZM239.928 152.802V152.921H245.928V152.802H239.928ZM239.928 152.683V152.802H245.928V152.683H239.928ZM239.928 152.565V152.683H245.928V152.565H239.928ZM239.928 152.446V152.565H245.928V152.446H239.928ZM239.928 152.328V152.446H245.928V152.328H239.928ZM239.928 152.209V152.328H245.928V152.209H239.928ZM239.928 152.091V152.209H245.928V152.091H239.928ZM239.928 151.973V152.091H245.928V151.973H239.928ZM239.928 151.855V151.973H245.928V151.855H239.928ZM239.928 151.737V151.855H245.928V151.737H239.928ZM239.928 151.619V151.737H245.928V151.619H239.928ZM239.928 151.501V151.619H245.928V151.501H239.928ZM239.928 151.383V151.501H245.928V151.383H239.928ZM239.928 151.266V151.383H245.928V151.266H239.928ZM239.928 151.148V151.266H245.928V151.148H239.928ZM239.928 151.031V151.148H245.928V151.031H239.928ZM239.928 150.914V151.031H245.928V150.914H239.928ZM239.928 150.796V150.914H245.928V150.796H239.928ZM239.928 150.679V150.796H245.928V150.679H239.928ZM239.928 150.563V150.679H245.928V150.563H239.928ZM239.928 150.446V150.563H245.928V150.446H239.928ZM239.928 150.329V150.446H245.928V150.329H239.928ZM239.928 150.213V150.329H245.928V150.213H239.928ZM239.928 150.096V150.213H245.928V150.096H239.928ZM239.928 149.98V150.096H245.928V149.98H239.928ZM239.928 149.864V149.98H245.928V149.864H239.928ZM239.928 149.748V149.864H245.928V149.748H239.928ZM239.928 149.632V149.748H245.928V149.632H239.928ZM239.928 149.516V149.632H245.928V149.516H239.928ZM239.928 149.401V149.516H245.928V149.401H239.928ZM239.928 149.286V149.401H245.928V149.286H239.928ZM239.928 149.17V149.286H245.928V149.17H239.928ZM239.928 149.055V149.17H245.928V149.055H239.928ZM239.928 148.94V149.055H245.928V148.94H239.928ZM239.928 148.825V148.94H245.928V148.825H239.928ZM239.928 148.711V148.825H245.928V148.711H239.928ZM239.928 148.596V148.711H245.928V148.596H239.928ZM239.928 148.482V148.596H245.928V148.482H239.928ZM239.928 148.368V148.482H245.928V148.368H239.928ZM239.928 148.254V148.368H245.928V148.254H239.928ZM239.928 148.14V148.254H245.928V148.14H239.928ZM239.928 148.026V148.14H245.928V148.026H239.928ZM239.928 147.913V148.026H245.928V147.913H239.928ZM239.928 147.799V147.913H245.928V147.799H239.928ZM239.928 147.686V147.799H245.928V147.686H239.928ZM239.928 147.573V147.686H245.928V147.573H239.928ZM239.928 147.46V147.573H245.928V147.46H239.928ZM239.928 147.348V147.46H245.928V147.348H239.928ZM239.928 147.235V147.348H245.928V147.235H239.928ZM239.928 147.123V147.235H245.928V147.123H239.928ZM239.928 147.011V147.123H245.928V147.011H239.928ZM239.928 146.899V147.011H245.928V146.899H239.928ZM239.928 146.787V146.899H245.928V146.787H239.928ZM239.928 146.676V146.787H245.928V146.676H239.928ZM239.928 146.565V146.676H245.928V146.565H239.928ZM239.928 146.453V146.565H245.928V146.453H239.928ZM239.928 146.343V146.453H245.928V146.343H239.928ZM239.928 146.232V146.343H245.928V146.232H239.928ZM239.928 146.121V146.232H245.928V146.121H239.928ZM239.928 146.011V146.121H245.928V146.011H239.928ZM239.928 145.901V146.011H245.928V145.901H239.928ZM239.928 145.791V145.901H245.928V145.791H239.928ZM239.928 145.681V145.791H245.928V145.681H239.928ZM239.928 145.572V145.681H245.928V145.572H239.928ZM239.928 145.463V145.572H245.928V145.463H239.928ZM239.928 145.353V145.463H245.928V145.353H239.928ZM239.928 145.245V145.353H245.928V145.245H239.928ZM239.928 145.136V145.245H245.928V145.136H239.928ZM239.928 145.028V145.136H245.928V145.028H239.928ZM239.928 144.919V145.028H245.928V144.919H239.928ZM239.928 144.812V144.919H245.928V144.812H239.928ZM239.928 144.704V144.812H245.928V144.704H239.928ZM239.928 144.596V144.704H245.928V144.596H239.928ZM239.928 144.489V144.596H245.928V144.489H239.928ZM239.928 144.382V144.489H245.928V144.382H239.928ZM239.928 144.275V144.382H245.928V144.275H239.928ZM239.928 144.169V144.275H245.928V144.169H239.928ZM239.928 144.063V144.169H245.928V144.063H239.928ZM239.928 143.956V144.063H245.928V143.956H239.928ZM239.928 143.851V143.956H245.928V143.851H239.928ZM239.928 143.745V143.851H245.928V143.745H239.928ZM239.928 143.64V143.745H245.928V143.64H239.928ZM239.928 143.535V143.64H245.928V143.535H239.928ZM239.928 143.43V143.535H245.928V143.43H239.928ZM239.928 143.325V143.43H245.928V143.325H239.928ZM239.928 143.221V143.325H245.928V143.221H239.928ZM239.928 143.117V143.221H245.928V143.117H239.928ZM239.928 143.013V143.117H245.928V143.013H239.928ZM239.928 142.91V143.013H245.928V142.91H239.928ZM239.928 142.807V142.91H245.928V142.807H239.928ZM239.928 142.704V142.807H245.928V142.704H239.928ZM239.928 142.601V142.704H245.928V142.601H239.928ZM239.928 142.499V142.601H245.928V142.499H239.928ZM239.928 142.396V142.499H245.928V142.396H239.928ZM239.928 142.294V142.396H245.928V142.294H239.928ZM239.928 142.193V142.294H245.928V142.193H239.928ZM239.928 142.092V142.193H245.928V142.092H239.928ZM239.928 141.991V142.092H245.928V141.991H239.928ZM239.928 141.89V141.991H245.928V141.89H239.928ZM239.928 141.789V141.89H245.928V141.789H239.928ZM239.928 141.689V141.789H245.928V141.689H239.928ZM239.928 141.589V141.689H245.928V141.589H239.928ZM239.928 141.49V141.589H245.928V141.49H239.928ZM239.928 141.39V141.49H245.928V141.39H239.928ZM239.928 141.291V141.39H245.928V141.291H239.928ZM239.928 141.193V141.291H245.928V141.193H239.928ZM239.928 141.094V141.193H245.928V141.094H239.928ZM239.928 140.996V141.094H245.928V140.996H239.928ZM239.928 140.898V140.996H245.928V140.898H239.928ZM239.928 140.801V140.898H245.928V140.801H239.928ZM239.928 140.704V140.801H245.928V140.704H239.928ZM239.928 140.607V140.704H245.928V140.607H239.928ZM239.928 140.51V140.607H245.928V140.51H239.928ZM239.928 140.414V140.51H245.928V140.414H239.928ZM239.928 140.318V140.414H245.928V140.318H239.928ZM239.928 140.223V140.318H245.928V140.223H239.928ZM239.928 140.127V140.223H245.928V140.127H239.928ZM239.928 140.032V140.127H245.928V140.032H239.928ZM239.928 139.938V140.032H245.928V139.938H239.928ZM239.928 139.843V139.938H245.928V139.843H239.928ZM239.928 139.749V139.843H245.928V139.749H239.928ZM239.928 139.656V139.749H245.928V139.656H239.928ZM239.928 139.562V139.656H245.928V139.562H239.928ZM239.928 139.47V139.562H245.928V139.47H239.928ZM239.928 139.377V139.47H245.928V139.377H239.928ZM239.928 139.285V139.377H245.928V139.285H239.928ZM239.928 139.193V139.285H245.928V139.193H239.928ZM239.928 139.101V139.193H245.928V139.101H239.928ZM239.928 139.01V139.101H245.928V139.01H239.928ZM239.928 138.919V139.01H245.928V138.919H239.928ZM239.928 138.828V138.919H245.928V138.828H239.928ZM239.928 138.738V138.828H245.928V138.738H239.928ZM239.928 138.648V138.738H245.928V138.648H239.928ZM239.928 138.559V138.648H245.928V138.559H239.928ZM239.928 138.47V138.559H245.928V138.47H239.928ZM239.928 138.381V138.47H245.928V138.381H239.928ZM239.928 138.292V138.381H245.928V138.292H239.928ZM239.928 138.204V138.292H245.928V138.204H239.928ZM239.928 138.117V138.204H245.928V138.117H239.928ZM239.928 138.029V138.117H245.928V138.029H239.928ZM239.928 137.942V138.029H245.928V137.942H239.928ZM239.928 137.856V137.942H245.928V137.856H239.928ZM239.928 137.77V137.856H245.928V137.77H239.928ZM239.928 137.684V137.77H245.928V137.684H239.928ZM239.928 137.598V137.684H245.928V137.598H239.928ZM239.928 137.513V137.598H245.928V137.513H239.928ZM239.928 137.429V137.513H245.928V137.429H239.928ZM239.928 137.344V137.429H245.928V137.344H239.928ZM239.928 137.26V137.344H245.928V137.26H239.928ZM239.928 137.177V137.26H245.928V137.177H239.928ZM239.928 137.094V137.177H245.928V137.094H239.928ZM239.928 137.011V137.094H245.928V137.011H239.928ZM239.928 136.929V137.011H245.928V136.929H239.928ZM239.928 136.847V136.929H245.928V136.847H239.928ZM239.928 136.765V136.847H245.928V136.765H239.928ZM239.928 136.684V136.765H245.928V136.684H239.928ZM239.928 136.603V136.684H245.928V136.603H239.928ZM239.928 136.523V136.603H245.928V136.523H239.928ZM239.928 136.443V136.523H245.928V136.443H239.928ZM239.928 136.364V136.443H245.928V136.364H239.928ZM239.928 136.285V136.364H245.928V136.285H239.928ZM239.928 136.206V136.285H245.928V136.206H239.928ZM239.928 136.128V136.206H245.928V136.128H239.928ZM239.928 136.05V136.128H245.928V136.05H239.928ZM239.928 135.972V136.05H245.928V135.972H239.928ZM239.928 135.895V135.972H245.928V135.895H239.928ZM239.928 135.878V135.895H245.928V135.878H239.928ZM240.757 138.082L241.406 138.464L244.45 133.293L243.801 132.911L240.757 138.082ZM239.915 137.587C240.205 137.757 240.486 137.922 240.758 138.082L243.801 132.911C243.527 132.75 243.244 132.584 242.953 132.413L239.915 137.587ZM224.386 128.54C230.485 132.076 235.966 135.268 239.915 137.587L242.953 132.413C238.991 130.086 233.498 126.887 227.396 123.349L224.386 128.54ZM203.179 116.291C210.145 120.299 217.633 124.624 224.386 128.54L227.396 123.349C220.637 119.43 213.143 115.101 206.171 111.09L203.179 116.291ZM201.935 185.142L202.119 235.578L208.119 235.556L207.935 185.12L201.935 185.142ZM242.89 181.651L204.897 182.132L204.973 188.131L242.966 187.65L242.89 181.651ZM245.928 214.031V184.65H239.928V214.031H245.928ZM206.604 238.174L244.413 216.637L241.444 211.424L203.635 232.961L206.604 238.174ZM225.976 85.6472L279.47 116.406L282.461 111.205L228.967 80.4458L225.976 85.6472ZM234.84 64.213L224.871 81.5511L230.072 84.5419L240.042 67.2038L234.84 64.213ZM297.414 96.7322L238.936 63.1077L235.945 68.3091L294.423 101.934L297.414 96.7322ZM302.397 99.5977L297.414 96.7322L294.423 101.934L299.406 104.799L302.397 99.5977ZM303.933 107.931L303.902 102.182L297.902 102.215L297.933 107.963L303.933 107.931ZM304.664 240.966L303.933 107.931L297.933 107.963L298.664 240.999L304.664 240.966ZM304.696 246.739L304.664 240.966L298.664 240.999L298.696 246.772L304.696 246.739ZM298.228 252.259L303.211 249.345L300.181 244.166L295.199 247.08L298.228 252.259ZM182.004 320.239L298.228 252.259L295.199 247.08L178.975 315.06L182.004 320.239ZM176.825 323.269L182.004 320.239L178.975 315.06L173.795 318.09L176.825 323.269ZM168.627 320.089L173.738 323.234L176.882 318.124L171.772 314.979L168.627 320.089ZM149.622 308.394L168.627 320.089L171.772 314.979L152.767 303.284L149.622 308.394ZM144.863 305.465L149.622 308.394L152.767 303.284L148.008 300.355L144.863 305.465ZM143.436 297.322V302.91H149.436V297.322H143.436ZM143.436 259.277V297.322H149.436V259.277H143.436ZM113.282 243.658C123.51 249.58 135.498 256.487 144.948 261.882L147.923 256.672C138.487 251.284 126.51 244.384 116.288 238.465L113.282 243.658ZM97.7583 234.635C101.721 236.952 107.198 240.135 113.282 243.658L116.288 238.465C110.208 234.945 104.739 231.766 100.787 229.455L97.7583 234.635ZM93.0245 231.852C94.1606 232.527 95.781 233.479 97.7583 234.635L100.787 229.455C98.8127 228.301 97.2061 227.357 96.0877 226.693L93.0245 231.852ZM91.6195 231.009C91.9807 231.23 92.464 231.519 93.0245 231.852L96.0877 226.693C95.5326 226.363 95.0758 226.09 94.7481 225.89L91.6195 231.009ZM91.0199 230.635C91.2323 230.772 91.4527 230.907 91.6194 231.009L94.7481 225.89C94.5922 225.794 94.4226 225.689 94.2739 225.594L91.0199 230.635ZM90.4318 230.236C90.704 230.43 90.9372 230.581 91.0202 230.635L94.2737 225.593C94.2143 225.555 94.0748 225.465 93.9185 225.353L90.4318 230.236ZM90.396 230.21L90.3966 230.21L93.9538 225.379L93.9531 225.378L90.396 230.21ZM89.539 229.54C89.9668 229.904 90.3279 230.162 90.4317 230.236L93.9174 225.352C93.8621 225.313 93.6625 225.17 93.428 224.971L89.539 229.54ZM88.2419 228.27C88.8311 228.933 89.3587 229.386 89.5389 229.54L93.428 224.971C93.3337 224.89 93.0469 224.645 92.7272 224.285L88.2419 228.27ZM86.8434 226.373C87.2225 226.969 87.8692 227.836 88.2057 228.229L92.7634 224.326C92.7146 224.269 92.5646 224.08 92.3679 223.814C92.1769 223.555 92.005 223.309 91.9044 223.151L86.8434 226.373ZM84.9695 219.892C85.0684 221.031 85.3672 222.313 85.6713 223.362C85.9648 224.374 86.3503 225.469 86.7277 226.175L92.0201 223.349C92.0209 223.35 92.0143 223.338 92.0006 223.309C91.9873 223.28 91.97 223.242 91.949 223.193C91.9064 223.093 91.8553 222.964 91.7979 222.808C91.6827 222.496 91.5557 222.111 91.4339 221.691C91.1807 220.818 90.9978 219.958 90.947 219.373L84.9695 219.892ZM84.9582 219.629V219.632H90.9582V219.629H84.9582ZM84.9582 219.62L84.9582 219.63L90.9582 219.628L90.9582 219.618L84.9582 219.62ZM84.9582 219.582L84.9582 219.619L90.9582 219.619L90.9582 219.582L84.9582 219.582ZM84.9582 219.444L84.9582 219.583L90.9582 219.582L90.9582 219.443L84.9582 219.444ZM84.9581 218.913L84.9582 219.444L90.9582 219.443L90.9581 218.912L84.9581 218.913ZM84.9577 216.899L84.9581 218.913L90.9581 218.912L90.9577 216.898L84.9577 216.899ZM84.9565 209.536L84.9577 216.899L90.9577 216.898L90.9565 209.535L84.9565 209.536ZM84.9525 185.245C84.954 194.748 84.9554 203.325 84.9565 209.536L90.9565 209.535C90.9554 203.324 90.954 194.748 90.9525 185.244L84.9525 185.245ZM84.9468 128.604C84.9468 143.521 84.9497 166.237 84.9525 185.245L90.9525 185.244C90.9497 166.236 90.9468 143.52 90.9468 128.604H84.9468ZM84.9468 122.703V128.604H90.9468V122.703H84.9468ZM91.6627 117.224L86.4966 120.076L89.397 125.329L94.563 122.476L91.6627 117.224ZM150.151 84.9262L91.6627 117.224L94.563 122.476L153.052 90.1787L150.151 84.9262ZM164.985 76.7349L150.151 84.9262L153.052 90.1787L167.886 81.9873L164.985 76.7349ZM169.436 96.3065V79.3611H163.436V96.3065H169.436ZM169.436 291.734V96.3065H163.436V291.734H169.436ZM177.144 294.801L168.008 289.179L164.863 294.289L173.999 299.911L177.144 294.801ZM280.118 232.731L174.057 294.767L177.086 299.946L283.148 237.91L280.118 232.731ZM277.965 113.822L278.633 235.337L284.633 235.304L283.965 113.789L277.965 113.822ZM143.436 113.252V236.228H149.436V113.252H143.436ZM109.397 137.131L147.886 115.878L144.985 110.626L106.497 131.879L109.397 137.131ZM110.953 185.241C110.95 168.596 110.948 149.108 110.947 134.505L104.947 134.505C104.948 149.109 104.95 168.597 104.953 185.242L110.953 185.241ZM110.957 213.954C110.956 207.811 110.954 197.268 110.953 185.241L104.953 185.242C104.954 197.269 104.956 207.812 104.957 213.955L110.957 213.954ZM110.882 212.19C110.386 211.901 109.917 211.626 109.474 211.366L106.44 216.543C106.885 216.803 107.356 217.079 107.853 217.37L110.882 212.19ZM126.31 221.157C120.242 217.644 114.8 214.481 110.882 212.19L107.853 217.37C111.782 219.667 117.232 222.834 123.303 226.35L126.31 221.157ZM147.93 233.627C140.809 229.537 133.169 225.129 126.31 221.157L123.303 226.35C130.168 230.324 137.814 234.736 144.941 238.83L147.93 233.627Z" fill="black" mask="url(#path-2-inside-1_121_673)"/>
<circle cx="138.038" cy="265.921" r="10.5148" fill="white"/>
</g>
</g>
<defs>
<filter id="filter0_ii_121_673" x="-38" y="-54" width="428" height="425" filterUnits="userSpaceOnUse" color-interpolation-filters="sRGB">
<feFlood flood-opacity="0" result="BackgroundImageFix"/>
<feBlend mode="normal" in="SourceGraphic" in2="BackgroundImageFix" result="shape"/>
<feColorMatrix in="SourceAlpha" type="matrix" values="0 0 0 0 0 0 0 0 0 0 0 0 0 0 0 0 0 0 127 0" result="hardAlpha"/>
<feOffset dx="41" dy="22"/>
<feGaussianBlur stdDeviation="28.5"/>
<feComposite in2="hardAlpha" operator="arithmetic" k2="-1" k3="1"/>
<feColorMatrix type="matrix" values="0 0 0 0 1 0 0 0 0 1 0 0 0 0 1 0 0 0 0.25 0"/>
<feBlend mode="normal" in2="shape" result="effect1_innerShadow_121_673"/>
<feColorMatrix in="SourceAlpha" type="matrix" values="0 0 0 0 0 0 0 0 0 0 0 0 0 0 0 0 0 0 127 0" result="hardAlpha"/>
<feOffset dx="-38" dy="-54"/>
<feGaussianBlur stdDeviation="39.5"/>
<feComposite in2="hardAlpha" operator="arithmetic" k2="-1" k3="1"/>
<feColorMatrix type="matrix" values="0 0 0 0 0 0 0 0 0 0 0 0 0 0 0 0 0 0 0.25 0"/>
<feBlend mode="normal" in2="effect1_innerShadow_121_673" result="effect2_innerShadow_121_673"/>
</filter>
<clipPath id="clip0_121_673">
<rect width="349" height="349" rx="174.5" fill="white"/>
</clipPath>
</defs>
</svg>
