<svg width="540" height="593" viewBox="0 0 540 593" fill="none" xmlns="http://www.w3.org/2000/svg">
<g style="mix-blend-mode:lighten" opacity="0.8" filter="url(#filter0_b_344_2053)">
<g filter="url(#filter1_d_344_2053)">
<path d="M269.271 95L95 195.541L269.271 296.92L443.542 195.541L269.271 95Z" stroke="#5D5FEF" stroke-width="6.7736" stroke-linejoin="round" shape-rendering="crispEdges"/>
</g>
<g filter="url(#filter2_d_344_2053)">
<path d="M269.273 498V296.918L445.149 195.455L443.544 397.459L269.273 498Z" stroke="#5D5FEF" stroke-width="6.7736" stroke-linejoin="bevel" shape-rendering="crispEdges"/>
</g>
<g filter="url(#filter3_d_344_2053)">
<path d="M269.273 498V296.918L95.0024 195.539V397.459L269.273 498Z" stroke="#5D5FEF" stroke-width="6.7736" stroke-linejoin="round" shape-rendering="crispEdges"/>
</g>
<g filter="url(#filter4_d_344_2053)">
<path fill-rule="evenodd" clip-rule="evenodd" d="M270.52 139.908L267.866 138.378L265.186 139.862L131.76 213.763L128.945 215.322L128.967 218.54L130.014 375.045L130.035 378.122L132.688 379.681L199.715 419.059L205.205 409.715L140.831 371.895L139.826 221.685L267.757 150.827L284.188 160.306L285.015 386.758L285.049 396.042L293.116 391.447L359.305 353.744L362.042 352.185V349.036V297.089V291.601L362.041 291.601V291.508V291.382V291.256V291.129V291.003V290.876V290.749V290.621V290.493V290.365V290.237V290.109V289.98V289.852V289.723V289.594V289.464V289.335V289.205V289.075V288.945V288.814V288.684V288.553V288.422V288.291V288.16V288.028V287.896V287.765V287.633V287.5V287.368V287.236V287.103V286.97V286.837V286.704V286.571V286.437V286.304V286.17V286.036V285.902V285.768V285.634V285.499V285.365V285.23V285.095V284.96V284.825V284.69V284.555V284.419V284.284V284.148V284.012V283.876V283.741V283.604V283.468V283.332V283.196V283.059V282.923V282.786V282.649V282.513V282.376V282.239V282.102V281.965V281.828V281.69V281.553V281.416V281.278V281.141V281.003V280.866V280.728V280.59V280.453V280.315V280.177V280.039V279.901V279.763V279.625V279.487V279.349V279.211V279.073V278.935V278.797V278.659V278.521V278.383V278.245V278.106V277.968V277.83V277.692V277.554V277.416V277.277V277.139V277.001V276.863V276.725V276.587V276.449V276.311V276.173V276.035V275.897V275.759V275.621V275.483V275.345V275.208V275.07V274.932V274.795V274.657V274.52V274.382V274.245V274.107V273.97V273.833V273.696V273.559V273.422V273.285V273.148V273.011V272.875V272.738V272.602V272.465V272.329V272.193V272.057V271.92V271.785V271.649V271.513V271.377V271.242V271.107V270.971V270.836V270.701V270.566V270.432V270.297V270.162V270.028V269.894V269.76V269.626V269.492V269.358V269.225V269.091V268.958V268.825V268.692V268.559V268.427V268.294V268.162V268.03V267.898V267.766V267.635V267.503V267.372V267.241V267.11V266.979V266.849V266.719V266.588V266.459V266.329V266.199V266.07V265.941V265.812V265.683V265.555V265.427V265.299V265.171V265.043V264.916V264.789V264.662V264.535V264.409V264.282V264.156V264.031V263.905V263.78V263.655V263.53V263.406V263.282V263.158V263.034V262.91V262.787V262.664V262.542V262.419V262.297V262.175V262.054V261.932V261.811V261.691V261.57V261.45V261.33V261.211V261.092V260.973V260.854V260.736V260.618V260.5V260.383V260.266V260.149V260.032V259.916V259.8V259.685V259.57V259.455V259.34V259.226V259.112V258.999V258.886V258.773V258.661V258.549V258.437V258.325V258.214V258.104V257.993V257.883V257.774V257.665V257.556V257.447V257.339V257.232V257.124V257.017V256.911V256.805V256.699V256.593V256.488V256.384V256.28V256.176V256.072V255.969V255.867V255.765V255.663V255.562V255.461V255.36V255.26V255.16V255.061V254.962V254.864V254.766V254.669V254.572V254.475V254.379V254.283V254.188V254.093V253.999V253.905V253.811V253.718V253.626V253.534V253.442V253.351V253.26V253.17V253.08V252.991V252.902V252.814V252.726V252.639V252.552V252.466V252.38V252.295V252.21V252.126V252.042V251.959V251.876V251.793V251.712V251.63V251.55V251.47V251.39V251.311V251.232V251.154V251.077V250.999V250.923V250.847V250.772V250.697V250.623V250.549V250.476V250.403V250.331V250.259V250.188V250.118V250.048V249.979V249.91V249.842V249.775V249.708V249.641V249.575V249.51V249.446V249.381V249.318V249.255V249.193V249.131V249.07V249.01V248.95V248.891V248.832V248.774V248.717V248.66V248.604V248.548V248.493V248.439V248.385V248.332V248.28V248.228V248.177V248.127V248.077V248.028V247.979V247.931V247.884V247.838V247.792V247.747V247.702V247.658V247.615V247.572V247.53V247.489V247.449V247.409V247.37V247.331V247.293V247.256V247.22V247.184V247.149V247.115V247.081V247.048V247.016V246.984V246.953V246.923V246.894V246.865V246.837V246.81V246.784V246.758V246.733V246.709V246.685V246.662V246.64V246.619V246.598V246.578V246.559V246.541V246.523V246.506V246.49V246.475V246.46V246.446V246.433V246.421V246.41V246.399V246.389V246.38V246.371V246.364V246.357V246.351V246.346V246.341V246.338V246.335V246.333C362.041 244.535 361.141 243.326 361.019 243.163L361.009 243.149C360.75 242.792 360.505 242.547 360.403 242.447C360.177 242.226 359.979 242.072 359.913 242.021C359.748 241.892 359.597 241.79 359.527 241.742C359.36 241.629 359.167 241.506 358.986 241.393C358.607 241.156 358.079 240.835 357.436 240.449C356.14 239.672 354.28 238.572 351.996 237.231C347.423 234.546 341.104 230.865 334.101 226.805C321.275 219.368 306.132 210.64 295.187 204.39L295.015 157.15L295.003 154.033L292.304 152.476L270.52 139.908ZM295.233 216.902L295.508 292.444L351.204 291.739V291.634V291.508V291.382V291.256V291.129V291.003V290.876V290.749V290.621V290.493V290.365V290.237V290.109V289.98V289.852V289.723V289.594V289.464V289.335V289.205V289.075V288.945V288.814V288.684V288.553V288.422V288.291V288.16V288.028V287.896V287.765V287.633V287.5V287.368V287.236V287.103V286.97V286.837V286.704V286.571V286.437V286.304V286.17V286.036V285.902V285.768V285.634V285.499V285.365V285.23V285.095V284.96V284.825V284.69V284.555V284.419V284.284V284.148V284.012V283.876V283.741V283.604V283.468V283.332V283.196V283.059V282.923V282.786V282.649V282.513V282.376V282.239V282.102V281.965V281.828V281.69V281.553V281.416V281.278V281.141V281.003V280.866V280.728V280.59V280.453V280.315V280.177V280.039V279.901V279.763V279.625V279.487V279.349V279.211V279.073V278.935V278.797V278.659V278.521V278.383V278.245V278.106V277.968V277.83V277.692V277.554V277.416V277.277V277.139V277.001V276.863V276.725V276.587V276.449V276.311V276.173V276.035V275.897V275.759V275.621V275.483V275.345V275.208V275.07V274.932V274.795V274.657V274.52V274.382V274.245V274.107V273.97V273.833V273.696V273.559V273.422V273.285V273.148V273.011V272.875V272.738V272.602V272.465V272.329V272.193V272.057V271.92V271.785V271.649V271.513V271.377V271.242V271.107V270.971V270.836V270.701V270.566V270.432V270.297V270.162V270.028V269.894V269.76V269.626V269.492V269.358V269.225V269.091V268.958V268.825V268.692V268.559V268.427V268.294V268.162V268.03V267.898V267.766V267.635V267.503V267.372V267.241V267.11V266.979V266.849V266.719V266.588V266.459V266.329V266.199V266.07V265.941V265.812V265.683V265.555V265.427V265.299V265.171V265.043V264.916V264.789V264.662V264.535V264.409V264.282V264.156V264.031V263.905V263.78V263.655V263.53V263.406V263.282V263.158V263.034V262.91V262.787V262.664V262.542V262.419V262.297V262.175V262.054V261.932V261.811V261.691V261.57V261.45V261.33V261.211V261.092V260.973V260.854V260.736V260.618V260.5V260.383V260.266V260.149V260.032V259.916V259.8V259.685V259.57V259.455V259.34V259.226V259.112V258.999V258.886V258.773V258.661V258.549V258.437V258.325V258.214V258.104V257.993V257.883V257.774V257.665V257.556V257.447V257.339V257.232V257.124V257.017V256.911V256.805V256.699V256.593V256.488V256.384V256.28V256.176V256.072V255.969V255.867V255.765V255.663V255.562V255.461V255.36V255.26V255.16V255.061V254.962V254.864V254.766V254.669V254.572V254.475V254.379V254.283V254.188V254.093V253.999V253.905V253.811V253.718V253.626V253.534V253.442V253.351V253.26V253.17V253.08V252.991V252.902V252.814V252.726V252.639V252.552V252.466V252.38V252.295V252.21V252.126V252.042V251.959V251.876V251.793V251.712V251.63V251.55V251.47V251.39V251.311V251.232V251.154V251.077V250.999V250.923V250.847V250.772V250.697V250.623V250.549V250.476V250.403V250.331V250.259V250.188V250.118V250.048V249.979V249.91V249.842V249.775V249.708V249.641V249.575V249.51V249.446V249.381V249.35C350.003 248.634 348.414 247.695 346.508 246.576C341.96 243.906 335.66 240.237 328.664 236.18C317.86 229.915 305.414 222.737 295.233 216.902ZM295.819 377.435L295.548 303.282L351.204 302.577V345.886L295.819 377.435ZM394.783 223.987L330.456 187L335.858 177.604L402.886 216.145L405.586 217.698L405.603 220.813L406.441 373.3L406.458 376.428L403.758 378.007L270.542 455.927L267.735 457.568L264.966 455.864L243.182 442.459L240.603 440.872V437.844V390.725C229.42 384.356 214.158 375.566 201.31 368.127C194.342 364.093 188.077 360.451 183.551 357.805C181.29 356.483 179.454 355.405 178.18 354.648C177.546 354.271 177.034 353.965 176.673 353.744C176.498 353.637 176.326 353.531 176.184 353.439C176.123 353.4 176.005 353.323 175.878 353.232C175.829 353.197 175.673 353.086 175.49 352.93C175.414 352.865 175.193 352.675 174.946 352.397C174.815 352.245 174.509 351.836 174.343 351.575C174.098 351.116 173.657 349.729 173.576 348.794V348.793V348.79V348.778L173.576 348.736L173.576 348.576L173.575 347.968L173.575 345.66L173.574 337.221C173.572 330.102 173.571 320.271 173.569 309.377C173.566 287.591 173.562 261.554 173.562 244.457V241.259L176.362 239.713L243.402 202.693L251.441 198.255V207.437V434.815L267.876 444.93L395.586 370.232L394.783 223.987ZM240.603 378.246V216.62L184.4 247.655C184.401 264.687 184.404 288.907 184.407 309.376C184.409 325.793 184.412 339.797 184.413 345.743C185.599 346.445 187.159 347.36 189.021 348.449C193.529 351.085 199.779 354.717 206.74 358.748C217.622 365.049 230.226 372.312 240.603 378.246Z" fill="#BB5BE9"/>
<circle cx="330.648" cy="180.628" r="8.37841" fill="#BB5BE9"/>
<circle cx="203.296" cy="415.218" r="8.37841" fill="#BB5BE9"/>
</g>
</g>
<defs>
<filter id="filter0_b_344_2053" x="87.6133" y="87.6132" width="364.922" height="417.774" filterUnits="userSpaceOnUse" color-interpolation-filters="sRGB">
<feFlood flood-opacity="0" result="BackgroundImageFix"/>
<feGaussianBlur in="BackgroundImage" stdDeviation="2"/>
<feComposite in2="SourceAlpha" operator="in" result="effect1_backgroundBlur_344_2053"/>
<feBlend mode="normal" in="SourceGraphic" in2="effect1_backgroundBlur_344_2053" result="shape"/>
</filter>
<filter id="filter1_d_344_2053" x="0.847046" y="0.846962" width="536.849" height="390.226" filterUnits="userSpaceOnUse" color-interpolation-filters="sRGB">
<feFlood flood-opacity="0" result="BackgroundImageFix"/>
<feColorMatrix in="SourceAlpha" type="matrix" values="0 0 0 0 0 0 0 0 0 0 0 0 0 0 0 0 0 0 127 0" result="hardAlpha"/>
<feOffset/>
<feGaussianBlur stdDeviation="45.3831"/>
<feComposite in2="hardAlpha" operator="out"/>
<feColorMatrix type="matrix" values="0 0 0 0 0.0703705 0 0 0 0 0.327341 0 0 0 0 1 0 0 0 1 0"/>
<feBlend mode="normal" in2="BackgroundImageFix" result="effect1_dropShadow_344_2053"/>
<feBlend mode="normal" in="SourceGraphic" in2="effect1_dropShadow_344_2053" result="shape"/>
</filter>
<filter id="filter2_d_344_2053" x="175.12" y="101.755" width="364.181" height="489.945" filterUnits="userSpaceOnUse" color-interpolation-filters="sRGB">
<feFlood flood-opacity="0" result="BackgroundImageFix"/>
<feColorMatrix in="SourceAlpha" type="matrix" values="0 0 0 0 0 0 0 0 0 0 0 0 0 0 0 0 0 0 127 0" result="hardAlpha"/>
<feOffset/>
<feGaussianBlur stdDeviation="45.3831"/>
<feComposite in2="hardAlpha" operator="out"/>
<feColorMatrix type="matrix" values="0 0 0 0 0.0703705 0 0 0 0 0.327341 0 0 0 0 1 0 0 0 1 0"/>
<feBlend mode="normal" in2="BackgroundImageFix" result="effect1_dropShadow_344_2053"/>
<feBlend mode="normal" in="SourceGraphic" in2="effect1_dropShadow_344_2053" result="shape"/>
</filter>
<filter id="filter3_d_344_2053" x="0.850952" y="101.386" width="362.575" height="490.767" filterUnits="userSpaceOnUse" color-interpolation-filters="sRGB">
<feFlood flood-opacity="0" result="BackgroundImageFix"/>
<feColorMatrix in="SourceAlpha" type="matrix" values="0 0 0 0 0 0 0 0 0 0 0 0 0 0 0 0 0 0 127 0" result="hardAlpha"/>
<feOffset/>
<feGaussianBlur stdDeviation="45.3831"/>
<feComposite in2="hardAlpha" operator="out"/>
<feColorMatrix type="matrix" values="0 0 0 0 0.0703705 0 0 0 0 0.327341 0 0 0 0 1 0 0 0 1 0"/>
<feBlend mode="normal" in2="BackgroundImageFix" result="effect1_dropShadow_344_2053"/>
<feBlend mode="normal" in="SourceGraphic" in2="effect1_dropShadow_344_2053" result="shape"/>
</filter>
<filter id="filter4_d_344_2053" x="97.7868" y="107.219" width="339.829" height="381.508" filterUnits="userSpaceOnUse" color-interpolation-filters="sRGB">
<feFlood flood-opacity="0" result="BackgroundImageFix"/>
<feColorMatrix in="SourceAlpha" type="matrix" values="0 0 0 0 0 0 0 0 0 0 0 0 0 0 0 0 0 0 127 0" result="hardAlpha"/>
<feOffset/>
<feGaussianBlur stdDeviation="15.5793"/>
<feComposite in2="hardAlpha" operator="out"/>
<feColorMatrix type="matrix" values="0 0 0 0 0.734731 0 0 0 0 0.356973 0 0 0 0 0.9125 0 0 0 1 0"/>
<feBlend mode="normal" in2="BackgroundImageFix" result="effect1_dropShadow_344_2053"/>
<feBlend mode="normal" in="SourceGraphic" in2="effect1_dropShadow_344_2053" result="shape"/>
</filter>
</defs>
</svg>
